<?xml version="1.0" standalone="no"?>
<!DOCTYPE svg PUBLIC "-//W3C//DTD SVG 20010904//EN"
 "http://www.w3.org/TR/2001/REC-SVG-20010904/DTD/svg10.dtd">
<svg version="1.0" xmlns="http://www.w3.org/2000/svg"
 width="432.000000pt" height="394.000000pt" viewBox="0 0 432.000000 394.000000"
 preserveAspectRatio="xMidYMid meet">

<g transform="translate(0.000000,394.000000) scale(0.100000,-0.100000)"
fill="#008970b0" stroke="none">
<path d="M1935 3911 c-315 -56 -591 -187 -702 -333 -77 -101 -107 -182 -134
-366 -22 -155 -45 -227 -96 -300 -59 -86 -116 -127 -308 -221 -249 -123 -391
-227 -542 -399 -135 -156 -169 -274 -110 -393 48 -99 137 -171 354 -287 127
-68 202 -128 252 -204 86 -127 90 -222 20 -428 -34 -100 -42 -140 -43 -200 -2
-184 85 -261 343 -305 224 -38 381 -111 556 -258 82 -69 142 -101 228 -124
101 -26 193 -14 402 53 420 132 473 146 570 146 151 0 288 -40 560 -162 218
-98 297 -120 427 -120 192 0 338 82 447 249 115 179 118 371 9 661 -88 233
-110 351 -89 473 16 92 41 146 111 236 89 115 115 178 115 276 0 95 -25 154
-109 262 -94 121 -121 207 -113 361 6 112 16 153 86 352 33 93 41 128 41 187
0 83 -10 117 -48 156 -66 70 -163 89 -370 74 -248 -17 -449 7 -563 70 -27 14
-87 58 -132 96 -276 234 -530 390 -713 438 -112 29 -315 34 -449 10z m430 -70
c165 -42 412 -192 662 -402 222 -186 312 -212 738 -207 264 3 271 3 312 -20
53 -28 73 -65 73 -134 0 -60 -11 -101 -74 -283 -52 -150 -68 -267 -54 -383 13
-114 42 -174 150 -317 72 -95 89 -207 47 -304 -12 -29 -46 -82 -76 -119 -95
-119 -133 -220 -133 -359 0 -101 18 -190 66 -319 77 -211 94 -266 104 -351 32
-253 -107 -484 -331 -554 -137 -43 -285 -17 -524 91 -294 133 -437 174 -595
173 -116 -1 -188 -18 -575 -143 -221 -71 -298 -82 -390 -55 -88 25 -130 50
-234 136 -153 128 -307 198 -527 239 -206 38 -259 63 -296 140 -34 70 -29 149
22 295 55 157 64 268 31 368 -44 132 -160 246 -341 337 -176 88 -287 174 -323
252 -23 49 -21 132 3 187 27 58 101 150 197 241 133 129 272 220 455 300 130
56 224 123 283 202 77 103 103 175 125 349 32 260 124 397 332 498 312 152
629 203 873 142z"/>
</g>
</svg>
