<?xml version="1.0" encoding="UTF-8" standalone="no" ?>
<!DOCTYPE svg PUBLIC "-//W3C//DTD SVG 1.1//EN" "http://www.w3.org/Graphics/SVG/1.1/DTD/svg11.dtd">
<svg xmlns="http://www.w3.org/2000/svg" xmlns:xlink="http://www.w3.org/1999/xlink" version="1.1" width="565" height="516" viewBox="0 0 565 516" xml:space="preserve">
<desc>Created with Fabric.js 3.6.3</desc>
<defs>
</defs>
<rect x="0" y="0" width="100%" height="100%" fill="rgba(98, 18, 18, 0)"></rect>
<g transform="matrix(0.13 0 0 -0.13 282.83 258.45)"  >
<path style="stroke: rgb(0,0,0); stroke-width: 3; stroke-dasharray: none; stroke-linecap: butt; stroke-dashoffset: 0; stroke-linejoin: miter; stroke-miterlimit: 4; fill: rgb(0,0,0); fill-opacity: 0; fill-rule: nonzero; opacity: 1;" vector-effect="non-scaling-stroke"  transform=" translate(-2119.89, -1928.82)" d="M 1990 3850 c -301 -42 -598 -158 -725 -284 c -101 -102 -144 -202 -174 -409 c -27 -187 -50 -246 -129 -345 c -52 -64 -139 -124 -248 -172 c -198 -86 -345 -182 -482 -314 c -214 -206 -268 -347 -185 -481 c 44 -70 125 -132 272 -211 c 271 -144 365 -246 391 -424 c 10 -73 -3 -153 -46 -275 c -41 -115 -54 -228 -34 -289 c 16 -49 63 -102 113 -127 c 21 -11 112 -35 201 -53 c 249 -51 388 -114 549 -251 c 133 -112 242 -152 377 -139 c 37 4 148 33 260 70 c 291 94 437 134 511 141 c 145 13 345 -40 609 -161 c 245 -113 398 -145 530 -112 c 128 32 215 92 291 200 c 68 96 90 161 97 277 c 6 129 -8 202 -77 393 c -72 197 -91 280 -91 389 c 0 131 33 221 122 336 c 80 101 102 153 107 242 c 3 67 -1 86 -23 134 c -14 32 -49 86 -77 122 c -104 132 -142 269 -120 427 c 13 93 32 162 91 326 c 35 99 40 124 38 181 c -4 81 -32 127 -97 160 c -45 23 -51 24 -356 24 c -269 0 -319 2 -376 18 c -101 28 -178 73 -311 184 c -258 212 -505 360 -673 403 c -93 24 -243 33 -335 20 z" stroke-linecap="round" />
</g>
</svg>