<?xml version="1.0" encoding="UTF-8" standalone="no" ?>
<!DOCTYPE svg PUBLIC "-//W3C//DTD SVG 1.1//EN" "http://www.w3.org/Graphics/SVG/1.1/DTD/svg11.dtd">
<svg xmlns="http://www.w3.org/2000/svg" xmlns:xlink="http://www.w3.org/1999/xlink" version="1.1" width="800" height="707" viewBox="0 0 800 707" xml:space="preserve">
<desc>Created with Fabric.js 3.6.3</desc>
<defs>
</defs>
<rect x="0" y="0" width="100%" height="100%" fill="rgba(153, 30, 30, 0)"></rect>
<g transform="matrix(1 0 0 1 398.44 355.51)" clip-path="url(#CLIPPATH_5)"  >
<clipPath id="CLIPPATH_5" >
	<path transform="matrix(1 0 0 1 0 0) translate(-498.79, -535.1)" id="shape" d="M 847 701.5 Q 732 903 510.5 884.5 Q 289 866 161 683 Q 33 500 176.5 344 Q 320 188 504.5 180.5 Q 689 173 825.5 336.5 Q 962 500 847 701.5 Z" stroke-linecap="round" />
</clipPath>
<path style="stroke: none; stroke-width: 1; stroke-dasharray: none; stroke-linecap: butt; stroke-dashoffset: 0; stroke-linejoin: miter; stroke-miterlimit: 4; fill: rgb(0,137,112); fill-rule: nonzero; opacity: 1;"  transform=" translate(-498.79, -535.1)" d="M 847 701.5 Q 732 903 510.5 884.5 Q 289 866 161 683 Q 33 500 176.5 344 Q 320 188 504.5 180.5 Q 689 173 825.5 336.5 Q 962 500 847 701.5 Z" stroke-linecap="round" />
</g>
</svg>