<?xml version="1.0" standalone="no"?>
<!DOCTYPE svg PUBLIC "-//W3C//DTD SVG 20010904//EN"
 "http://www.w3.org/TR/2001/REC-SVG-20010904/DTD/svg10.dtd">
<svg version="1.0" xmlns="http://www.w3.org/2000/svg"
 width="424.000000pt" height="386.000000pt" viewBox="0 0 424.000000 386.000000"
 preserveAspectRatio="xMidYMid meet">

<g transform="translate(0.000000,386.000000) scale(0.100000,-0.100000)"
fill="#008970" stroke="none">
<path d="M1990 3850 c-301 -42 -598 -158 -725 -284 -101 -102 -144 -202 -174
-409 -27 -187 -50 -246 -129 -345 -52 -64 -139 -124 -248 -172 -198 -86 -345
-182 -482 -314 -214 -206 -268 -347 -185 -481 44 -70 125 -132 272 -211 271
-144 365 -246 391 -424 10 -73 -3 -153 -46 -275 -41 -115 -54 -228 -34 -289
16 -49 63 -102 113 -127 21 -11 112 -35 201 -53 249 -51 388 -114 549 -251
133 -112 242 -152 377 -139 37 4 148 33 260 70 291 94 437 134 511 141 145 13
345 -40 609 -161 245 -113 398 -145 530 -112 128 32 215 92 291 200 68 96 90
161 97 277 6 129 -8 202 -77 393 -72 197 -91 280 -91 389 0 131 33 221 122
336 80 101 102 153 107 242 3 67 -1 86 -23 134 -14 32 -49 86 -77 122 -104
132 -142 269 -120 427 13 93 32 162 91 326 35 99 40 124 38 181 -4 81 -32 127
-97 160 -45 23 -51 24 -356 24 -269 0 -319 2 -376 18 -101 28 -178 73 -311
184 -258 212 -505 360 -673 403 -93 24 -243 33 -335 20z"/>
</g>
</svg>
