<?xml version="1.0" standalone="no"?>
<!DOCTYPE svg PUBLIC "-//W3C//DTD SVG 20010904//EN"
 "http://www.w3.org/TR/2001/REC-SVG-20010904/DTD/svg10.dtd">
<svg version="1.0" xmlns="http://www.w3.org/2000/svg"
 width="93.000000pt" height="85.000000pt" viewBox="0 0 93.000000 85.000000"
 preserveAspectRatio="xMidYMid meet">

<g transform="translate(0.000000,85.000000) scale(0.100000,-0.100000)"
fill="#008970" stroke="none">
<path d="M370 844 c-147 -25 -219 -54 -284 -114 -104 -96 -102 -276 6 -458 47
-80 161 -191 233 -227 53 -26 71 -30 145 -30 77 0 90 3 147 34 60 32 154 118
194 176 62 92 109 222 109 306 1 181 -166 302 -432 314 -51 2 -104 2 -118 -1z"/>
</g>
</svg>
