<?xml version="1.0" standalone="no"?>
<!DOCTYPE svg PUBLIC "-//W3C//DTD SVG 20010904//EN"
 "http://www.w3.org/TR/2001/REC-SVG-20010904/DTD/svg10.dtd">
<svg version="1.0" xmlns="http://www.w3.org/2000/svg"
 width="512.000000pt" height="512.000000pt" viewBox="0 0 512.000000 512.000000"
 preserveAspectRatio="xMidYMid meet">
<metadata>
Created by potrace 1.16, written by Peter Selinger 2001-2019
</metadata>
<g transform="translate(0.000000,512.000000) scale(0.100000,-0.100000)"
fill="#000000" stroke="none">
<path d="M93 5094 c-62 -36 -93 -95 -93 -173 0 -37 6 -75 16 -94 9 -18 518
-535 1132 -1149 l1117 -1118 -1117 -1117 c-614 -615 -1123 -1132 -1132 -1150
-10 -19 -16 -57 -16 -94 0 -121 78 -199 199 -199 37 0 75 6 94 16 18 9 535
518 1150 1132 l1117 1117 1118 -1117 c614 -614 1131 -1123 1149 -1132 19 -10
57 -16 94 -16 121 0 199 78 199 199 0 37 -6 75 -16 94 -9 18 -518 535 -1132
1150 l-1117 1117 1117 1118 c614 614 1123 1131 1132 1149 10 19 16 57 16 94 0
121 -78 199 -199 199 -37 0 -75 -6 -94 -16 -18 -9 -535 -518 -1149 -1132
l-1118 -1117 -1117 1117 c-615 614 -1132 1123 -1150 1132 -52 26 -149 21 -200
-10z"/>
</g>
</svg>
