<?xml version="1.0" encoding="UTF-8"?>
<!DOCTYPE svg PUBLIC "-//W3C//DTD SVG 1.1//EN" "http://www.w3.org/Graphics/SVG/1.1/DTD/svg11.dtd">
<!-- Creator: CorelDRAW X7 -->
<svg xmlns="http://www.w3.org/2000/svg" xml:space="preserve" width="405.675mm" height="26.8026mm" version="1.1" style="shape-rendering:geometricPrecision; text-rendering:geometricPrecision; image-rendering:optimizeQuality; fill-rule:evenodd; clip-rule:evenodd"
viewBox="0 0 40568 2680"
 xmlns:xlink="http://www.w3.org/1999/xlink">
 <defs>
  <style type="text/css">
   <![CDATA[
    .fil0 {fill:black}
   ]]>
  </style>
 </defs>
 <g id="Layer_x0020_1">
  <metadata id="CorelCorpID_0Corel-Layer"/>
  <path class="fil0" d="M20284 0c740,0 1340,600 1340,1340 0,740 -600,1340 -1340,1340 -740,0 -1340,-600 -1340,-1340 0,-740 600,-1340 1340,-1340zm0 248c603,0 1092,489 1092,1092 0,26 -1,52 -3,77 -290,-199 -671,-320 -1089,-320 -418,0 -800,121 -1090,320 -2,-25 -3,-51 -3,-77 0,-603 489,-1092 1093,-1092z"/>
  <path class="fil0" d="M34222 1212l-3984 -69c-94,-1 -171,77 -171,172l0 0c0,94 77,171 171,171l7966 0c95,0 156,2 156,-92l0 0c0,-9 0,-16 -1,-23 10,-16 17,-36 17,-56l0 0c0,-57 -47,-103 -104,-103l-4050 0zm-8716 -53l-1177 -83c-146,-10 -265,119 -265,265l0 0c0,146 119,271 265,265l1871 -84 1217 0c100,0 181,-82 181,-182l0 0c0,-100 -81,-181 -181,-181l-1911 0zm3758 -376l0 0c-99,0 -179,80 -179,179l0 705c0,99 80,180 179,180l0 0c99,0 179,-81 179,-180l0 -705c0,-99 -80,-179 -179,-179zm496 264l0 0c-66,0 -119,53 -119,119l0 297c0,66 53,119 119,119l0 0c65,0 118,-53 118,-119l0 -297c0,-66 -53,-119 -118,-119zm9103 -67c-185,0 -335,150 -335,335 0,184 150,334 335,334 184,0 334,-150 334,-334 0,-185 -150,-335 -334,-335zm-10525 -211c-315,0 -571,256 -571,571 0,316 256,571 571,571 315,0 571,-255 571,-571 0,-315 -256,-571 -571,-571zm0 106c-257,0 -466,208 -466,465 0,11 1,22 2,33 123,-85 286,-137 464,-137 178,0 341,52 464,137 1,-11 1,-22 1,-33 0,-257 -208,-465 -465,-465zm11294 212c-126,0 -228,102 -228,228 0,125 102,227 228,227 126,0 765,-193 936,-236 -180,-42 -800,-219 -936,-219zm-16811 -633l0 0c-188,0 -341,154 -341,342l0 1089c0,187 153,341 341,341l0 0c188,0 341,-154 341,-341l0 -1089c0,-188 -153,-342 -341,-342zm0 135l0 0c-125,0 -227,102 -227,227l0 578c46,-77 131,-129 227,-129l0 0c96,0 181,52 227,129l0 -578c0,-125 -102,-227 -227,-227zm466 1339c318,-8 573,-268 573,-588 0,-319 -255,-580 -573,-588l0 1176zm-1293 -1141l0 0c-122,0 -223,94 -233,214 28,108 43,222 43,339 0,110 -13,217 -38,320 23,104 117,183 228,183l0 0c128,0 233,-105 233,-234l0 -589c0,-128 -105,-233 -233,-233z"/>
  <path class="fil0" d="M6346 1186l3983 -68c95,-2 172,77 172,171l0 0c0,94 -77,171 -172,171l-7966 0c-94,0 -156,2 -156,-92l0 0c0,-8 1,-16 2,-23 -11,-16 -17,-35 -17,-56l0 0c0,-57 46,-103 103,-103l4051 0zm8716 -53l1177 -82c145,-11 265,119 265,264l0 0c0,146 -120,272 -265,265l-1871 -84 -1217 0c-100,0 -182,-82 -182,-181l0 0c0,-100 82,-182 182,-182l1911 0zm-3758 -376l0 0c98,0 179,81 179,180l0 705c0,98 -81,179 -179,179l0 0c-99,0 -180,-81 -180,-179l0 -705c0,-99 81,-180 180,-180zm-496 265l0 0c65,0 119,53 119,118l0 298c0,65 -54,119 -119,119l0 0c-65,0 -119,-54 -119,-119l0 -298c0,-65 54,-118 119,-118zm-9103 -68c185,0 335,150 335,335 0,185 -150,335 -335,335 -185,0 -335,-150 -335,-335 0,-185 150,-335 335,-335zm10525 -210c315,0 571,255 571,571 0,315 -256,571 -571,571 -316,0 -572,-256 -572,-571 0,-316 256,-571 572,-571zm0 105c257,0 465,209 465,466 0,11 0,22 -1,32 -124,-85 -286,-136 -464,-136 -179,0 -341,51 -465,136 -1,-10 -1,-21 -1,-32 0,-257 208,-466 466,-466zm-11294 213c125,0 227,101 227,227 0,126 -102,228 -227,228 -126,0 -765,-194 -936,-237 180,-41 800,-218 936,-218zm16810 -633l0 0c188,0 342,153 342,341l0 1089c0,188 -154,341 -342,341l0 0c-187,0 -341,-153 -341,-341l0 -1089c0,-188 154,-341 341,-341zm0 135l0 0c125,0 228,102 228,227l0 578c-47,-77 -131,-130 -228,-130l0 0c-96,0 -181,53 -227,130l0 -578c0,-125 102,-227 227,-227zm-465 1339c-318,-9 -573,-269 -573,-588 0,-320 255,-580 573,-588l0 1176zm1293 -1142l0 0c122,0 223,95 233,215 -29,108 -44,221 -44,339 0,110 14,217 39,319 -24,105 -117,183 -228,183l0 0c-128,0 -233,-105 -233,-233l0 -589c0,-129 105,-234 233,-234z"/>
 </g>
</svg>
