<?xml version="1.0" standalone="no"?>
<!DOCTYPE svg PUBLIC "-//W3C//DTD SVG 20010904//EN"
 "http://www.w3.org/TR/2001/REC-SVG-20010904/DTD/svg10.dtd">
<svg version="1.0" xmlns="http://www.w3.org/2000/svg"
 width="600.000000pt" height="1004.000000pt" viewBox="0 0 600.000000 1004.000000"
 preserveAspectRatio="xMidYMid meet">

<g transform="translate(0.000000,1004.000000) scale(0.100000,-0.100000)"
fill="#feab6b" stroke="none">
<path d="M3150 10019 c-62 -26 -135 -118 -206 -259 -102 -206 -147 -398 -148
-635 -1 -157 11 -220 55 -307 11 -21 15 -38 10 -38 -5 0 -51 20 -103 45 -51
25 -127 52 -168 61 -128 27 -359 6 -553 -50 -108 -31 -208 -124 -222 -205 l-6
-39 -36 21 c-20 11 -51 42 -71 69 -19 27 -40 47 -46 45 -6 -2 -14 -30 -17 -63
-3 -32 -27 -126 -53 -209 -63 -198 -76 -262 -76 -374 0 -70 6 -113 24 -175 14
-44 36 -124 51 -176 37 -135 100 -255 212 -405 70 -92 106 -152 127 -205 16
-41 53 -130 83 -196 51 -119 62 -154 45 -154 -14 0 -199 157 -301 255 -51 49
-138 149 -191 221 -102 137 -136 169 -259 250 l-73 49 -132 6 c-109 6 -146 12
-220 38 -50 17 -99 31 -110 31 -54 1 -105 40 -226 174 -123 137 -160 163 -160
112 0 -32 34 -140 75 -237 18 -43 30 -81 27 -83 -4 -2 -25 -7 -47 -10 -22 -4
-91 -23 -152 -41 -62 -19 -147 -41 -189 -50 -114 -23 -113 -22 -46 -98 26 -30
81 -115 122 -188 41 -73 92 -154 113 -181 20 -26 37 -50 37 -54 0 -3 -37 -5
-82 -4 -46 2 -89 2 -95 1 -22 -2 -14 -25 26 -79 22 -28 47 -73 56 -99 53 -146
154 -291 325 -465 108 -110 155 -140 302 -192 51 -19 68 -39 86 -103 10 -33
31 -58 104 -123 111 -100 209 -165 391 -258 161 -83 301 -132 372 -132 62 0
102 18 253 114 117 75 251 142 382 194 54 21 82 26 165 26 90 0 111 -4 210
-38 142 -49 161 -60 181 -98 15 -29 109 -507 101 -514 -2 -2 -21 9 -43 25
-112 82 -255 141 -479 198 -199 50 -323 55 -468 19 -179 -45 -238 -81 -282
-170 -23 -47 -27 -68 -28 -153 -2 -113 1 -122 91 -323 85 -191 104 -228 147
-284 35 -46 38 -66 9 -66 -55 0 -273 -102 -404 -188 -105 -70 -245 -209 -284
-281 -37 -70 -46 -162 -22 -226 35 -90 194 -216 356 -281 145 -59 312 -67 510
-25 105 22 249 65 293 88 41 21 43 11 9 -39 -95 -139 -159 -339 -207 -656 -23
-147 -26 -184 -17 -240 19 -129 78 -243 144 -279 52 -29 225 -24 353 10 231
60 360 127 493 256 74 73 82 78 82 61 0 -5 34 -96 76 -202 108 -274 329 -928
369 -1093 62 -253 122 -623 165 -1020 17 -154 35 -290 41 -303 17 -43 32 -13
26 52 -41 449 -125 1001 -197 1291 -45 184 -259 817 -362 1074 -93 230 -99
252 -82 282 7 13 21 47 30 74 9 28 19 53 23 57 3 4 30 -15 59 -40 l54 -47 149
-505 c82 -278 169 -570 194 -650 25 -80 50 -183 55 -229 9 -83 27 -121 57
-121 16 0 16 10 -3 85 -8 33 -21 143 -30 245 -16 197 -35 918 -25 936 4 7 44
-5 114 -34 l109 -46 -6 -30 c-52 -286 -106 -1234 -92 -1606 10 -253 55 -722
72 -739 27 -29 27 22 0 294 -35 346 -42 594 -27 975 14 369 54 894 79 1043 l7
42 90 5 c56 4 102 12 122 23 39 21 75 81 99 162 53 187 -50 550 -203 716 -56
60 -57 62 -28 55 70 -15 188 -18 262 -6 304 49 740 308 803 477 11 29 20 63
20 74 0 49 -163 186 -308 258 -34 17 -60 35 -58 40 3 4 30 11 60 15 106 12
286 90 446 193 58 38 130 100 228 198 137 139 162 175 128 188 -15 6 -143 -10
-309 -38 -53 -9 -103 -15 -112 -13 -11 2 16 30 81 83 194 159 381 363 430 470
35 77 44 177 19 229 -30 63 -107 122 -198 153 -74 24 -97 27 -232 27 -127 1
-163 -3 -235 -22 -101 -28 -233 -88 -302 -138 -28 -19 -52 -33 -55 -30 -3 3
-12 53 -19 110 -17 130 -54 248 -94 303 -36 49 -108 99 -163 114 -44 12 -40
21 18 39 84 26 191 104 221 162 40 77 36 230 -11 406 -37 139 -71 217 -135
314 -32 47 -56 89 -52 92 3 3 49 6 103 6 160 0 323 38 479 112 105 50 192 134
303 291 134 190 160 273 116 362 -13 26 -42 66 -64 88 -65 65 -106 78 -299 92
-94 7 -234 25 -311 39 -284 51 -352 60 -475 60 -105 0 -134 -3 -180 -21 -30
-12 -72 -21 -94 -20 -42 1 -66 -20 -66 -59 0 -15 -11 -27 -36 -39 -45 -21 -52
-14 -25 24 57 80 144 142 316 226 286 140 417 241 527 410 91 139 103 190 103
420 -1 166 -4 200 -23 269 -29 100 -68 157 -128 186 -41 20 -56 22 -143 17
-156 -9 -271 -54 -509 -199 -180 -110 -262 -167 -324 -226 l-57 -54 -7 28
c-29 130 -47 180 -117 317 -133 262 -331 506 -467 575 -70 35 -150 48 -190 31z
m133 -49 c30 -11 63 -30 74 -43 28 -30 65 -128 102 -267 42 -159 50 -205 61
-360 5 -74 18 -179 30 -234 13 -65 24 -172 30 -315 6 -119 13 -231 16 -248 4
-20 2 -33 -4 -33 -18 0 -66 161 -64 211 3 52 -15 75 -63 81 -29 3 -33 10 -87
143 -98 243 -128 377 -148 655 -11 155 -31 284 -55 364 -12 40 -13 51 -3 58
21 13 54 9 111 -12z m-127 -58 c22 -75 43 -225 54 -382 18 -259 50 -395 156
-660 30 -74 54 -146 54 -160 0 -32 17 -57 50 -73 24 -12 31 -29 95 -240 l14
-48 -23 3 c-13 1 -35 -4 -50 -11 -35 -19 -41 -10 -39 55 2 47 -1 56 -24 74
-20 16 -24 23 -15 32 22 22 14 75 -15 97 -23 19 -29 20 -47 7 -12 -7 -25 -27
-30 -45 -5 -17 -12 -31 -17 -31 -16 0 -97 138 -138 234 -54 127 -87 242 -113
391 -18 105 -19 139 -12 275 4 85 9 226 9 313 l2 157 28 30 c16 17 34 29 39
27 6 -2 16 -22 22 -45z m362 -232 c18 -74 46 -202 62 -285 16 -82 43 -215 59
-295 27 -125 31 -166 31 -300 0 -85 5 -229 10 -318 11 -165 8 -206 -13 -199
-26 8 -50 198 -67 512 -6 117 -18 227 -30 285 -11 52 -25 158 -30 235 -11 171
-45 336 -105 504 -22 64 -18 70 18 31 28 -30 37 -55 65 -170z m-471 21 c-3
-69 -11 -169 -17 -221 -19 -165 10 -378 81 -595 52 -158 104 -263 178 -358 33
-43 63 -88 67 -100 9 -31 34 -57 54 -57 17 0 37 -46 26 -58 -3 -3 -64 51 -135
121 -71 69 -171 157 -223 195 -113 84 -152 126 -190 207 -46 100 -61 191 -54
335 6 139 24 248 60 360 46 145 129 315 148 304 7 -5 9 -50 5 -133z m593 -84
c145 -218 232 -413 246 -550 6 -56 2 -91 -22 -198 -18 -82 -33 -129 -41 -129
-7 0 -13 4 -13 10 0 14 -54 40 -83 40 -23 0 -24 4 -34 113 -10 102 -56 342
-133 697 -17 74 -30 141 -30 149 0 26 30 -10 110 -132z m1300 -117 c13 -8 11
-17 -14 -62 -81 -147 -131 -211 -240 -311 -61 -56 -130 -122 -152 -147 -69
-77 -310 -385 -360 -459 -26 -39 -48 -71 -50 -71 -2 0 -11 16 -20 36 -16 34
-19 36 -57 31 -38 -5 -39 -5 -32 21 8 34 90 177 147 258 24 34 97 121 163 193
135 149 215 256 281 377 60 111 71 123 124 133 62 12 192 13 210 1z m68 -58
c33 -45 64 -164 65 -249 2 -64 -2 -87 -22 -127 -37 -75 -83 -113 -246 -205
-242 -136 -335 -211 -460 -371 -63 -81 -165 -190 -177 -190 -4 0 -8 8 -8 18 0
10 -7 28 -16 40 -10 14 -14 33 -10 47 19 74 378 530 516 655 151 136 178 168
252 293 38 64 73 117 78 117 5 0 17 -12 28 -28z m-413 -49 c-81 -147 -152
-242 -343 -454 -101 -113 -156 -191 -224 -317 -23 -45 -47 -82 -51 -82 -11 0
2 112 24 199 11 43 43 119 76 180 94 174 103 194 115 258 l11 61 99 61 c106
66 292 161 316 161 10 0 3 -20 -23 -67z m-469 -325 c-26 -51 -65 -129 -89
-173 -54 -102 -78 -200 -85 -347 -5 -133 -11 -151 -41 -124 -21 19 -51 15 -71
-9 -7 -8 -17 -15 -23 -15 -14 0 0 138 19 192 8 24 31 112 49 195 52 232 74
272 199 365 80 60 81 60 84 34 2 -16 -14 -62 -42 -118z m907 -127 c-60 -54
-187 -138 -278 -184 -113 -57 -182 -115 -343 -288 -171 -185 -272 -274 -272
-239 0 7 34 43 75 82 41 38 103 106 139 151 73 93 189 208 257 255 26 17 111
68 190 113 175 99 200 117 241 177 l33 47 3 -35 c3 -31 -2 -40 -45 -79z m22
-115 c-27 -81 -104 -204 -175 -277 -85 -87 -220 -175 -405 -264 -152 -73 -255
-141 -299 -198 -25 -32 -25 -32 -55 -14 -38 22 -58 22 -71 -3 -15 -28 -4 -59
26 -72 13 -6 24 -19 24 -28 0 -14 -18 -22 -77 -37 -56 -13 -79 -24 -81 -36 -3
-13 4 -17 28 -17 27 0 30 -2 20 -19 -20 -38 -11 -67 33 -108 55 -51 172 -90
294 -99 61 -5 98 -13 121 -26 27 -17 37 -18 64 -9 41 14 103 3 278 -50 389
-116 617 -88 848 108 28 25 52 40 52 33 0 -42 -182 -308 -261 -382 -87 -79
-249 -150 -421 -183 -86 -16 -288 -22 -323 -9 -11 4 -54 39 -97 78 -45 43
-129 103 -208 150 -72 44 -133 84 -136 88 -3 5 1 17 10 27 22 24 20 57 -4 81
-24 24 -58 26 -89 4 -18 -13 -28 -14 -47 -5 -28 12 -30 23 -9 41 21 18 19 50
-7 77 -26 28 -48 29 -81 3 -30 -23 -43 -20 -76 21 l-24 30 28 29 c29 30 28 47
-4 89 l-18 24 -32 -24 c-18 -13 -35 -36 -38 -52 -4 -20 -10 -26 -23 -22 -22 7
-69 -11 -74 -27 -2 -7 -8 -29 -15 -49 -10 -31 -8 -43 12 -90 22 -52 25 -109 7
-109 -8 0 -17 25 -34 103 -7 29 -20 35 -33 15 -4 -7 -10 -45 -13 -85 -5 -68
-6 -71 -24 -58 -17 13 -18 19 -6 79 7 37 18 67 26 70 17 7 19 57 2 74 -17 17
-73 15 -88 -3 -18 -21 -4 -64 25 -77 20 -9 23 -16 19 -37 -14 -61 -27 -92 -45
-105 -13 -9 -29 -45 -44 -101 -13 -47 -46 -128 -73 -178 -59 -109 -69 -142
-82 -266 -13 -122 0 -231 51 -413 21 -78 36 -144 33 -147 -14 -14 -201 235
-241 320 -42 87 -53 132 -53 210 0 122 60 262 177 409 37 47 91 123 120 170
53 82 100 207 90 234 -3 7 8 23 24 35 33 24 36 46 13 79 -10 14 -25 22 -45 22
-24 0 -30 4 -27 17 2 10 12 19 23 21 29 6 45 22 45 45 0 49 -64 75 -101 41
-12 -11 -23 -13 -34 -6 -16 8 -16 10 2 23 11 8 22 22 26 31 4 11 15 17 29 15
40 -4 31 27 -17 55 l-46 28 23 30 c25 35 34 37 43 11 9 -30 44 -56 56 -44 8 8
3 24 -15 56 l-27 45 32 11 c46 16 47 15 54 -26 11 -61 16 -73 31 -73 8 0 14 4
14 9 0 5 14 14 30 21 17 7 34 19 39 28 5 8 13 12 19 8 14 -9 -11 -89 -37 -115
-24 -24 -26 -40 -8 -65 16 -22 65 -18 81 6 7 12 7 26 -2 50 -15 43 0 104 29
113 43 14 46 95 4 111 -15 6 -21 54 -9 67 3 3 18 -8 32 -24 23 -28 29 -30 69
-24 24 3 43 2 43 -3 0 -5 -23 -40 -50 -78 -47 -65 -50 -72 -44 -114 4 -30 13
-51 29 -64 20 -16 21 -22 12 -47 -9 -23 -8 -32 8 -48 20 -23 55 -27 73 -9 17
17 15 58 -4 79 -39 43 26 130 80 109 28 -10 76 2 76 19 0 6 35 40 78 75 44 36
143 135 222 221 154 168 207 211 373 301 60 33 143 87 185 120 l77 62 3 -30
c2 -17 -4 -54 -13 -82z m-2415 6 c118 -42 291 -141 435 -250 33 -25 122 -106
197 -180 l137 -135 -19 -25 c-11 -14 -20 -31 -20 -38 0 -17 -12 -18 -27 -3 -7
7 -8 21 -3 39 10 36 -8 74 -38 78 -28 4 -72 -23 -72 -44 0 -25 33 -74 50 -74
19 -1 136 -108 126 -117 -3 -4 -26 3 -51 15 -31 15 -49 32 -59 55 -16 39 -54
54 -87 36 -18 -9 -20 -18 -16 -50 3 -21 1 -39 -3 -39 -4 0 -48 18 -96 40 -59
28 -110 61 -158 103 -39 35 -105 89 -146 121 -41 32 -127 111 -190 176 -122
124 -217 192 -348 246 -37 15 -69 29 -71 31 -12 9 18 19 87 30 111 18 303 10
372 -15z m-457 -43 c147 -49 301 -152 415 -277 39 -45 127 -124 194 -178 67
-54 117 -99 111 -101 -17 -6 -363 151 -588 267 -149 77 -240 118 -315 140 -57
17 -108 34 -112 38 -14 14 68 82 128 107 72 30 88 30 167 4z m1595 -71 c3 -14
-3 -18 -26 -18 -28 0 -48 20 -34 34 13 13 57 1 60 -16z m-288 -18 c0 -11 -7
-20 -15 -20 -15 0 -21 21 -8 33 12 13 23 7 23 -13z m324 -44 c-3 -9 -10 -13
-16 -10 -5 3 -4 12 3 20 15 18 22 13 13 -10z m-64 -11 c10 -12 33 -145 26
-152 -2 -2 -17 0 -34 3 -35 7 -38 13 -47 102 -7 61 -7 62 18 62 13 0 30 -7 37
-15z m-1758 -26 c55 -16 164 -64 246 -106 260 -134 316 -161 574 -274 139 -61
279 -122 311 -136 l58 -26 -26 -27 c-14 -14 -25 -33 -25 -41 0 -29 30 -59 59
-59 16 0 49 -9 73 -20 25 -11 69 -24 99 -30 106 -21 105 -21 89 -30 -28 -15
-75 -14 -108 4 -30 16 -36 16 -57 2 -15 -10 -25 -29 -30 -55 l-7 -40 -91 5
c-56 4 -155 0 -253 -10 -89 -9 -188 -16 -221 -16 -121 0 -249 53 -353 147 -66
59 -290 316 -353 405 -86 120 -138 252 -123 312 8 33 18 33 138 -5z m-273
-113 c39 -95 72 -155 159 -298 73 -119 121 -261 141 -423 18 -145 22 -205 15
-205 -4 0 -28 19 -53 43 -26 23 -81 70 -124 105 -132 107 -200 209 -262 394
l-35 105 29 99 c48 167 84 284 87 281 1 -1 20 -46 43 -101z m1681 38 c0 -8 -7
-14 -15 -14 -15 0 -21 21 -9 33 10 9 24 -2 24 -19z m-1530 -133 c15 -31 53
-91 84 -134 32 -44 60 -97 66 -120 10 -47 2 -159 -12 -155 -5 2 -23 40 -41 84
-18 44 -56 116 -84 160 -52 81 -153 275 -153 294 0 6 25 -8 56 -31 39 -30 64
-59 84 -98z m2198 58 c-2 -6 -8 -10 -13 -10 -5 0 -11 4 -13 10 -2 6 4 11 13
11 9 0 15 -5 13 -11z m-318 -24 c9 -11 10 -19 2 -27 -14 -14 -32 -1 -32 23 0
23 13 25 30 4z m250 -42 c-14 -28 -14 -28 -18 -5 -5 34 6 58 20 44 9 -9 8 -18
-2 -39z m-572 19 c2 -7 -3 -12 -12 -12 -9 0 -16 7 -16 16 0 17 22 14 28 -4z
m672 -10 c0 -5 -9 -17 -21 -28 -36 -32 -42 -53 -24 -80 8 -13 24 -24 35 -24
11 0 20 -4 20 -10 0 -5 -10 -10 -23 -10 -31 0 -54 -18 -75 -59 -23 -46 -42
-57 -81 -45 l-30 9 54 79 c30 43 62 98 71 122 15 40 21 44 67 53 4 0 7 -3 7
-7z m-196 -53 c-7 -12 -31 -11 -38 0 -4 5 -3 17 0 26 6 15 8 15 25 -1 10 -9
16 -21 13 -25z m-144 -27 c0 -40 -25 -86 -41 -77 -10 7 -13 98 -2 108 3 4 15
7 25 7 14 0 18 -8 18 -38z m347 -8 c-9 -9 -28 6 -21 18 4 6 10 6 17 -1 6 -6 8
-13 4 -17z m-547 -24 c13 -8 13 -11 -2 -27 -17 -16 -19 -16 -34 -1 -28 27 1
50 36 28z m-256 -28 c2 -4 0 -14 -5 -22 -8 -13 -10 -13 -18 0 -10 15 -6 30 9
30 5 0 11 -4 14 -8z m496 -27 c0 -8 -4 -15 -9 -15 -13 0 -22 16 -14 24 11 11
23 6 23 -9z m-112 -28 c2 -10 -3 -17 -11 -17 -16 0 -30 24 -19 34 10 10 27 1
30 -17z m-238 -29 c0 -15 -32 -21 -40 -7 -13 20 9 43 26 28 8 -6 14 -16 14
-21z m647 16 c3 -8 1 -20 -4 -25 -12 -12 -48 14 -39 29 10 17 36 15 43 -4z
m-837 -65 c0 -5 -7 -9 -15 -9 -15 0 -20 12 -9 23 8 8 24 -1 24 -14z m-1101
-106 l82 -93 -2 -172 c-3 -161 -4 -176 -25 -208 -31 -47 -54 -140 -54 -216 0
-34 9 -128 20 -210 15 -117 17 -156 9 -190 -13 -49 -29 -49 -29 -1 0 34 -22
173 -64 402 -29 158 -61 454 -60 560 0 39 4 110 8 158 7 70 12 86 21 75 7 -7
49 -55 94 -105z m-570 35 c65 -172 129 -255 311 -406 112 -93 144 -137 155
-211 3 -25 22 -131 42 -236 40 -217 58 -472 32 -463 -8 3 -22 27 -32 54 -16
42 -121 295 -162 390 -7 17 -50 79 -94 137 -136 179 -189 282 -236 465 -14 54
-34 130 -45 170 -18 68 -19 162 -1 162 3 0 17 -28 30 -62z m2336 41 c10 -15
-1 -23 -20 -15 -9 3 -13 10 -10 16 8 13 22 13 30 -1z m-545 -75 c25 -29 -2
-27 -70 6 -39 19 -70 37 -70 41 0 29 108 -7 140 -47z m1570 16 c135 -22 320
-47 413 -55 148 -12 172 -16 211 -39 77 -45 143 -144 114 -172 -30 -28 -148
-84 -223 -105 -94 -25 -154 -22 -264 15 -105 36 -153 40 -315 26 -167 -15
-229 -7 -341 43 -38 17 -72 32 -74 34 -3 2 5 13 17 26 28 30 28 62 0 81 -28
20 -57 20 -82 1 -15 -11 -50 -15 -140 -15 -67 0 -148 -5 -181 -10 -72 -12 -98
3 -34 20 24 6 81 27 127 47 58 24 90 33 108 29 38 -10 74 17 74 54 0 33 6 38
69 56 77 23 248 11 521 -36z m-641 1 c14 -9 9 -41 -7 -41 -15 0 -34 28 -27 40
8 12 16 13 34 1z m-981 -50 c42 -22 86 -47 97 -56 19 -16 18 -16 -29 -11 -70
8 -123 24 -141 42 -14 14 -22 64 -10 64 3 0 40 -18 83 -39z m-128 -2 c0 -5 -4
-9 -10 -9 -5 0 -10 7 -10 16 0 8 5 12 10 9 6 -3 10 -10 10 -16z m750 -9 c0 -5
-4 -10 -10 -10 -5 0 -10 5 -10 10 0 6 5 10 10 10 6 0 10 -4 10 -10z m-405 -50
c3 -5 -1 -10 -9 -10 -9 0 -16 5 -16 10 0 6 4 10 9 10 6 0 13 -4 16 -10z
m-1212 -85 c30 -25 79 -59 108 -75 l54 -29 -60 -26 c-33 -15 -86 -44 -117 -66
l-58 -39 0 140 c0 77 4 140 9 140 5 0 33 -20 64 -45z m2129 10 c0 -5 -5 -11
-11 -13 -6 -2 -11 4 -11 13 0 9 5 15 11 13 6 -2 11 -8 11 -13z m-65 -20 c3 -9
3 -18 0 -21 -9 -9 -88 16 -82 26 10 16 75 12 82 -5z m-207 -4 c0 -13 -26 -21
-65 -21 -42 0 -55 17 -18 23 52 8 83 7 83 -2z m-870 -15 c0 -17 -14 -29 -23
-20 -8 8 3 34 14 34 5 0 9 -6 9 -14z m184 -21 c-4 -18 -1 -32 11 -45 12 -14
15 -27 10 -47 l-6 -27 -33 38 c-32 38 -33 39 -89 34 -32 -3 -60 -1 -62 2 -3 4
4 19 15 33 20 25 43 32 123 35 35 2 37 1 31 -23z m531 15 c3 -5 1 -10 -4 -10
-6 0 -11 5 -11 10 0 6 2 10 4 10 3 0 8 -4 11 -10z m223 -17 c-5 -25 -28 -28
-28 -4 0 12 6 21 16 21 9 0 14 -7 12 -17z m-694 -14 c-3 -5 -10 -7 -15 -3 -5
3 -7 10 -3 15 3 5 10 7 15 3 5 -3 7 -10 3 -15z m346 6 c0 -8 -7 -15 -15 -15
-16 0 -20 12 -8 23 11 12 23 8 23 -8z m490 -4 c36 -11 106 -36 155 -57 88 -37
93 -38 210 -38 66 0 170 2 230 4 102 4 117 2 208 -28 122 -40 186 -41 297 -6
45 14 86 24 92 22 14 -5 -72 -68 -137 -101 -98 -49 -160 -62 -295 -61 -140 1
-213 15 -400 73 -69 21 -146 42 -172 45 -35 5 -48 12 -48 23 0 48 -72 70 -105
33 -16 -18 -27 -20 -74 -15 -150 17 -281 54 -281 80 0 34 88 34 120 0 34 -36
66 -33 91 10 12 19 26 35 33 35 6 0 41 -9 76 -19z m-3840 -148 c157 -260 178
-283 449 -502 239 -193 284 -227 341 -256 64 -32 181 -73 285 -100 49 -12 91
-28 93 -35 12 -34 -269 37 -373 94 -33 19 -102 50 -154 70 -193 76 -326 162
-417 272 -96 114 -236 358 -303 527 -17 43 -31 80 -31 82 0 22 28 -17 110
-152z m2742 89 c16 -16 -30 -41 -66 -36 -35 5 -44 0 -69 -39 -34 -53 -313
-173 -482 -208 -49 -10 -155 -25 -235 -35 -80 -9 -166 -24 -192 -34 -51 -19
-58 -18 -58 15 0 51 33 128 73 172 51 56 96 85 199 129 77 33 81 33 186 28 67
-3 150 1 222 10 126 16 405 15 422 -2z m502 -1 c3 -5 0 -14 -8 -20 -10 -9 -15
-8 -19 3 -9 22 15 37 27 17z m-341 -57 c-7 -18 -27 -18 -43 1 -10 12 -10 18 0
30 12 14 15 14 31 -1 10 -9 15 -22 12 -30z m-110 -26 c-10 -12 -109 -94 -221
-183 -231 -186 -304 -229 -472 -275 -108 -29 -253 -92 -363 -157 -34 -20 -50
-25 -55 -16 -4 7 -16 69 -26 139 -24 172 -29 167 166 165 232 -3 384 27 553
108 55 27 131 71 170 100 54 40 78 51 107 51 38 0 68 26 68 60 0 9 19 28 43
43 41 27 42 27 45 7 2 -12 -5 -31 -15 -42z m-2613 -69 c145 -60 191 -91 317
-211 82 -78 164 -145 252 -203 101 -67 163 -119 278 -232 l148 -145 -45 7
c-68 11 -246 71 -326 111 -38 19 -102 60 -141 92 -39 31 -147 119 -241 194
-94 76 -192 163 -219 193 -49 57 -203 290 -203 307 0 5 24 -11 52 -36 31 -27
84 -59 128 -77z m3754 90 c-7 -11 -34 -12 -34 -1 0 14 11 21 26 15 8 -3 11 -9
8 -14z m-860 -10 c-3 -5 -10 -7 -15 -3 -5 3 -7 10 -3 15 3 5 10 7 15 3 5 -3 7
-10 3 -15z m260 -54 c70 -93 150 -173 233 -232 35 -25 63 -49 63 -53 0 -15 31
-40 50 -40 26 0 50 27 50 56 0 13 3 24 6 24 14 0 172 -101 214 -137 53 -45
128 -125 194 -206 92 -115 159 -284 192 -487 29 -175 4 -253 -104 -327 -35
-24 -71 -43 -80 -43 -10 0 -27 18 -40 43 -12 23 -57 86 -100 139 -71 88 -82
108 -121 219 -45 129 -80 191 -166 298 -86 106 -161 235 -205 349 -59 157
-121 276 -195 374 -36 47 -65 89 -65 92 0 20 24 -3 74 -69z m-658 44 c8 -14
-11 -33 -25 -25 -11 7 -4 36 9 36 5 0 12 -5 16 -11z m617 -61 c83 -113 133
-204 178 -323 63 -167 110 -253 215 -390 113 -150 151 -218 193 -347 29 -86
41 -108 117 -203 132 -167 136 -182 50 -195 -46 -7 -46 -7 -70 34 -13 23 -46
86 -75 141 -36 70 -84 140 -162 235 -195 235 -234 298 -274 436 -20 70 -23 94
-15 117 8 24 6 36 -9 61 -10 17 -21 44 -25 59 -4 15 -29 80 -56 143 -35 81
-48 124 -44 141 7 27 -28 73 -56 73 -15 0 -50 57 -50 80 0 29 36 2 83 -62z
m207 62 c11 -7 12 -12 3 -21 -13 -13 -33 -4 -33 17 0 16 9 18 30 4z m-564 -37
c-19 -51 -98 -173 -167 -260 -94 -117 -174 -269 -194 -367 -22 -108 -63 -149
-189 -189 -136 -42 -381 -24 -524 39 -69 30 -134 78 -154 112 l-17 28 89 53
c110 65 195 101 333 141 186 54 209 67 466 269 l154 121 22 -20 c24 -23 57
-26 73 -7 6 6 12 28 14 47 3 31 7 36 38 41 60 11 63 10 56 -8z m587 -87 c32
-20 61 -45 65 -56 4 -12 27 -34 51 -49 42 -28 43 -29 22 -40 -25 -14 -26 -13
-110 53 -60 47 -171 170 -171 189 0 4 19 -7 43 -26 23 -19 68 -51 100 -71z
m-963 44 c-54 -45 -180 -118 -256 -149 -165 -67 -419 -99 -559 -72 -39 8 -39
8 -15 18 14 6 78 15 144 22 246 24 409 67 591 156 61 29 115 54 120 54 6 0 -6
-13 -25 -29z m-2527 -171 c48 -84 86 -153 84 -156 -3 -2 -22 3 -43 12 -22 8
-95 31 -164 50 -130 37 -307 98 -350 120 -19 10 -21 15 -10 18 19 6 282 83
330 96 19 5 42 10 50 10 9 0 49 -58 103 -150z m3624 125 c8 -22 -18 -37 -36
-20 -7 8 -10 19 -7 25 10 16 36 13 43 -5z m-384 -8 c7 -16 -1 -26 -20 -26 -7
0 -13 9 -13 20 0 23 25 27 33 6z m-2588 -31 c111 -60 202 -145 297 -280 82
-117 160 -197 328 -340 143 -121 172 -153 133 -141 -10 2 -47 12 -81 22 -93
25 -163 75 -330 237 -82 80 -158 150 -170 156 -12 6 -46 49 -76 95 -59 88
-169 200 -236 238 -22 13 -40 26 -40 31 0 4 29 7 64 7 48 0 74 -6 111 -25z
m-170 -21 c84 -41 275 -237 253 -260 -3 -2 -41 22 -84 54 -87 66 -256 232
-236 232 7 0 38 -12 67 -26z m2743 -16 c16 -2 29 -14 37 -35 14 -33 14 -33
-13 -33 -41 0 -66 25 -82 81 l-9 32 22 -21 c12 -11 33 -22 45 -24z m-188 -24
c0 -8 -9 -14 -20 -14 -19 0 -27 19 -14 33 10 9 34 -4 34 -19z m119 -28 c12
-18 21 -47 21 -64 0 -21 8 -37 28 -54 41 -33 97 -118 98 -150 1 -16 2 -35 3
-43 0 -8 16 -21 35 -29 33 -14 35 -17 41 -82 13 -116 0 -320 -25 -399 -50
-158 -127 -270 -225 -326 -71 -41 -99 -39 -118 9 -16 40 -32 116 -42 198 -9
72 10 191 50 316 36 111 54 208 55 290 0 46 1 47 28 42 22 -4 30 0 45 24 23
41 21 64 -8 92 -23 22 -25 31 -25 110 0 74 4 100 16 100 1 0 12 -15 23 -34z
m-3307 -106 c172 -51 258 -84 258 -100 0 -14 -110 -34 -190 -35 -70 0 -82 3
-171 47 -53 27 -110 51 -127 54 -25 5 -39 19 -72 73 -22 37 -40 70 -40 73 0 4
38 -9 84 -27 46 -19 162 -57 258 -85z m3152 79 c21 -10 26 -22 36 -90 6 -44
11 -135 11 -202 0 -126 -11 -185 -71 -372 -30 -94 -33 -278 -6 -378 10 -38 15
-71 11 -75 -13 -13 -74 66 -80 105 -4 21 -26 106 -49 188 -40 148 -41 153 -41
310 1 179 9 211 85 341 20 35 43 86 50 112 21 84 16 78 54 61z m84 -54 c3 -56
-3 -93 -14 -83 -9 9 -25 129 -18 139 14 24 29 -2 32 -56z m160 14 c-2 -6 -8
-10 -13 -10 -5 0 -11 4 -13 10 -2 6 4 11 13 11 9 0 15 -5 13 -11z m81 -77 c38
-96 23 -111 -28 -28 -28 47 -31 57 -19 75 16 25 21 20 47 -47z m-3594 -68
c111 -56 176 -64 308 -40 49 9 98 14 110 10 12 -3 49 -32 82 -64 91 -87 198
-152 332 -201 32 -12 110 -45 173 -75 174 -80 271 -106 410 -108 109 -1 118
-3 175 -34 172 -93 296 -193 519 -415 120 -120 216 -221 213 -224 -8 -8 -191
75 -286 129 -95 55 -141 90 -260 202 -103 96 -170 140 -298 196 -54 24 -172
80 -263 126 -186 93 -272 124 -431 154 -60 12 -150 36 -199 55 -125 48 -194
59 -358 57 l-143 -2 -50 46 c-45 43 -103 124 -143 202 -16 30 -16 32 1 32 10
0 58 -21 108 -46z m3395 -15 c0 -25 -33 -22 -38 4 -2 12 3 17 17 17 15 0 21
-6 21 -21z m253 -46 c8 -7 -11 -33 -24 -33 -5 0 -9 9 -9 20 0 19 20 27 33 13z
m-1720 -219 c27 -32 28 -36 18 -84 -16 -76 -13 -139 9 -185 42 -87 234 -311
442 -514 114 -112 208 -208 208 -212 0 -4 -39 10 -87 32 -60 27 -101 54 -127
82 -22 23 -139 143 -260 266 -178 180 -239 235 -316 286 -89 58 -145 105 -124
105 5 0 30 -7 57 -15 26 -8 54 -12 61 -9 8 3 19 32 25 65 14 81 52 219 60 218
3 0 19 -16 34 -35z m-1608 -32 c38 -23 112 -56 165 -72 118 -36 163 -66 267
-171 100 -103 283 -311 283 -322 0 -29 -199 73 -385 197 -202 135 -198 132
-350 186 -66 23 -136 51 -155 63 -57 34 -210 151 -210 160 0 5 71 7 158 5
l157 -3 70 -43z m257 -15 c73 -25 175 -53 226 -62 85 -16 98 -22 145 -63 29
-24 95 -65 147 -89 52 -25 120 -57 150 -71 84 -40 136 -100 209 -242 35 -69
79 -146 97 -173 30 -42 41 -67 30 -67 -2 0 -59 27 -127 60 -68 32 -170 74
-227 92 -124 40 -148 58 -299 228 -143 162 -268 282 -318 307 -22 11 -78 33
-125 48 -95 31 -155 59 -166 76 -15 24 124 0 258 -44z m-552 -47 c99 -76 148
-102 250 -135 115 -37 201 -82 343 -177 89 -60 116 -83 105 -89 -18 -10 -285
26 -353 48 -27 9 -81 31 -120 50 -38 18 -96 39 -129 45 -56 12 -60 15 -99 73
-23 33 -51 88 -64 123 -13 34 -32 80 -43 102 -11 21 -20 42 -20 46 0 9 40 -18
130 -86z m2778 -170 c-48 -257 -14 -846 67 -1188 14 -57 25 -112 25 -123 0
-10 -17 -42 -37 -70 -32 -45 -38 -49 -45 -33 -13 31 -95 500 -110 624 -18 163
-16 636 5 805 16 130 16 130 54 164 l37 35 12 -49 c11 -43 10 -64 -8 -165z
m-766 180 c126 -78 411 -109 581 -64 28 7 53 11 55 9 2 -2 -2 -75 -9 -162 -8
-88 -13 -273 -13 -418 l1 -260 -227 225 c-215 213 -350 367 -419 475 -32 51
-38 95 -25 178 8 43 12 44 56 17z m1735 -57 c28 -43 98 -134 155 -203 57 -69
118 -145 135 -170 33 -49 133 -243 133 -260 0 -26 -133 -1 -145 28 -4 9 -23
62 -42 117 -45 127 -57 152 -163 315 -87 135 -112 178 -130 225 -18 46 5 26
57 -52z m-2587 -107 c91 -46 219 -107 284 -136 129 -58 171 -87 322 -224 54
-48 125 -106 157 -128 75 -51 224 -125 357 -178 188 -75 358 -160 364 -183 3
-12 4 -23 1 -25 -2 -2 -79 33 -172 77 -92 44 -208 92 -258 106 -99 29 -254 55
-326 55 -54 0 -227 28 -251 41 -34 18 -118 142 -188 279 -93 182 -128 214
-308 294 -71 31 -144 71 -163 87 -32 28 -32 30 -9 24 14 -3 99 -43 190 -89z
m2545 7 c10 -26 55 -128 101 -226 92 -198 100 -217 85 -217 -24 0 -191 111
-243 161 l-58 57 24 58 c13 33 29 86 35 119 19 99 21 106 30 101 4 -3 16 -27
26 -53z m-819 -75 c75 -117 262 -337 324 -383 63 -46 153 -26 251 56 27 22 63
63 80 89 l32 49 61 -57 c61 -57 285 -198 364 -229 23 -9 42 -19 42 -22 0 -3
-42 -27 -93 -53 -50 -26 -120 -70 -153 -97 -61 -49 -62 -50 -79 -31 -30 33
-107 77 -172 99 -75 25 -394 81 -461 81 -84 -1 -171 -59 -188 -127 -4 -14 -4
-80 -1 -146 5 -126 21 -194 70 -317 l27 -65 -40 -40 c-22 -21 -41 -37 -44 -35
-6 8 -44 196 -61 310 -46 302 -65 656 -46 835 14 126 20 155 32 155 4 0 29
-33 55 -72z m1016 -173 c30 -58 99 -255 89 -255 -20 0 -57 41 -70 76 -7 22
-49 115 -92 208 -44 93 -82 180 -85 195 -6 27 121 -152 158 -224z m-3693 72
c36 -19 89 -41 116 -50 60 -19 227 -44 350 -53 70 -5 105 -13 155 -36 98 -45
176 -73 301 -108 64 -18 178 -62 259 -100 198 -92 270 -117 391 -131 57 -7
108 -16 113 -20 4 -4 -18 -13 -50 -19 -49 -11 -78 -10 -174 4 -63 9 -180 21
-260 26 -128 8 -164 15 -300 55 -142 42 -168 47 -310 55 -85 4 -175 15 -200
23 -104 33 -218 82 -266 114 -49 32 -177 164 -240 247 l-29 39 38 -6 c22 -3
69 -21 106 -40z m656 -402 c40 -2 137 -23 229 -50 88 -24 193 -49 233 -54 41
-5 77 -12 81 -15 8 -9 -24 -32 -104 -72 -58 -29 -87 -37 -169 -44 -54 -6 -133
-17 -175 -26 -71 -16 -79 -15 -112 0 -19 9 -76 55 -126 102 -84 78 -112 119
-112 166 0 7 63 5 255 -7z m2311 -63 c46 -34 170 -192 150 -192 -3 0 -34 21
-68 46 -71 52 -140 89 -212 114 -28 9 -51 21 -53 27 -6 16 38 32 93 32 41 1
59 -5 90 -27z m951 -22 c64 -130 68 -297 13 -495 -52 -189 -63 -182 -30 20 32
194 25 242 -48 344 -34 46 -67 135 -57 151 7 11 63 29 85 27 8 -1 25 -22 37
-47z m111 27 c11 -12 33 -49 48 -82 24 -51 28 -72 27 -145 -1 -71 -9 -114 -51
-257 -28 -95 -54 -197 -57 -228 l-7 -55 -39 0 c-27 0 -42 5 -46 16 -3 8 13 88
36 177 73 276 72 384 -3 560 l-16 37 43 0 c32 0 49 -6 65 -23z m-838 -32 c32
-17 103 -92 124 -133 15 -29 15 -32 -1 -40 -26 -14 -124 -45 -127 -41 -2 2
-22 33 -46 69 -24 36 -65 91 -91 122 -27 31 -49 58 -49 61 0 8 163 -24 190
-38z m940 30 c120 -34 204 -218 212 -461 2 -66 0 -74 -28 -110 -17 -21 -50
-73 -74 -114 -24 -41 -52 -88 -63 -103 l-19 -28 -19 30 c-22 36 -61 49 -95 31
-13 -8 -27 -11 -30 -7 -8 8 18 125 66 297 50 178 59 263 35 345 -9 33 -25 74
-36 91 -20 33 -16 47 10 40 9 -2 27 -8 41 -11z m-352 -62 c6 -21 34 -74 61
-117 62 -98 68 -133 46 -268 -10 -57 -20 -152 -24 -212 l-6 -109 -68 -23 -67
-23 6 97 c8 133 -8 195 -98 383 -81 168 -82 171 -30 214 37 30 144 95 157 95
7 0 17 -17 23 -37z m-907 -13 c96 -39 269 -162 269 -190 0 -5 -22 -26 -49 -47
-27 -21 -99 -85 -161 -142 -104 -96 -114 -103 -126 -86 -17 23 -59 152 -75
230 -17 81 -17 224 -1 252 15 27 45 24 143 -17z m499 -1 c74 -34 123 -77 152
-133 l20 -39 -24 8 c-12 4 -52 15 -88 25 -63 17 -66 19 -117 91 -28 41 -52 78
-52 82 -1 11 32 1 109 -34z m-1460 16 c89 -21 219 -65 226 -76 3 -6 -18 -7
-58 -3 -41 4 -88 1 -134 -9 -96 -21 -310 -120 -463 -216 -69 -43 -140 -86
-158 -95 -75 -38 -203 -6 -423 107 -74 38 -151 79 -170 90 l-34 21 44 13 c25
8 101 20 170 28 140 15 172 26 281 96 86 55 103 58 234 34 107 -19 175 -18
265 5 93 23 137 24 220 5z m1450 -226 c-26 -51 -60 -187 -100 -402 -33 -181
-67 -302 -107 -382 -32 -62 -62 -105 -74 -105 -13 0 -11 186 2 235 6 22 31 83
55 135 35 76 48 123 67 237 34 193 95 323 153 323 l24 0 -20 -41z m144 1 l34
-20 -49 -110 c-30 -66 -73 -194 -109 -327 -34 -119 -70 -237 -80 -261 -11 -24
-53 -90 -93 -146 -91 -126 -190 -286 -218 -354 -12 -29 -28 -52 -35 -52 -18 0
-18 -5 12 92 28 90 61 154 134 263 101 151 131 232 180 490 45 241 77 372 102
417 21 36 26 39 56 34 18 -2 48 -14 66 -26z m-224 16 c0 -2 -11 -23 -25 -48
-38 -68 -54 -122 -75 -256 -16 -98 -29 -144 -64 -220 -62 -136 -65 -151 -70
-302 -5 -136 -5 -136 -50 -230 -24 -52 -54 -131 -67 -175 -12 -44 -24 -81 -25
-83 -1 -2 -12 6 -23 17 -16 16 -29 19 -53 15 l-33 -6 33 29 c21 18 33 38 35
58 2 25 -3 32 -30 44 -31 14 -32 16 -39 100 -5 47 -9 163 -9 256 0 146 3 181
22 246 26 90 115 290 150 337 58 78 255 221 306 222 9 0 17 -2 17 -4z m1880
-76 c147 -36 230 -106 230 -196 0 -71 0 -70 -103 -66 -82 4 -112 0 -241 -32
-186 -45 -255 -81 -378 -192 -101 -93 -160 -135 -253 -182 -85 -42 -186 -84
-192 -79 -9 9 60 77 78 77 26 0 59 35 59 62 0 56 -76 79 -106 33 -10 -16 -14
-34 -10 -50 5 -21 -4 -38 -55 -98 -61 -70 -86 -93 -95 -85 -2 3 -1 26 2 51 6
43 9 47 35 47 32 0 56 21 65 55 7 29 0 42 -37 64 l-28 17 50 70 c28 38 75 110
104 160 87 148 202 238 392 310 153 58 329 70 483 34z m-1515 -125 c33 -63 38
-85 42 -162 6 -104 -9 -202 -34 -221 -10 -7 -59 -40 -110 -73 -131 -84 -249
-201 -375 -368 -59 -80 -109 -150 -111 -155 -3 -6 -7 -9 -10 -6 -8 7 97 181
179 295 97 136 108 159 164 368 56 208 84 293 129 392 l33 70 28 -34 c16 -18
45 -66 65 -106z m-765 -100 c0 -3 -18 -47 -39 -98 -22 -50 -47 -119 -56 -152
-22 -79 -29 -265 -17 -445 8 -122 7 -150 -6 -178 -11 -26 -12 -38 -3 -58 8
-19 7 -40 -8 -97 -11 -39 -22 -89 -26 -109 -6 -38 -24 -48 -53 -30 -18 12 -52
106 -46 129 4 14 -3 27 -20 40 -23 18 -28 36 -51 183 -29 189 -31 259 -9 349
36 146 95 243 228 379 81 82 106 103 106 87z m-1070 -66 c16 -23 43 -78 60
-123 144 -381 148 -387 360 -596 153 -150 197 -205 254 -318 20 -40 24 -57 16
-72 -5 -10 -10 -28 -10 -39 0 -12 -3 -21 -7 -21 -4 0 -32 25 -63 55 -30 30
-105 94 -165 143 -85 68 -151 135 -292 297 -100 116 -200 224 -223 242 -23 18
-92 60 -153 94 -124 69 -264 164 -278 190 -13 24 31 73 92 104 58 30 176 63
261 74 114 15 115 15 148 -30z m92 9 c28 -22 66 -93 124 -230 84 -198 99 -224
170 -291 96 -91 168 -191 198 -275 14 -40 26 -76 26 -79 0 -12 -299 284 -338
336 -55 72 -101 167 -150 312 -22 64 -54 144 -71 178 l-31 61 28 0 c15 0 35
-6 44 -12z m3463 -10 c20 -19 -45 -132 -124 -215 -37 -39 -41 -41 -73 -33 -18
6 -70 10 -114 10 -107 0 -183 -24 -355 -111 -108 -56 -154 -73 -230 -89 -52
-10 -132 -33 -177 -51 -81 -32 -83 -33 -77 -61 4 -16 2 -28 -3 -28 -18 0 -20
59 -3 74 9 8 86 48 171 89 125 60 170 88 234 143 135 119 179 153 237 184 46
24 193 66 329 93 36 7 177 3 185 -5z m-3329 -17 c41 -11 42 -12 87 -119 25
-59 55 -142 66 -185 12 -43 37 -110 57 -148 19 -39 32 -74 29 -78 -4 -3 -37
26 -74 65 -62 65 -73 82 -130 220 -35 82 -75 172 -91 201 -28 53 -28 67 -1 59
9 -3 34 -10 57 -15z m204 -62 c97 -37 226 -111 269 -154 l34 -34 -24 -78 c-32
-104 -32 -247 1 -428 13 -71 23 -137 22 -145 -10 -77 -8 -85 25 -100 18 -8 37
-27 42 -42 10 -29 3 -146 -10 -154 -15 -9 -10 -56 8 -76 18 -20 45 -23 74 -7
17 8 20 19 18 54 -2 32 2 50 16 65 l18 20 22 -20 c12 -11 27 -20 33 -20 6 0
19 -14 27 -31 20 -38 5 -65 -27 -48 -28 15 -67 3 -79 -24 -14 -31 4 -74 36
-89 21 -10 30 -8 54 9 16 12 33 18 40 14 9 -6 5 -13 -12 -24 -13 -9 -27 -29
-30 -46 l-6 -31 -25 25 c-14 14 -37 25 -51 25 -19 0 -25 5 -25 20 0 28 -44 70
-73 70 -43 0 -61 -45 -36 -92 9 -17 7 -24 -9 -41 -27 -27 -172 -38 -172 -13 0
12 16 16 78 18 60 2 77 6 77 18 0 12 -22 15 -122 18 -68 1 -123 6 -123 11 0 5
11 16 25 25 31 20 33 58 5 86 -40 40 -90 15 -90 -46 0 -19 -3 -34 -7 -34 -5 0
-62 12 -128 26 -161 34 -233 43 -341 44 -142 0 -248 18 -362 61 -56 22 -108
39 -115 39 -21 0 -137 59 -137 69 0 15 184 106 274 136 105 35 133 33 266 -24
63 -28 165 -63 225 -80 61 -16 144 -42 185 -57 111 -40 304 -130 311 -145 4
-8 12 -26 18 -41 9 -23 17 -28 44 -28 48 0 67 25 64 83 -2 26 -9 53 -15 59
-17 17 -15 28 7 28 54 0 63 65 15 107 -26 24 -87 167 -124 293 -23 78 -30 94
-139 305 -41 79 -76 163 -89 215 -13 47 -38 119 -57 159 -18 41 -31 79 -29 83
7 10 22 6 124 -33z m1858 -81 c7 -7 8 -17 1 -30 -13 -24 -26 -23 -39 2 -18 34
11 55 38 28z m-113 -18 c6 -9 -90 -163 -147 -237 -49 -65 -95 -102 -228 -188
-117 -75 -303 -227 -395 -321 -33 -34 -72 -64 -86 -68 -27 -6 -47 -46 -34 -67
4 -5 -6 -24 -20 -42 -42 -49 -137 -148 -140 -145 -2 2 -5 16 -7 33 -2 23 1 30
17 33 40 8 57 34 52 79 -10 92 99 298 268 508 40 49 91 106 112 127 132 126
394 280 503 296 57 8 97 5 105 -8z m-2588 -70 c33 -25 117 -76 186 -115 70
-38 146 -88 170 -110 23 -23 113 -122 198 -221 166 -190 200 -225 319 -319 89
-70 94 -77 72 -89 -27 -14 -42 -38 -42 -67 l0 -27 -109 44 c-60 24 -169 60
-242 80 -164 44 -359 130 -412 182 -51 49 -74 89 -166 294 -88 195 -106 262
-96 352 8 76 11 81 39 59 13 -10 50 -38 83 -63z m2637 13 c56 -126 28 -310
-76 -503 -113 -211 -267 -353 -463 -426 -38 -15 -131 -51 -205 -81 -74 -30
-142 -56 -151 -59 -10 -4 -22 5 -33 21 -23 34 -17 39 22 19 43 -21 64 -15 82
23 8 18 19 33 24 33 25 0 46 35 46 75 0 48 19 68 161 178 105 80 164 147 261
297 41 63 111 166 155 227 45 62 96 140 115 173 18 33 35 60 39 60 3 0 14 -17
23 -37z m1114 -29 c33 -9 27 -24 -26 -77 l-47 -47 -55 21 c-32 12 -90 23 -138
27 -66 4 -80 7 -71 18 9 11 100 45 154 57 31 7 157 7 183 1z m-835 -41 c9 -9
-13 -34 -24 -27 -14 8 -11 34 4 34 8 0 17 -3 20 -7z m-155 -46 c4 -20 -25 -34
-40 -19 -15 15 -1 44 19 40 10 -2 19 -11 21 -21z m846 -36 l48 -21 -70 -60
c-113 -99 -208 -167 -254 -183 -246 -86 -287 -93 -288 -50 0 7 -11 20 -25 29
-38 25 -30 34 24 27 45 -5 50 -3 66 21 16 24 16 28 1 51 -24 37 -72 34 -94 -5
-9 -16 -24 -30 -32 -30 -8 0 -25 -3 -38 -6 -22 -6 -23 -5 -20 52 4 70 13 77
137 99 44 8 115 28 158 46 43 17 101 38 128 45 71 19 199 12 259 -15z m-854
-176 c10 -12 9 -16 -5 -21 -19 -8 -40 9 -31 25 10 15 21 14 36 -4z m130 5 c0
-5 -4 -10 -10 -10 -5 0 -10 5 -10 10 0 6 5 10 10 10 6 0 10 -4 10 -10z m-560
-18 c0 -19 -141 -221 -186 -267 -27 -28 -97 -87 -156 -132 -58 -45 -109 -87
-113 -93 -3 -5 -21 -10 -38 -10 -32 0 -33 1 -35 48 -2 47 -2 47 86 132 99 97
219 193 343 274 84 56 99 63 99 48z m750 -22 c0 -5 -7 -10 -16 -10 -8 0 -12 5
-9 10 3 6 10 10 16 10 5 0 9 -4 9 -10z m-374 -16 c21 -15 34 -15 91 -6 67 11
105 6 65 -9 -43 -16 -203 -51 -209 -46 -5 6 16 77 23 77 3 0 16 -7 30 -16z
m1077 -74 c-91 -87 -228 -183 -301 -210 -70 -26 -235 -53 -295 -48 -99 9 -245
91 -223 127 12 19 37 12 73 -19 60 -53 113 -31 113 46 l0 43 53 15 c160 46
547 123 627 125 l35 0 -82 -79z m-838 10 c-13 -14 -16 -29 -12 -54 3 -19 3
-37 -1 -40 -6 -7 -92 73 -92 86 0 10 56 26 94 27 28 1 29 1 11 -19z m63 -48
c2 -14 -2 -22 -12 -22 -19 0 -29 17 -22 36 8 22 30 12 34 -14z m-186 -4 c8 -7
38 -41 67 -76 75 -92 70 -138 -20 -176 -32 -13 -93 -22 -314 -46 -49 -6 -107
-12 -129 -15 l-38 -6 63 73 c34 40 86 110 115 154 36 56 62 85 81 92 40 15
156 14 175 0z m285 -64 c3 -8 1 -20 -4 -25 -14 -14 -43 0 -43 22 0 24 38 26
47 3z m-1677 -39 c0 -8 -7 -15 -15 -15 -16 0 -20 12 -8 23 11 12 23 8 23 -8z
m1627 -101 c32 -15 87 -30 123 -34 l65 -6 -38 -17 c-20 -10 -69 -24 -108 -32
-74 -16 -209 -20 -209 -7 0 4 16 20 35 35 19 15 42 41 50 57 9 17 18 30 20 30
2 0 30 -12 62 -26z m403 -25 c0 -16 -220 -117 -292 -133 -34 -8 -99 -20 -142
-26 -75 -10 -85 -9 -158 16 -43 14 -78 28 -78 30 0 2 48 1 108 -2 83 -5 127
-3 192 10 85 18 322 89 350 106 20 12 20 12 20 -1z m-1992 -22 c2 -10 -3 -17
-12 -17 -18 0 -29 16 -21 31 9 14 29 6 33 -14z m93 -10 c-8 -8 -11 -7 -11 4 0
20 13 34 18 19 3 -7 -1 -17 -7 -23z m-136 -72 c-11 -58 -52 -58 -46 1 4 51 8
56 32 41 16 -9 19 -19 14 -42z m110 33 c26 -12 34 -28 13 -28 -22 0 -48 -33
-48 -61 0 -36 -13 -43 -34 -20 -15 16 -16 25 -6 60 6 22 18 45 28 50 21 13 17
13 47 -1z m225 -8 c0 -5 -4 -10 -10 -10 -5 0 -10 5 -10 10 0 6 5 10 10 10 6 0
10 -4 10 -10z m847 -41 c135 -18 358 -91 504 -164 72 -37 187 -116 228 -159
l34 -35 -26 -23 c-44 -40 -194 -119 -284 -150 -82 -29 -93 -30 -207 -26 -101
4 -137 10 -219 37 -161 53 -214 61 -423 61 l-191 0 -13 24 c-20 39 -61 51
-101 31 -67 -35 -267 4 -269 51 0 14 10 16 198 55 103 20 149 26 162 19 54
-29 110 2 110 60 0 58 -54 67 -109 17 -30 -27 -50 -35 -119 -46 -46 -7 -85
-11 -88 -8 -6 5 428 179 585 233 107 37 116 38 228 23z m-825 -35 c-5 -24 -21
-44 -37 -44 -6 0 -18 -12 -25 -26 -8 -14 -32 -35 -53 -45 -21 -11 -42 -31 -48
-47 -8 -21 -12 -23 -19 -12 -6 8 -10 19 -10 23 0 11 130 150 155 164 26 16 41
11 37 -13z m-216 5 c3 -6 1 -16 -5 -22 -9 -9 -14 -8 -21 3 -9 15 -4 30 10 30
5 0 12 -5 16 -11z m282 -31 c-2 -13 -7 -23 -13 -23 -5 0 -11 10 -13 23 -2 15
2 22 13 22 11 0 15 -7 13 -22z m-864 -14 c8 -22 8 -24 -8 -24 -18 0 -29 16
-21 30 9 15 22 12 29 -6z m298 1 c0 -5 -5 -11 -11 -13 -6 -2 -11 4 -11 13 0 9
5 15 11 13 6 -2 11 -8 11 -13z m-1508 -25 c30 -18 278 -109 356 -131 19 -5 95
-12 168 -16 72 -3 132 -9 132 -14 0 -4 -30 -11 -67 -15 -178 -19 -515 41 -666
118 l-41 21 34 28 c41 34 43 35 84 9z m1314 -32 c29 -38 31 -43 15 -50 -32
-12 -70 -8 -93 10 l-22 17 21 19 c12 11 21 25 21 33 0 25 26 13 58 -29z m692
-18 c-19 -12 -35 3 -26 26 6 17 8 17 24 0 15 -15 15 -18 2 -26z m-282 12 c3
-9 -2 -13 -14 -10 -9 1 -19 9 -22 16 -3 9 2 13 14 10 9 -1 19 -9 22 -16z
m-236 -44 c-15 -15 -26 -4 -18 18 5 13 9 15 18 6 9 -9 9 -15 0 -24z m-1540
-13 c218 -89 488 -123 744 -93 75 8 122 8 189 0 48 -7 89 -13 91 -15 8 -8 -33
-97 -46 -100 -8 -2 -87 -2 -175 1 -141 3 -196 0 -455 -33 -255 -32 -316 -36
-450 -33 -166 4 -200 13 -200 51 0 13 14 45 31 73 33 53 157 184 174 184 6 0
50 -16 97 -35z m2348 -30 c0 -15 -26 -32 -36 -23 -2 3 -2 13 2 22 8 20 34 21
34 1z m-955 -16 c0 -7 -8 -15 -17 -17 -18 -3 -25 18 -11 32 10 10 28 1 28 -15z
m373 9 c-6 -18 -28 -21 -28 -4 0 9 7 16 16 16 9 0 14 -5 12 -12z m67 2 c3 -5
1 -10 -4 -10 -6 0 -11 5 -11 10 0 6 2 10 4 10 3 0 8 -4 11 -10z m125 -20 c-9
-6 -19 -5 -25 1 -6 6 -5 13 5 19 9 6 19 5 25 -1 6 -6 5 -13 -5 -19z m-293 4
c9 -23 -11 -38 -26 -20 -13 16 -7 36 10 36 5 0 12 -7 16 -16z m-462 -4 c11
-17 -5 -32 -21 -19 -7 6 -11 15 -8 20 7 12 21 11 29 -1z m605 -37 c-1 -20 -18
-33 -35 -27 -17 7 -17 8 1 21 20 14 34 17 34 6z m-282 -27 c3 -12 -1 -17 -10
-14 -7 3 -15 13 -16 22 -3 12 1 17 10 14 7 -3 15 -13 16 -22z m-390 -25 c3 -8
-1 -12 -9 -9 -7 2 -15 10 -17 17 -3 8 1 12 9 9 7 -2 15 -10 17 -17z m737 9 c3
-5 4 -14 0 -20 -8 -13 -35 -1 -35 16 0 16 26 19 35 4z m-117 -28 c2 -7 -3 -12
-12 -12 -9 0 -16 7 -16 16 0 17 22 14 28 -4z m-668 -23 c0 -14 -30 -23 -41
-12 -5 5 -7 17 -3 26 5 13 10 14 25 6 10 -5 19 -14 19 -20z m466 -16 c-11 -11
-19 6 -11 24 8 17 8 17 12 0 3 -10 2 -21 -1 -24z m-379 -12 c-8 -40 16 -71 55
-71 17 0 39 6 47 14 19 16 121 31 121 17 0 -5 -41 -33 -91 -61 -80 -45 -95
-50 -116 -41 -53 24 -84 11 -96 -40 -6 -23 -30 -36 -174 -102 -274 -123 -423
-161 -623 -162 -104 0 -138 4 -200 23 -223 71 -410 222 -410 333 0 29 2 31 28
25 158 -34 249 -32 617 16 214 28 265 31 465 30 124 -1 241 -5 261 -8 33 -5
40 -2 60 25 12 17 31 31 42 31 16 0 18 -5 14 -29z m453 14 c16 -19 3 -40 -16
-24 -15 13 -19 39 -5 39 5 0 14 -7 21 -15z m2020 -17 c0 -20 -12 -32 -60 -65
-107 -72 -271 -134 -400 -152 -109 -14 -684 2 -775 22 -121 27 -220 62 -220
77 0 10 9 14 28 12 16 -2 40 4 53 13 18 12 63 16 194 20 196 6 261 -2 415 -50
273 -84 443 -64 667 80 90 58 98 61 98 43z m-2400 -13 c0 -8 -6 -15 -14 -15
-17 0 -28 14 -19 24 12 12 33 6 33 -9z m264 -16 c-8 -13 -24 -1 -24 18 0 13 3
13 15 3 8 -7 12 -16 9 -21z m321 11 c0 -22 -29 -18 -33 3 -3 14 1 18 15 15 10
-2 18 -10 18 -18z m100 9 c10 -15 -1 -23 -20 -15 -9 3 -13 10 -10 16 8 13 22
13 30 -1z m-197 -10 c-2 -6 -8 -10 -13 -10 -5 0 -11 4 -13 10 -2 6 4 11 13 11
9 0 15 -5 13 -11z m510 -12 c17 -20 -1 -39 -31 -31 -30 7 -33 14 -15 32 16 16
33 15 46 -1z m-195 -14 c4 -2 7 -15 7 -29 0 -20 -5 -24 -32 -26 -88 -4 -175
12 -164 31 3 5 23 7 44 4 28 -4 43 0 62 15 23 19 54 21 83 5z m92 -33 c0 -29
-32 -41 -41 -16 -9 24 4 48 23 44 12 -2 18 -12 18 -28z m-733 -39 c-38 -40
-56 -51 -80 -51 -58 0 -70 -64 -20 -103 l31 -25 -26 -43 c-14 -24 -68 -85
-119 -135 -70 -69 -113 -123 -172 -218 -44 -69 -94 -139 -110 -155 -27 -24
-221 -151 -232 -151 -17 0 19 173 68 320 39 121 77 196 145 290 47 64 65 80
126 112 63 33 78 37 119 32 45 -5 49 -4 64 23 11 18 58 52 133 95 63 37 117
65 119 63 2 -1 -19 -26 -46 -54z m314 -8 c15 -32 44 -92 65 -134 21 -42 39
-79 39 -82 0 -5 -69 8 -75 15 -4 5 -75 240 -75 249 0 27 24 2 46 -48z m88 22
c30 -19 57 -35 60 -35 2 0 110 -55 238 -123 241 -127 414 -242 500 -330 45
-47 128 -187 111 -187 -5 0 -27 18 -48 41 -52 53 -251 229 -292 257 -17 12
-119 70 -225 128 -106 58 -202 114 -214 125 -11 10 -28 19 -37 19 -35 0 -115
49 -136 83 -20 32 -27 57 -16 57 2 0 29 -16 59 -35z m-204 6 c7 -13 7 -22 0
-26 -15 -9 -30 4 -30 26 0 25 16 25 30 0z m-80 -16 c10 -12 10 -19 2 -27 -16
-16 -42 -2 -42 22 0 24 22 26 40 5z m2023 -35 c-154 -137 -457 -286 -661 -326
-181 -35 -273 -12 -562 141 -102 54 -216 114 -254 134 -38 20 -68 41 -67 46 4
22 145 7 266 -28 172 -50 232 -56 600 -59 321 -3 332 -2 423 21 51 13 136 45
190 71 53 26 99 45 102 43 3 -3 -14 -22 -37 -43z m-2103 -4 c0 -2 -7 -9 -15
-16 -13 -11 -14 -10 -9 4 5 14 24 23 24 12z m243 -106 c15 -53 27 -112 27
-132 0 -41 35 -78 74 -78 17 0 40 -37 126 -197 106 -199 149 -266 247 -382 30
-35 81 -103 114 -152 32 -49 73 -105 90 -124 18 -20 30 -37 28 -39 -10 -9
-322 141 -394 189 -151 100 -270 227 -295 317 -6 18 -24 107 -40 198 -17 91
-40 203 -50 249 l-20 83 26 20 c31 25 27 58 -13 100 l-26 28 34 14 c19 8 37
12 40 8 3 -4 18 -50 32 -102z m-525 72 c4 -24 -7 -29 -25 -11 -14 14 -5 41 11
36 6 -2 12 -13 14 -25z m364 -24 c-7 -7 -12 -8 -12 -2 0 6 3 14 7 17 3 4 9 5
12 2 2 -3 -1 -11 -7 -17z m-172 -19 c0 -5 -9 -9 -20 -9 -19 0 -27 20 -13 33 7
8 33 -11 33 -24z m90 -3 c0 -78 -113 -531 -160 -638 -72 -168 -240 -450 -333
-560 -38 -45 -119 -106 -160 -121 -11 -4 -28 3 -47 21 l-31 27 51 120 c69 162
99 215 262 460 109 162 162 255 235 405 91 188 160 310 176 310 4 0 7 -11 7
-24z m150 -40 c-13 -13 -45 17 -35 34 5 8 12 6 26 -6 13 -12 16 -21 9 -28z
m327 -12 c-12 -12 -37 5 -30 21 5 15 7 15 21 1 9 -9 13 -18 9 -22z m-77 0 c0
-14 -3 -14 -15 -4 -8 7 -15 14 -15 16 0 2 7 4 15 4 8 0 15 -7 15 -16z m-310
-15 c0 -5 -4 -9 -10 -9 -5 0 -10 7 -10 16 0 8 5 12 10 9 6 -3 10 -10 10 -16z
m629 -85 c204 -111 208 -115 362 -251 135 -119 183 -173 232 -263 45 -82 61
-164 55 -282 -7 -140 -57 -238 -121 -238 -58 0 -112 61 -207 234 -49 90 -93
147 -235 301 -133 145 -173 198 -298 400 -95 150 -121 203 -85 167 19 -19 63
-14 83 8 10 11 22 20 28 20 5 0 89 -43 186 -96z m-665 40 c9 -3 16 -13 16 -21
0 -20 -34 -12 -38 10 -4 19 -1 20 22 11z m303 -50 c9 -23 -13 -40 -32 -24 -8
7 -15 19 -15 26 0 19 39 18 47 -2z m-203 -134 c14 -69 35 -174 46 -235 13 -75
29 -128 51 -169 38 -73 36 -103 -11 -202 -41 -85 -150 -199 -261 -271 -118
-77 -398 -163 -529 -163 -27 0 -50 4 -50 9 0 5 15 19 34 31 91 56 239 270 377
545 74 148 83 175 130 360 27 110 51 205 54 212 3 9 11 9 35 0 25 -10 36 -9
58 4 15 9 30 13 34 10 3 -3 18 -62 32 -131z m356 -4 c96 -156 150 -226 299
-389 135 -148 157 -178 234 -317 29 -52 71 -114 95 -139 23 -24 42 -46 42 -48
0 -10 -78 0 -108 14 -57 27 -161 132 -217 218 -29 44 -86 121 -127 170 -102
123 -121 153 -237 370 -86 160 -101 194 -95 220 14 64 14 63 114 -99z m-731
35 c-8 -11 -44 -57 -82 -102 -60 -74 -134 -190 -222 -343 -15 -27 -61 -85
-102 -128 -40 -44 -95 -110 -122 -148 -26 -38 -51 -66 -55 -63 -9 10 -6 70 8
151 16 89 28 103 155 181 119 73 149 105 244 256 42 66 97 141 123 168 47 47
79 64 53 28z m-55 -159 c-20 -37 -101 -164 -179 -282 -147 -221 -193 -303
-246 -437 -17 -43 -34 -82 -39 -87 -12 -12 -50 76 -50 113 0 38 83 158 187
272 59 64 103 124 132 180 79 149 220 346 229 319 2 -5 -13 -40 -34 -78z m806
-549 c13 -10 76 -45 139 -78 l116 -60 7 -340 c5 -187 7 -385 5 -440 l-2 -100
-38 130 c-21 72 -88 297 -148 500 -61 204 -112 378 -115 388 -3 9 -2 17 3 17
5 0 19 -8 33 -17z"/>
<path d="M3574 8095 c-13 -20 -14 -31 -6 -49 20 -45 92 -38 92 9 0 64 -54 89
-86 40z m46 -25 c0 -5 -4 -10 -10 -10 -5 0 -10 5 -10 10 0 6 5 10 10 10 6 0
10 -4 10 -10z"/>
<path d="M3780 7951 c-23 -44 -5 -81 40 -81 32 0 50 17 50 45 0 47 -69 74 -90
36z m45 -31 c3 -5 1 -10 -4 -10 -6 0 -11 5 -11 10 0 6 2 10 4 10 3 0 8 -4 11
-10z"/>
<path d="M3631 7921 c-27 -27 -26 -42 4 -71 l25 -24 -22 -23 c-18 -19 -20 -27
-10 -48 9 -20 19 -25 47 -25 28 0 38 5 47 25 10 21 8 30 -10 54 -14 19 -17 32
-11 38 6 6 9 28 7 49 -3 34 -7 39 -30 42 -17 2 -34 -4 -47 -17z m39 -31 c0 -5
-5 -10 -11 -10 -5 0 -7 5 -4 10 3 6 8 10 11 10 2 0 4 -4 4 -10z m10 -110 c0
-5 -5 -10 -11 -10 -5 0 -7 5 -4 10 3 6 8 10 11 10 2 0 4 -4 4 -10z"/>
<path d="M3133 8389 c-19 -19 -16 -63 5 -82 22 -20 63 -22 80 -5 16 16 15 63
-1 77 -22 18 -71 24 -84 10z m55 -47 c2 -7 -3 -12 -12 -12 -9 0 -16 7 -16 16
0 17 22 14 28 -4z"/>
</g>
</svg>
