<?xml version="1.0" standalone="no"?>
<!DOCTYPE svg PUBLIC "-//W3C//DTD SVG 20010904//EN"
 "http://www.w3.org/TR/2001/REC-SVG-20010904/DTD/svg10.dtd">
<svg version="1.0" xmlns="http://www.w3.org/2000/svg"
 width="1155.000000pt" height="1487.000000pt" viewBox="0 0 1155.000000 1487.000000"
 preserveAspectRatio="xMidYMid meet">

<g transform="translate(0.000000,1487.000000) scale(0.100000,-0.100000)"
fill="#fff" stroke="none">
<path d="M5550 14730 c-1006 -1158 -1669 -2381 -1998 -3685 -174 -687 -246
-1346 -223 -2020 16 -451 52 -774 132 -1170 253 -1270 876 -2384 1594 -2851
307 -199 627 -261 873 -168 208 78 351 218 512 500 379 665 858 1344 1306
1854 763 868 1627 1469 2501 1740 l101 31 -120 207 c-784 1347 -1799 2637
-3953 5026 -198 220 -413 459 -478 530 -64 72 -121 132 -125 134 -4 1 -59 -56
-122 -128z m103 -7061 c328 -52 633 -315 747 -644 68 -195 70 -438 4 -631
-102 -301 -344 -537 -644 -628 -446 -135 -913 53 -1146 461 -147 258 -163 590
-41 873 88 203 265 387 466 485 191 93 386 120 614 84z"/>
<path d="M1891 10377 c-962 -1350 -1556 -2584 -1775 -3687 -160 -806 -137
-1600 71 -2425 211 -837 612 -1605 1202 -2299 121 -142 441 -462 596 -594 791
-679 1744 -1127 2745 -1291 243 -40 422 -60 600 -67 l145 -6 -100 46 c-435
200 -986 549 -1380 875 -301 248 -652 599 -928 928 -201 239 -486 647 -656
938 -105 179 -309 588 -388 775 -294 700 -459 1385 -513 2130 -11 148 -11 684
-1 795 l7 70 8 -70 c133 -1165 496 -2174 1123 -3129 1121 -1706 2956 -2912
4745 -3120 70 -8 223 -20 339 -27 410 -24 855 23 1249 132 429 119 862 340
1205 615 213 171 459 434 633 677 236 329 463 791 605 1232 40 126 118 407
114 411 -1 2 -25 -50 -51 -114 -74 -178 -290 -599 -396 -770 -396 -641 -882
-1079 -1425 -1282 -629 -237 -1316 -166 -2158 221 -801 368 -1621 1051 -2355
1961 -1234 1531 -2304 3789 -2867 6048 -84 337 -167 734 -215 1025 -17 105
-32 193 -33 197 -1 4 -67 -84 -146 -195z"/>
<path d="M9620 7499 c-482 -26 -919 -180 -1274 -449 -890 -672 -1210 -1986
-791 -3245 200 -602 503 -1095 965 -1569 272 -279 568 -519 869 -704 l84 -51
90 82 c99 90 330 338 455 487 1004 1204 1466 2782 1261 4305 -33 247 -140 739
-186 864 -7 18 -30 31 -104 58 -237 86 -598 175 -824 202 -106 13 -349 32
-385 29 -14 0 -86 -4 -160 -9z"/>
</g>
</svg>
