<svg xmlns="http://www.w3.org/2000/svg" viewBox="0 0 609.57 263.19"><defs><style>.cls-1{fill:#fff;}</style></defs><g id="Layer_2" data-name="Layer 2"><g id="Layer_1-2" data-name="Layer 1"><path class="cls-1" d="M.06,0H41.68A28.43,28.43,0,0,1,56.53,52.69a28.25,28.25,0,0,1-14.85,52.4H.06ZM8.47,48.34H41.68a19.82,19.82,0,0,0,20-19.9,20,20,0,0,0-20-20H8.47Zm0,48.35H41.68a20,20,0,1,0,0-39.94H8.47Z"/><path class="cls-1" d="M145.79,35h8.4v35a35,35,0,0,1-70.06,0V35h8.41v35a26.63,26.63,0,1,0,53.25,0Z"/><path class="cls-1" d="M238.26,105.09h-8.4V92.9a35.1,35.1,0,1,1,0-45.54V0h8.4Zm-35-61.65a26.63,26.63,0,1,0,26.63,26.62A26.61,26.61,0,0,0,203.23,43.44Z"/><path class="cls-1" d="M322.33,105.09h-8.41V92.9a35.1,35.1,0,1,1,0-45.54V0h8.41Zm-35-61.65a26.63,26.63,0,1,0,26.62,26.62A26.61,26.61,0,0,0,287.3,43.44Z"/><path class="cls-1" d="M398,70.06a26.61,26.61,0,0,0-26.62-26.62c-14.43,0-26.63,12.47-26.63,26.62v35h-8.4V0h8.4V47.36a35,35,0,0,1,61.66,22.7v35H398Z"/><path class="cls-1" d="M482.06,92.9a35.08,35.08,0,1,1,8.41-22.84v35h-8.41Zm-26.62,3.79a26.63,26.63,0,1,0-26.63-26.63A26.43,26.43,0,0,0,455.44,96.69Z"/><path class="cls-1" d="M601.16,70.06c0-14.71-9-26.62-20-26.62s-19.9,11.91-19.9,26.62v35h-8.4v-35c0-14.71-9-26.62-20-26.62-10.79,0-19.9,12.47-19.9,26.62v35h-8.41V35h8.41V45.12c5-6.17,12-10.09,19.9-10.09,10.23,0,19.06,6.73,24.1,16.68,5-10,14-16.68,24.24-16.68,15.7,0,28.45,15.7,28.45,35v35h-8.41Z"/><path class="cls-1" d="M57.89,226.83H53.53V197.74L0,117.74H5.09l50.62,75.63,50.47-75.63h5.24l-53.53,80Z"/><path class="cls-1" d="M152.14,154.1a36.37,36.37,0,1,1-36.36,36.36A36.37,36.37,0,0,1,152.14,154.1Zm0,68.36a32,32,0,1,0-32-32A32.09,32.09,0,0,0,152.14,222.46Z"/><path class="cls-1" d="M216.57,249.23a32,32,0,0,0,54.84-22.4V207.77a36.36,36.36,0,1,1,0-34.62V154.1h4.36v72.73a36.3,36.3,0,0,1-62.25,25.45Zm22.84-90.77a32,32,0,1,0,32,32A32.09,32.09,0,0,0,239.41,158.46Z"/><path class="cls-1" d="M290.31,222.46h19.2a14.83,14.83,0,0,0,15-14.83c0-21.68-34.18-8.29-34.18-34.33a19.31,19.31,0,0,1,19.35-19.2h19.2v4.36h-19.2a14.84,14.84,0,0,0-15,14.84c0,21.82,34.18,8.15,34.18,34.33a19.31,19.31,0,0,1-19.35,19.2h-19.2Z"/><path class="cls-1" d="M411.76,190.46a32.09,32.09,0,0,0-32-32c-17.16,0-32,13.68-32,30.69v37.68H343.4V117.74h4.36v55.41a36.38,36.38,0,0,1,68.37,17.31v36.37h-4.37Z"/><path class="cls-1" d="M499,207.77a36.4,36.4,0,1,1,4.36-17.31v36.37H499Zm-32,14.69a32,32,0,1,0-32-32A32.09,32.09,0,0,0,467,222.46Z"/><path class="cls-1" d="M517.93,117.74h4.37V226.83h-4.37Z"/><path class="cls-1" d="M605.21,207.77a36.4,36.4,0,1,1,4.36-17.31v36.37h-4.36Zm-32,14.69a32,32,0,1,0-32-32A32.1,32.1,0,0,0,573.2,222.46Z"/></g></g></svg>