<svg xmlns="http://www.w3.org/2000/svg" viewBox="0 0 212.67 226.83"><defs><style>.cls-1{fill:#fff;}</style></defs><g id="Layer_2" data-name="Layer 2"><g id="Layer_1-2" data-name="Layer 1"><path class="cls-1" d="M53.85,160.2a4,4,0,0,0-.44-.58.23.23,0,0,1-.07-.07l0-.05a4.37,4.37,0,0,0-.59-.45,4.15,4.15,0,0,0-5.3,6.35l.06,0s0,0,0,.06a4.23,4.23,0,0,0,5.9,0A4.17,4.17,0,0,0,53.85,160.2ZM52.63,164A2.61,2.61,0,0,1,49,164l0-.07-.06-.06a2.55,2.55,0,1,1,3.6-3.61.15.15,0,0,1,.05.07l.07.05A2.61,2.61,0,0,1,52.63,164Z"/><path class="cls-1" d="M37.31,136a4.89,4.89,0,0,0-.21-.72,4.33,4.33,0,0,0-.4-.73,2.44,2.44,0,0,0-.32-.4s0-.06-.07-.09a4.15,4.15,0,0,0-7,4.29.08.08,0,0,0,0,.06.25.25,0,0,0,0,.08,4.17,4.17,0,0,0,7.9-2.49Zm-5.9,1.65a2.57,2.57,0,0,1,3.91-3,3,3,0,0,1,.72,1,3.29,3.29,0,0,1,.22,1.07C36.16,139.07,32.49,140.3,31.41,137.64Z"/><path class="cls-1" d="M27,102.43a4.16,4.16,0,1,0,4.36,4.15A4.19,4.19,0,0,0,27,102.43Zm-1.85,4.15c0-3.1,4.34-3.25,5-.58,0,.19.06.37.08.58s-.05.38-.08.57C29.5,109.84,25.16,109.67,25.16,106.58Z"/><path class="cls-1" d="M34.88,72.53a4.2,4.2,0,0,0-5.47,2.14.25.25,0,0,0,0,.08.08.08,0,0,0,0,.06,4.15,4.15,0,0,0,7,4.28s0,0,.07-.08a2.51,2.51,0,0,0,.32-.41,3.67,3.67,0,0,0,.4-.73,4.65,4.65,0,0,0,.21-.7A4.24,4.24,0,0,0,34.88,72.53Zm1.16,5a3.22,3.22,0,0,1-.72,1,2.58,2.58,0,0,1-3.91-3c1.08-2.66,4.75-1.43,4.85.92A3.35,3.35,0,0,1,36,77.5Z"/><path class="cls-1" d="M53.41,47.64a4.23,4.23,0,0,0-5.9,0,.09.09,0,0,1,0,.06l-.06.06a4.15,4.15,0,0,0,5.3,6.34,3.74,3.74,0,0,0,.59-.46.1.1,0,0,0,0,0,.19.19,0,0,1,.07-.06,4.67,4.67,0,0,0,.44-.58A4.17,4.17,0,0,0,53.41,47.64Zm-.78,5.11-.07,0a.1.1,0,0,1-.05.06,2.55,2.55,0,1,1-3.6-3.6l.06-.07,0,0a2.56,2.56,0,0,1,3.62,3.61Z"/><path class="cls-1" d="M80,31.93a4.18,4.18,0,0,0-5.39-2.33l-.06,0-.08,0a4.15,4.15,0,0,0,2.49,7.88,3.13,3.13,0,0,0,.7-.19,3.84,3.84,0,0,0,.75-.4l.4-.31a.14.14,0,0,1,.09-.08A4.2,4.2,0,0,0,80,31.93ZM78.3,35.55a2.95,2.95,0,0,1-2.11.94c-2.35-.1-3.57-3.77-.93-4.85A2.57,2.57,0,0,1,78.3,35.55Z"/><path class="cls-1" d="M106.33,23.29a4.16,4.16,0,1,0,4.16,4A4.19,4.19,0,0,0,106.33,23.29Zm.58,7.13c-.18,0-.37.07-.58.09s-.39-.06-.58-.09c-2.68-.69-2.5-5,.58-5S109.6,29.73,106.91,30.42Z"/><path class="cls-1" d="M138.23,29.65l0,0s-.05,0-.08,0a4.14,4.14,0,0,0-4.27,6.95l.09.08a4.64,4.64,0,0,0,.4.31,3,3,0,0,0,.73.4,3.29,3.29,0,0,0,.7.19,4.15,4.15,0,0,0,2.48-7.88Zm-1.74,6.84a2.94,2.94,0,0,1-1.08-.22,3.07,3.07,0,0,1-1-.72,2.57,2.57,0,0,1,3-3.91C140.06,32.72,138.82,36.39,136.49,36.49Z"/><path class="cls-1" d="M165.26,47.76l0-.06a.33.33,0,0,1-.06-.06A4.15,4.15,0,0,0,158.81,53a4.12,4.12,0,0,0,.47.58l.05.06a.08.08,0,0,0,0,0,4.26,4.26,0,0,0,.59.46,4.14,4.14,0,0,0,5.29-6.34Zm-1.49,5.1a2.58,2.58,0,0,1-3.62,0,.13.13,0,0,1,0-.06.15.15,0,0,0-.06,0,2.58,2.58,0,0,1,0-3.61,2.55,2.55,0,0,1,3.6,0s0,0,.07,0a.18.18,0,0,0,.05.07A2.56,2.56,0,0,1,163.77,52.86Z"/><path class="cls-1" d="M183.32,74.81s0,0,0-.06,0,0,0-.08a4.16,4.16,0,0,0-7.89,2.5,3.68,3.68,0,0,0,.2.7,3.23,3.23,0,0,0,.4.73,2.51,2.51,0,0,0,.32.41l.07.08A4.16,4.16,0,0,0,181,80.2,4.21,4.21,0,0,0,183.32,74.81Zm-5.95,3.74a2.82,2.82,0,0,1-.72-1,2.73,2.73,0,0,1-.24-1.07c.1-2.35,3.77-3.58,4.85-.92A2.56,2.56,0,0,1,177.37,78.55Z"/><path class="cls-1" d="M185.66,102.43a4.15,4.15,0,1,0,4,4.15A4.19,4.19,0,0,0,185.66,102.43Zm-3.17,4.72a2.11,2.11,0,0,1,0-1.15c.69-2.67,5-2.52,5,.58S183.18,109.84,182.49,107.15Z"/><path class="cls-1" d="M181,133a4.14,4.14,0,0,0-4.6,1.1l-.07.09a2.44,2.44,0,0,0-.32.4,3.72,3.72,0,0,0-.4.73,3.87,3.87,0,0,0-.2.72,4.16,4.16,0,0,0,7.89,2.49s0,0,0-.08,0,0,0-.06A4.21,4.21,0,0,0,181,133Zm.29,4.69c-1.08,2.66-4.75,1.43-4.85-.92a2.69,2.69,0,0,1,.24-1.07,2.63,2.63,0,0,1,.72-1A2.56,2.56,0,0,1,181.26,137.64Z"/><path class="cls-1" d="M165.26,159.5a4.18,4.18,0,0,0-5.29-.45,5.11,5.11,0,0,0-.59.45.23.23,0,0,0,0,.05.5.5,0,0,0-.05.07,3.62,3.62,0,0,0-.47.58,4.15,4.15,0,0,0,6.34,5.31l.06-.06s0,0,0,0A4.23,4.23,0,0,0,165.26,159.5Zm-1.49,4.39a.15.15,0,0,0-.05.06.23.23,0,0,0-.07.07,2.55,2.55,0,0,1-3.6-3.62s0,0,.06-.05a.25.25,0,0,1,0-.07,2.61,2.61,0,0,1,3.62,0A2.57,2.57,0,0,1,163.77,163.89Z"/><path class="cls-1" d="M147.41,204.11c-.55,0-1.09.11-1.63.19a4.23,4.23,0,0,1,.4.24.93.93,0,0,0,1.32-.45A.16.16,0,0,1,147.41,204.11Z"/><path class="cls-1" d="M87.56,113.77a15,15,0,0,1-1.44-1.3v9.19a1.08,1.08,0,0,0,.36.8,1.42,1.42,0,0,0,1.91,0,1.08,1.08,0,0,0,.36-.8v-6.9ZM88.79,109v-6.45a1,1,0,0,1-.07-.39,1.81,1.81,0,0,0-.61-1.34,2.24,2.24,0,0,0-1.53-.6,2.28,2.28,0,0,0-1.56.6,1.8,1.8,0,0,0-.6,1.34v1.49a10.88,10.88,0,0,0,4.37,8.61l0,0,.37.31A16.39,16.39,0,0,1,88.79,109Zm19-46.7-1.49-2.16-1.49,2.16a4.5,4.5,0,0,0-.7,2.52,4.88,4.88,0,0,0,.41,2,2.6,2.6,0,0,1,.39-.05h2.78a2.6,2.6,0,0,1,.39.05,4.88,4.88,0,0,0,.42-2A4.5,4.5,0,0,0,107.82,62.26Zm-.1,6.47h-2.78a2.74,2.74,0,0,0-2.73,2.74v2.25h8.24V71.47A2.74,2.74,0,0,0,107.72,68.73Zm.83,145.15,3.91.89.34-.37a9.76,9.76,0,0,1,1.5-1.82A23.83,23.83,0,0,1,108.55,213.88ZM118.77,78.82a10.63,10.63,0,0,0-7.52-3.12h-9.84A10.65,10.65,0,0,0,90.78,86.34V94L93.21,91a5.71,5.71,0,0,1,2.25-4.07,8.34,8.34,0,0,1,5.22-1.74,8.24,8.24,0,0,1,5.63,2.12A8.26,8.26,0,0,1,112,85.14a8.38,8.38,0,0,1,5.22,1.74A5.76,5.76,0,0,1,119.43,91L121.87,94V86.34A10.55,10.55,0,0,0,118.77,78.82ZM117.69,92a.93.93,0,0,1-.23-.61,3.73,3.73,0,0,0-1.52-2.9,6.36,6.36,0,0,0-4-1.31h0a5.93,5.93,0,0,0-4.79,2.18l-.13.11s0,.09-.11.12a0,0,0,0,0,0,0,4310580168182.32,4310580168182.32,0,0,0-.36.14h-.37a.38.38,0,0,1-.16-.06.6.6,0,0,1-.2-.08,0,0,0,0,0,0,0,.47.47,0,0,1-.09-.12.45.45,0,0,1-.13-.11,6,6,0,0,0-4.83-2.18,6.31,6.31,0,0,0-4,1.31,3.71,3.71,0,0,0-1.55,2.9A1,1,0,0,1,95,92L90.78,97.2V109a14.53,14.53,0,0,0,11.79,14.3l.15,0,.3,0a20,20,0,0,0,5.86.11H109a7.72,7.72,0,0,0,.84-.12c.19,0,.38-.07.57-.11A14.53,14.53,0,0,0,121.87,109V97.19Zm-12.11,18.54h0l0,0,.17.08a1.62,1.62,0,0,0,.59.12,1.31,1.31,0,0,0,.68-.22,1,1,0,0,1,1.39.25,1,1,0,0,1-.26,1.38,3.3,3.3,0,0,1-1.81.57,3.41,3.41,0,0,1-1.92-.57,1,1,0,0,1-.26-1.38A1,1,0,0,1,105.58,110.49ZM93.73,99.11a1,1,0,0,1-.14-1.39,6,6,0,0,1,4.74-2,8,8,0,0,1,4,1,5.5,5.5,0,0,1,2.58,3.16,1,1,0,0,1-.68,1.22,1,1,0,0,1-1.24-.67,3.36,3.36,0,0,0-1.67-2,5.84,5.84,0,0,0-3-.77A4,4,0,0,0,95.13,99,1,1,0,0,1,93.73,99.11Zm5.41,8.27a4.62,4.62,0,0,1-2.69-.85,3.35,3.35,0,0,1-1.35-2.71v0a1,1,0,1,1,2,0,1.33,1.33,0,0,0,.55,1.15,2.55,2.55,0,0,0,1.5.46,2.5,2.5,0,0,0,1.5-.46,1.34,1.34,0,0,0,.57-1.15,1,1,0,1,1,2,0,3.35,3.35,0,0,1-1.36,2.74A4.6,4.6,0,0,1,99.14,107.38Zm11.12,9.42a4.44,4.44,0,0,1-4,2.53h0a4.42,4.42,0,0,1-3.9-2.54,1,1,0,1,1,1.78-.88,2.38,2.38,0,0,0,2.14,1.43,2.45,2.45,0,0,0,2.19-1.46,1,1,0,0,1,1.35-.41A1,1,0,0,1,110.26,116.8Zm5.95-10.27a4.71,4.71,0,0,1-5.4,0,3.42,3.42,0,0,1-1.34-2.74,1,1,0,1,1,2,0,1.29,1.29,0,0,0,.56,1.15,2.66,2.66,0,0,0,3,0,1.31,1.31,0,0,0,.56-1.15,1,1,0,0,1,1-1,1,1,0,0,1,1,1A3.36,3.36,0,0,1,116.21,106.53Zm2.72-7.42a1,1,0,0,1-1.4-.15,4,4,0,0,0-3.2-1.27,5.92,5.92,0,0,0-3,.77,3.42,3.42,0,0,0-1.68,2,1,1,0,0,1-1.22.67,1,1,0,0,1-.68-1.22,5.46,5.46,0,0,1,2.58-3.16,8,8,0,0,1,4-1,7.12,7.12,0,0,1,2.59.47,5.21,5.21,0,0,1,2.15,1.55A1,1,0,0,1,118.93,99.11Zm6.12,14.66-1.18,1v6.9a1.08,1.08,0,0,0,.36.8,1.42,1.42,0,0,0,1.91,0,1.08,1.08,0,0,0,.36-.8v-9.19A14,14,0,0,1,125.05,113.77Zm2.55-13a2.3,2.3,0,0,0-1.56-.6,2.24,2.24,0,0,0-1.53.6,1.74,1.74,0,0,0-.61,1.34c0,.07,0,.12,0,.18V109a17.31,17.31,0,0,1-.39,3.55l.31-.27,0,0a10.86,10.86,0,0,0,4.38-8.61v-1.49A1.8,1.8,0,0,0,127.6,100.78ZM95.32,177a1.13,1.13,0,0,0-.12.18l.35-.15Zm0,0a1.13,1.13,0,0,0-.12.18l.35-.15Zm0,0a1.13,1.13,0,0,0-.12.18l.35-.15Zm0,0a1.13,1.13,0,0,0-.12.18l.35-.15Zm-4.94-17.24a.9.9,0,0,0,.77-.31ZM95.32,177a1.13,1.13,0,0,0-.12.18l.35-.15Zm27.2-17.27a.9.9,0,0,0,.6-.69C122.93,159.21,122.73,159.45,122.52,159.68ZM95.32,177a1.13,1.13,0,0,0-.12.18l.35-.15Zm0,0a1.13,1.13,0,0,0-.12.18l.35-.15Zm0,0a1.13,1.13,0,0,0-.12.18l.35-.15Zm0,0a1.13,1.13,0,0,0-.12.18l.35-.15Zm0,0a1.13,1.13,0,0,0-.12.18l.35-.15Zm0,0a1.13,1.13,0,0,0-.12.18l.35-.15Zm47.45,29.89-.56.13-4.11,5.87a1,1,0,0,1-1.38.25,1,1,0,0,1-.24-1.38l2.85-4.08-15,3.43c.14.07.27.12.41.2l8.65,4.81h0a6.31,6.31,0,0,0,2.46.84l5.6.66L149.57,206A36.92,36.92,0,0,0,142.77,206.84Zm4.67,13.46-11.84-1.41a8.22,8.22,0,0,1-3.21-1.09l-8.67-4.8h0a6.51,6.51,0,0,0-3.34-1,4.92,4.92,0,0,0-1.09.11,7.59,7.59,0,0,0-4.85,3.44l-.13.17-.79.83-.1.06-.16.13-.18.06a.48.48,0,0,1-.18,0,.66.66,0,0,1-.2,0h-.12L96.4,213.15l9.85,13.68h47A7.06,7.06,0,0,0,147.44,220.3Z"/><path class="cls-1" d="M180.25,214.12a11.82,11.82,0,0,1-4.17,9.27,16,16,0,0,1-10.31,3.44h-9.85l6.25-8.94a1,1,0,0,0-.25-1.39,1,1,0,0,0-1.38.25l-5.64,8.07a9,9,0,0,0-3.42-4.88l5-7.1a1,1,0,0,0-.24-1.38,1,1,0,0,0-1.38.25L149.75,219a9.3,9.3,0,0,0-2-.61h-.06l-4-.48L152,205.92h10.76a21.79,21.79,0,0,1,10.71,2.74,1,1,0,0,0,1-1.73,23.84,23.84,0,0,0-11.69-3H149.87l-1.63.09-.38,0-.36,0a.16.16,0,0,1-.09,0c-.55,0-1.09.11-1.63.19s-1.27.19-1.91.3l-2.85.6-.44.1-.43.1-20,4.57,19.18-9,.9-.41.1-.05s0,0,0,0l2-.95,1-.48,1.48.12h0l.28,0,.43,0,3.18.27,4.95.42,2.28.2.74.06,10.06.86a16.43,16.43,0,0,1,9.66,4.53A12,12,0,0,1,180.25,214.12Z"/><path class="cls-1" d="M153.87,187.35a7,7,0,0,1-1.48,4.21,9.73,9.73,0,0,1-.86,1,10.05,10.05,0,0,1-3.32,2.11l0,0-.62.29-1.87.87-1.8.84-.11,0-3.53,1.65-.27.13-1.53.71-.17.08-1.39.65-2,.93-1.84.86-1.35.64-2.37,1.11-.1-.17a4.7,4.7,0,0,0-2.2-1.88,7.79,7.79,0,0,0-3.14-.62,10.49,10.49,0,0,0-3,.46l-.06,0-6,2.2-.86.33-1.8-1.84-.21-.21h0a4.75,4.75,0,0,0-3.35-1.37h-7.72l0,0a6.45,6.45,0,0,1,1-.88,4.38,4.38,0,0,1,2.65-.84h4.6a9,9,0,0,1,2.89.74,17.12,17.12,0,0,0,2.13.69,6.78,6.78,0,0,0,1.51.19,4.89,4.89,0,0,0,2.93-1h0a3.68,3.68,0,0,0,.39-.3l2.08-1.78.3-.26,2.3-2,2.12-1.81,1.64-1.4.17-.15,4.42-3.77,2-1.74,3.44-2.93a3.27,3.27,0,0,0,.86-3.26l-.12-.66-1.6-8-.2-1c.64-.85,1.27-1.7,1.88-2.55.42-.61.85-1.21,1.24-1.81s.66-1,1-1.46c2.2-3.38,3.79-6.27,4.39-7.43a.6.6,0,0,0,.09-.15l.21-.37c.14-.26.3-.52.44-.79.28-.51.56-1,.83-1.55.4-.77.79-1.54,1.17-2.32l.67,3.73.45,2.51.38,2.1.55,3,1.43,8,.62,3.43.13.74,1.82,10.17.16.88A6,6,0,0,1,153.87,187.35Z"/><path class="cls-1" d="M55.49,211.47a1,1,0,0,0-.22,1.38l10,14H58.23L51,216.74a1,1,0,0,0-1.63,1.16l6.42,8.93H46.89a15.92,15.92,0,0,1-10.3-3.44,11.77,11.77,0,0,1-4.18-9.27,12.07,12.07,0,0,1,3.75-8.51,16.46,16.46,0,0,1,9.66-4.53l8.74-.74,2.3-.2,2.3-.2,4.71-.4,1.73-.15,1.43-.12.88-.08,1.32-.11,1,.48,3.1,1.44,20.25,9.48-10.18-2.32a.88.88,0,0,0-.43-.09l-10.41-2.39L69.67,205h-.08l-.44-.1-.44-.09c-.13,0-.28-.06-.4-.09l-1-.2-.61-.09-.17,0-.42-.07c-.24,0-.53-.08-.85-.11s-.95-.11-1.51-.16-1.12-.08-1.68-.1v0c-.76,0-1.59-.06-2.47,0H48.69a13.81,13.81,0,0,0-9.57,3.43,1,1,0,1,0,1.37,1.45,11.8,11.8,0,0,1,8.2-2.89H61l7.74,10.8a1,1,0,0,0,1.61-1.16l-6.82-9.51a38.56,38.56,0,0,1,5.15.79l2.72.61L81.75,221.8a1,1,0,0,0,1.39.22,1,1,0,0,0,.21-1.37l-9-12.52,8.1,1.84L91,221.8a1,1,0,0,0,1.38.22,1,1,0,0,0,.22-1.37l-7.19-10,8.09,1.83,10.34,14.35H67.74L56.87,211.7A1,1,0,0,0,55.49,211.47Z"/><path class="cls-1" d="M103.13,123.3l-.14,0Z"/><path class="cls-1" d="M154.13,177.24c-.37-.26-.71-.53-1-.77,0,0,0,0,0-.06C153.43,176.7,153.77,177,154.13,177.24Z"/><path class="cls-1" d="M156.23,178.59h0l-.57-.32C155.83,178.38,156,178.48,156.23,178.59Z"/><path class="cls-1" d="M157.93,179.39a9.26,9.26,0,0,1-1.7-.8A16.39,16.39,0,0,0,157.93,179.39Z"/><path class="cls-1" d="M212.24,107.14a1,1,0,0,0,.43-.8.93.93,0,0,0-.43-.79c-6.39-4.19-10.75-11.41-17.92-14.36A17.79,17.79,0,0,0,189,89.92a19,19,0,0,0,2.28-1.36c7.13-5.1,8.67-15.09,13.26-22a.92.92,0,0,0-.55-1.36c-7.77-1.6-15.24-7-23.36-6.42a18.19,18.19,0,0,0-4.21.86,19.49,19.49,0,0,0,2.15-3.13c4-7.38,1.59-16.4,3.24-24.33a.94.94,0,0,0-.3-.94,1,1,0,0,0-1-.33c-7.92,1.65-17-.72-24.34,3.24a18,18,0,0,0-3.11,2.17,19.26,19.26,0,0,0,.85-4.22c.61-8.13-4.83-15.59-6.42-23.36a.92.92,0,0,0-1.35-.55c-7,4.59-17,6.15-22.05,13.25a16.4,16.4,0,0,0-1.37,2.28,17.81,17.81,0,0,0-1.28-5.32C118.55,11.19,111.33,6.82,107.15.46a1,1,0,0,0-.82-.46.94.94,0,0,0-.79.46c-4.19,6.36-11.42,10.73-14.35,17.89a17.51,17.51,0,0,0-1.28,5.32,18.52,18.52,0,0,0-1.36-2.28c-5.1-7.1-15.09-8.66-22-13.25a.94.94,0,0,0-1.37.55c-1.6,7.77-7,15.23-6.4,23.36a17.65,17.65,0,0,0,.84,4.22,16.74,16.74,0,0,0-3.13-2.17c-7.37-4-16.4-1.59-24.33-3.24a1,1,0,0,0-.94.33,1,1,0,0,0-.32.94c1.65,7.93-.74,16.95,3.23,24.33a20.27,20.27,0,0,0,2.17,3.13,18.08,18.08,0,0,0-4.21-.86c-8.14-.61-15.6,4.82-23.37,6.42a.94.94,0,0,0-.55,1.36c4.59,7,6.15,16.95,13.27,22a17.47,17.47,0,0,0,2.27,1.36,17.93,17.93,0,0,0-5.33,1.27c-7.14,3-11.52,10.17-17.89,14.36a1,1,0,0,0-.45.79,1,1,0,0,0,.45.8c6.37,4.19,10.75,11.41,17.89,14.35a17.93,17.93,0,0,0,5.33,1.27,16.49,16.49,0,0,0-2.27,1.37c-7.12,5.09-8.68,15.08-13.27,22.05a.93.93,0,0,0,.55,1.35c7.77,1.6,15.23,7,23.37,6.43a18.61,18.61,0,0,0,4.21-.86,18.83,18.83,0,0,0-2.17,3.12c-4,7.38-1.58,16.41-3.23,24.33a1,1,0,0,0,.32.95,1,1,0,0,0,.94.32c7.85-1.63,16.78.68,24.11-3.11h0l.2-.12a16.28,16.28,0,0,0,3.13-2.17s0,0,0,.05c.44-.38.91-.82,1.4-1.33l-.4,2.82-1.45,8a.68.68,0,0,0,0,.14l-.07.37a6.94,6.94,0,0,0,2,5.92h0a8.74,8.74,0,0,0,1.58,1.29,1.3,1.3,0,0,0,.23.15c.27.16.55.33.85.49l.08,0c.29.15.6.28.91.42l.38.18,7.58,3.54L75.78,200l22.38,10.47a21.73,21.73,0,0,0,7.21,1.56l1,0,1,0a21.7,21.7,0,0,0,7.17-1.56l13-6.09a2.75,2.75,0,0,0-1.31-1.08,5.56,5.56,0,0,0-2.32-.43,8.51,8.51,0,0,0-2.42.36l-7,2.59v0l-.35.1a.2.2,0,0,1-.11,0,15.1,15.1,0,0,1-2,.5,27.56,27.56,0,0,1-4.54.54c-.7,0-1.32,0-1.81,0h-.4l-.61,0a1,1,0,0,1-1-1,.92.92,0,0,1,.2-.59.93.93,0,0,1,.79-.42h1a35.51,35.51,0,0,0,3.74-.19c.78-.09,1.61-.2,2.42-.37l-1-1-.2-.21a2.73,2.73,0,0,0-2-.8h-8.07a1.08,1.08,0,0,1-.63-.21l-8.12-6.54h0l-4.07-3.28-1.79-1.45-1.22-1,0,0-3.22-2.6-1.92-1.52-2.65-2.14-.25-.13-.38-.3a3.3,3.3,0,0,1-.82-3.19l1.93-8.13L78,169l.89-3.75a.86.86,0,0,1,.28-.46c-.18-1.86-.29-3.71-.31-5.57V148.73a1,1,0,1,1,2,0V159c0,.67,0,1.33.05,2q3.87-1.17,7.26-2.54,2.55-1,4.84-2.09a64,64,0,0,0,19.39-13.62,39.72,39.72,0,0,0,7.63-11l-.71-.1a4.36,4.36,0,0,1-3.67-3.9l-.38-4.27a16.48,16.48,0,0,1-8,2.06h-1.94a16.37,16.37,0,0,1-7.4-1.76l-.24,3.84a4.36,4.36,0,0,1-3.72,4l-13.86,2a18.67,18.67,0,0,0-9.48,4.14A13.55,13.55,0,0,0,68,140.89a54.64,54.64,0,0,1-9.62-14.7,56.06,56.06,0,0,1,0-39.69A56.11,56.11,0,0,1,86.5,58.37a56,56,0,0,1,39.67,0A56.11,56.11,0,0,1,154.31,86.5a55.77,55.77,0,0,1,0,39.69,54.4,54.4,0,0,1-9.62,14.7,15.05,15.05,0,0,0-1.4-1.83c-.62,1.81-1.28,3.55-2,5.26-.86,2.05-1.8,4-2.8,5.92a74.12,74.12,0,0,1-4,6.82h0l-1.08,1.6a88.54,88.54,0,0,1-7.18,9c-.86,1-1.74,1.87-2.61,2.75-1.4,1.41-2.81,2.74-4.21,4-1,.94-2.11,1.83-3.15,2.69l-1.08.88c-.7.55-1.39,1.09-2.08,1.6-.52.39-1,.79-1.55,1.16A95.55,95.55,0,0,1,99.82,188c-.72.39-1.38.71-1.94,1-1.55.76-2.45,1.13-2.47,1.14a1,1,0,0,1-1.29-.55,1,1,0,0,1,.54-1.28l.09-.05.3-.12,1.13-.52c.42-.19.9-.42,1.45-.71s1.23-.62,2-1l.79-.43A96.48,96.48,0,0,0,110.62,179c.49-.35,1-.74,1.51-1.12l.42-.31,1.37-1.07c1-.79,2-1.62,3-2.49a88.23,88.23,0,0,0,6.92-6.62c.45-.48.9-1,1.35-1.47a84.27,84.27,0,0,0,6.84-8.7c.8-1.16,1.58-2.36,2.32-3.6.49-.8,1-1.61,1.42-2.43.68-1.22,1.34-2.48,2-3.77a73.32,73.32,0,0,0,4-9.81,18.7,18.7,0,0,0-9.19-3.92h0l-10.43-1.57a40.17,40.17,0,0,1-7.63,11.42,64.19,64.19,0,0,1-18.28,13.56c-1.58.81-3.24,1.59-5,2.34a0,0,0,0,1,0,0,.9.9,0,0,1-.77.31c-.58.25-1.17.5-1.78.73-2.36.93-4.88,1.81-7.56,2.61a54.13,54.13,0,0,0,1.09,7.69c.09.41.18.82.28,1.24h0l2.06,9.2,1.64,7.3,1.09.89,1.72,1.38,1.49,1.2,4.18,3.39,4.72,3.79a7.93,7.93,0,0,1,1.35-1.25,6.57,6.57,0,0,1,3.81-1.21h4.6a10.4,10.4,0,0,1,3.59.87,8.85,8.85,0,0,0,2.94.74h.23a3,3,0,0,0,1.8-.77l3.92-3.35,2.88-2.46,1.72-1.47,4.36-3.72,1.69-1.45,3.35-2.86a.9.9,0,0,1,.24-.28l.75-.59-1.79-9.07a43.66,43.66,0,0,1-3,3.28l-.07.08c-.55.58-1.11,1.16-1.69,1.75s-1.27,1.27-1.93,1.9c-1.6,1.55-3.29,3.11-5,4.6-.74.64-1.49,1.28-2.24,1.88-2.15,1.76-4.33,3.41-6.47,4.85-1.51,1-3,2-4.43,2.74a1,1,0,0,1-1.36-.4,1,1,0,0,1-.09-.69,1,1,0,0,1,.49-.65c1.08-.59,2.18-1.26,3.31-2,.93-.59,1.87-1.24,2.82-1.93,1.78-1.28,3.58-2.7,5.35-4.18.76-.64,1.53-1.29,2.28-2,1.91-1.69,3.76-3.43,5.47-5.14.73-.73,1.44-1.46,2.11-2.17.18-.18.34-.36.5-.54,1.05-1.13,2-2.22,2.89-3.26a.21.21,0,0,1,.06-.08l.05-.06.09-.13c.08-.12.21-.3.41-.56l.48-.68c.09-.11.16-.25.25-.37.26-.35.54-.75.84-1.18.71-1,1.53-2.19,2.4-3.48l.37-.56a93,93,0,0,0,5.51-9,.11.11,0,0,0,0-.06c.09-.17.18-.33.26-.5.23-.4.44-.81.65-1.23.7-1.35,1.34-2.74,2-4.18l-.53-2.89v0a10.44,10.44,0,0,0-.61-2.32,5.37,5.37,0,0,1,2.23-.18,1.19,1.19,0,0,0,.32.05c5.3.93,11.09,8.44,7.1,12.35a.08.08,0,0,0,0,.05s-.05,0-.06,0c-1.9,2-4.67,1.57-7.11.06l.45,2.51c1.16-1,2.73.81,1.59,2a1.36,1.36,0,0,1-1.21.13l.55,3c1-.78,2-1.59,3-2.43.78,2.9,1.8,6,3.92,8.2a9.51,9.51,0,0,0,2.64,2.13c3.57,1.95,7.23.9,10-1.82,0,0,0-.05,0-.06a.34.34,0,0,0,.06-.06c2.72-2.72,3.77-6.38,1.83-9.94a9.73,9.73,0,0,0-2.14-2.64c-2.18-2.12-5.28-3.14-8.21-3.92q1.77-2.06,3.39-4.24a17.13,17.13,0,0,1,10.53,5.71c4.16,6.21,2.74,16.19,3.83,24.27a.27.27,0,0,0-.12,0s0,.08,0,.12c-6.56-.9-14.41-.12-20.45-2a15.46,15.46,0,0,1-3.81-1.78,16.14,16.14,0,0,1-3.05-3.49l.62,3.43.13.74s.51.48,1.3,1.11c0,0,0,0,0-.06.33.29.67.56,1,.83a9.63,9.63,0,0,0,1,.67l.35.23a1.32,1.32,0,0,0,.2.12l.57.32a14.91,14.91,0,0,0,1.72.81l.07,0c7,2.79,15.25.9,22.55,2.41a1,1,0,0,0,1-.32,1,1,0,0,0,.3-.95c-1.65-7.92.74-17-3.24-24.33a18.16,18.16,0,0,0-2.15-3.12,18.72,18.72,0,0,0,4.21.86c8.12.6,15.59-4.83,23.36-6.43a.91.91,0,0,0,.55-1.35c-4.59-7-6.13-17-13.26-22.05a17.89,17.89,0,0,0-2.28-1.37,17.79,17.79,0,0,0,5.32-1.27C201.49,118.55,205.85,111.33,212.24,107.14Zm-114,26a1,1,0,0,1,1.37-.32,12.59,12.59,0,0,0,6.75,1.94,12.73,12.73,0,0,0,6.83-2,1,1,0,1,1,1.07,1.67,14.79,14.79,0,0,1-15.7.05A1,1,0,0,1,98.21,133.1ZM87.75,171.83a1,1,0,0,1-1.26-.63,1,1,0,0,1,.15-.91,1,1,0,0,1,.46-.34c.61-.21,1.19-.41,1.77-.64a83.88,83.88,0,0,0,10.9-4.89h0l2.32-1.31c1.74-1,3.37-2.1,4.86-3.16,1-.7,1.89-1.39,2.76-2.08a58.29,58.29,0,0,0,7.52-7.15c5.56-6.39,7.35-11.59,7.53-12.12v0a1,1,0,1,1,1.9.58c0,.1-1.7,5.48-7.39,12.23a56,56,0,0,1-6.11,6.18c-1.28,1.13-2.68,2.27-4.22,3.38a66.81,66.81,0,0,1-7.77,5l-1.43.77h0a88.27,88.27,0,0,1-10.4,4.58Zm3.61,9a1,1,0,0,1-1.28-.57h0a.92.92,0,0,1,0-.59,1,1,0,0,1,.6-.68c1.57-.59,3.08-1.2,4.54-1.85a1.13,1.13,0,0,1,.12-.18l.23,0q1.86-.84,3.6-1.71c.57-.3,1.14-.59,1.69-.9s1-.56,1.54-.84a74.46,74.46,0,0,0,9.28-6.23c.43-.33.83-.66,1.23-1a70.1,70.1,0,0,0,7-6.66l.5-.55c1.23-1.38,2.29-2.68,3.2-3.87a38.53,38.53,0,0,0,5-8.14l0-.05a1,1,0,0,1,1.3-.54,1,1,0,0,1,.54,1.3A35.13,35.13,0,0,1,127,154a60,60,0,0,1-3.85,5,.9.9,0,0,1-.6.69l-.06.08c-.35.4-.71.81-1.08,1.21a72.39,72.39,0,0,1-8.12,7.6c-.55.44-1.12.89-1.7,1.32A76.73,76.73,0,0,1,103.8,175c-1.44.84-3,1.65-4.56,2.43q-2.7,1.35-5.71,2.54C92.81,180.29,92.1,180.57,91.36,180.83Zm94.79-119c.7.21,13.78,4.82,14.11,5.94s-5.66,13-6,13.63a16.55,16.55,0,0,1-7.61,7.4,17,17,0,0,1-10.8.72c-.4-1.73-.86-3.47-1.39-5.18,3.08.39,6.6.63,9.46-.68a9.4,9.4,0,0,0,3.27-2.17c2.75-2.86,2.66-6.68,1-10.05a8.06,8.06,0,0,0-8.2-4.59,9.59,9.59,0,0,0-3.28,1c-2.72,1.19-4.8,3.61-6.61,6q-1.26-2.4-2.67-4.67a18.18,18.18,0,0,1,6.22-6.21A16.41,16.41,0,0,1,186.15,61.85Zm-13.62,72s0-.08,0-.12a.3.3,0,0,0,.07-.11c.43-1.11.84-2.23,1.22-3.37,2.82-.28,5.82-.66,8.59.21,3.8,1.45,4.92,5.09,3.48,8.79-1.29,3.3-4.35,5-7.53,4.22a10,10,0,0,1-2.09-1,23.06,23.06,0,0,1-5.28-5.38h0C171.55,136,172.06,135,172.53,133.85Zm-2.21-8c.35-1.66,2.84-1,2.44.64A1.27,1.27,0,0,1,170.32,125.83Zm3.93-5.67c-1.87,6.55-15.2,3.69-15.45-2.79.06-.38.13-.76.19-1.12C161.7,109.9,176.23,113.24,174.25,120.16Zm-1.49-33.95c.4,1.63-2.09,2.3-2.44.65A1.27,1.27,0,0,1,172.76,86.21ZM171,75.6h0a22.82,22.82,0,0,1,5.28-5.37,9.11,9.11,0,0,1,2.09-1c3.18-.83,6.24.92,7.53,4.21,1.44,3.71.32,7.35-3.48,8.79-2.77.87-5.77.49-8.59.19-.38-1.12-.79-2.24-1.22-3.35a.41.41,0,0,0-.07-.11s0-.08,0-.11C172.06,77.73,171.55,76.65,171,75.6Zm3.24,16.92c2,6.92-12.55,10.26-15.26,3.91-.06-.38-.13-.74-.19-1.12C159.05,88.84,172.38,86,174.25,92.52Zm1.15,7c0,1.59-2.38,1.85-2.52.22S175.08,98,175.4,99.56Zm-13.6,1.33c0,1.24-1.87,1.45-2,.18S161.53,99.75,161.8,100.89Zm-2,10.73c.09-1.28,1.95-1.07,2,.18C161.53,112.94,159.74,112.93,159.84,111.62Zm13,1.28c.14-1.63,2.52-1.36,2.52.23C175.08,114.64,172.76,114.55,172.88,112.9Zm-13-6.41v-.29c.85-6.9,16-7,16,.14S160.69,113.39,159.84,106.49Zm5.44-31.75a1.27,1.27,0,0,1,2.3-1C168.29,75.22,165.88,76.31,165.28,74.74ZM154.12,38c6.21-4.13,16.2-2.71,24.26-3.82,0,0,0,.08,0,.12a.27.27,0,0,0,.12,0c-1.09,8.09.33,18.06-3.83,24.28a17.21,17.21,0,0,1-10.53,5.7q-1.62-2.19-3.39-4.23c2.93-.79,6-1.81,8.21-3.92a9.78,9.78,0,0,0,2.14-2.65c1.94-3.57.89-7.22-1.83-9.94l-.06-.06,0,0c-2.72-2.72-6.38-3.78-10-1.83a9.51,9.51,0,0,0-2.64,2.13c-2.12,2.18-3.14,5.31-3.92,8.21q-2.05-1.77-4.24-3.37A17.21,17.21,0,0,1,154.12,38Zm5.55,20.4a2.29,2.29,0,0,0-.27.14c-.83-.92-1.69-1.83-2.56-2.71s-1.77-1.73-2.71-2.57a.68.68,0,0,0,.13-.27c.91-3.08,2.69-7.07,5.21-9.18,2.54-1.38,5.43-.56,7.68,1.6l.06.06s0,0,0,0c2.15,2.25,3,5.14,1.59,7.71C166.75,55.72,162.75,57.5,159.67,58.41Zm-1.51,5.69c-1.23-1.18.67-2.91,1.85-1.72C160.79,63.6,159.33,65.2,158.16,64.1Zm-9.58-9.59c-1.11-1.16.5-2.63,1.72-1.84C151.48,53.87,149.75,55.75,148.58,54.51ZM123.86,26a16.51,16.51,0,0,1,7.39-7.62c.61-.34,12.41-6.36,13.64-6s5.73,13.41,5.93,14.1A16.27,16.27,0,0,1,149.76,39a18.28,18.28,0,0,1-6.21,6.23q-2.27-1.42-4.64-2.68c2.34-1.81,4.75-3.9,5.92-6.6a9.38,9.38,0,0,0,1-3.3,8.06,8.06,0,0,0-4.59-8.19c-3.38-1.66-7.21-1.75-10.07,1A8.86,8.86,0,0,0,129,28.76c-1.32,2.84-1.08,6.36-.69,9.44-1.72-.52-3.44-1-5.19-1.38A17.2,17.2,0,0,1,123.86,26ZM139,45.11a1.27,1.27,0,0,1-1.06,2.3A1.27,1.27,0,1,1,139,45.11Zm-1.93-3.45c-1-.53-2.13-1-3.22-1.51l-.12,0-.11-.06c-1.11-.45-2.24-.84-3.36-1.23-.3-2.83-.68-5.83.2-8.59,1.44-3.81,5.08-4.93,8.78-3.48,3.31,1.28,5,4.34,4.21,7.52a9.9,9.9,0,0,1-1,2.09A23.79,23.79,0,0,1,137.07,41.66Zm-11.25.72a1.28,1.28,0,0,1,.65-2.47A1.28,1.28,0,0,1,125.82,42.38ZM97.29,13.91c3.08-3.23,6.35-6,9-9.58,2.69,3.53,6,6.35,9,9.58,3.68,3.84,5.62,8.4,5.36,13a17.63,17.63,0,0,1-3.4,8.82c-1.78-.28-3.57-.48-5.35-.61,1.55-2.71,3.14-5.87,3.06-9a9.12,9.12,0,0,0-.71-3.87c-1.45-3.39-4.49-4.84-8-4.84s-6.55,1.45-8,4.84a9,9,0,0,0-.72,3.87c-.09,3.15,1.5,6.31,3.07,9-1.79.13-3.6.33-5.38.61a18,18,0,0,1-3.4-8.82C91.67,22.31,93.62,17.75,97.29,13.91Zm15.6,25.88c-1.63-.14-1.35-2.52.23-2.52C114.64,37.6,114.54,39.91,112.89,39.79Zm-2.81-5.09a1,1,0,0,0-.1.32c-1.22-.06-2.43-.09-3.65-.09s-2.43,0-3.63.09a.7.7,0,0,0-.12-.32c-1.34-2.5-2.77-5.05-3-7.91-.11-4.1,2.64-6.63,6.74-6.57s6.88,2.47,6.75,6.57C112.86,29.65,111.45,32.2,110.08,34.7Zm-10.3,5.09c-1.66.12-1.75-2.19-.22-2.52C101.13,37.27,101.43,39.65,99.78,39.79ZM61.84,26.53c.21-.69,4.83-13.76,6-14.1s13,5.64,13.63,6A16.51,16.51,0,0,1,88.83,26a17.41,17.41,0,0,1,.73,10.79c-1.75.39-3.48.86-5.21,1.38.39-3.08.63-6.6-.69-9.44a8.74,8.74,0,0,0-2.15-3.28c-2.85-2.74-6.69-2.65-10.06-1a8.06,8.06,0,0,0-4.59,8.19,9.37,9.37,0,0,0,1,3.3c1.18,2.7,3.6,4.79,5.94,6.6q-2.39,1.26-4.67,2.68A18.37,18.37,0,0,1,62.9,39,16.41,16.41,0,0,1,61.84,26.53Zm25,15.85a1.28,1.28,0,0,1-.64-2.47A1.28,1.28,0,0,1,86.85,42.38Zm-16.63-6a8.29,8.29,0,0,1-1-2.09c-.83-3.18.9-6.24,4.2-7.52,3.72-1.45,7.35-.33,8.78,3.48.89,2.76.51,5.76.21,8.59-1.14.39-2.26.78-3.37,1.23l-.1.06a.53.53,0,0,1-.12,0c-1.09.48-2.16,1-3.23,1.51h0C73.68,40.1,71.56,38.49,70.22,36.37Zm4.51,11a1.27,1.27,0,0,1-1-2.3A1.27,1.27,0,1,1,74.73,47.41ZM34.18,34.29a.3.3,0,0,0,.13,0,.53.53,0,0,1,0-.12c8.06,1.11,18-.31,24.26,3.82a17.2,17.2,0,0,1,5.71,10.55c-1.46,1.07-2.86,2.19-4.22,3.37-.79-2.9-1.83-6-3.93-8.21a9.71,9.71,0,0,0-2.65-2.13c-3.57-2-7.23-.89-9.95,1.83a.1.1,0,0,1-.06,0,.1.1,0,0,1-.05.06c-2.73,2.72-3.77,6.37-1.83,9.94a9.45,9.45,0,0,0,2.15,2.65C45.89,58.23,49,59.25,51.94,60c-1.18,1.36-2.32,2.77-3.39,4.23A17.32,17.32,0,0,1,38,58.57C33.86,52.35,35.29,42.38,34.18,34.29ZM64.1,54.51c-1.16,1.24-2.91-.64-1.72-1.84C63.6,51.88,65.2,53.35,64.1,54.51Zm-10.83,4a2.15,2.15,0,0,0-.26-.14c-3.1-.91-7.07-2.69-9.18-5.18-1.4-2.57-.58-5.46,1.58-7.71,0,0,.05,0,.06,0s0,0,.06-.06c2.23-2.16,5.13-3,7.69-1.6,2.5,2.11,4.28,6.1,5.18,9.18a1.15,1.15,0,0,0,.14.27c-.92.84-1.82,1.69-2.69,2.57S54.1,57.63,53.27,58.55ZM54.5,64.1c-1.15,1.1-2.63-.5-1.82-1.72C53.85,61.19,55.76,62.92,54.5,64.1ZM47.4,74.74a1.26,1.26,0,1,1-2.29-1A1.26,1.26,0,0,1,47.4,74.74Zm-29,6.68c-.34-.61-6.35-12.4-6-13.63s13.4-5.73,14.11-5.94A16.43,16.43,0,0,1,39,62.91a18.32,18.32,0,0,1,6.21,6.21c-.94,1.51-1.84,3.07-2.67,4.67-1.82-2.34-3.9-4.76-6.61-6a9.66,9.66,0,0,0-3.28-1,8,8,0,0,0-8.2,4.59c-1.67,3.37-1.76,7.19,1,10.05a9.22,9.22,0,0,0,3.27,2.17c2.86,1.31,6.36,1.07,9.46.68-.54,1.71-1,3.45-1.4,5.18A17,17,0,0,1,26,88.82,16.6,16.6,0,0,1,18.4,81.42Zm21.52,45.05c-.41-1.63,2.1-2.3,2.44-.64A1.27,1.27,0,0,1,39.92,126.47Zm1.73,10.61a22.9,22.9,0,0,1-5.29,5.38,9.72,9.72,0,0,1-2.08,1c-3.18.82-6.23-.92-7.53-4.22-1.43-3.7-.31-7.34,3.47-8.79,2.77-.87,5.79-.49,8.61-.21.38,1.14.78,2.26,1.22,3.37a.3.3,0,0,0,.07.11s0,.08,0,.12C40.62,135,41.12,136,41.65,137.08Zm-3.23-16.93c-2-6.91,12.56-10.25,15.25-3.9.08.36.14.74.22,1.12C53.62,123.85,40.29,126.71,38.42,120.15Zm14.4-14v.29c-.82,6.9-15.93,7-15.93-.15S52,99.3,52.82,106.2ZM37.28,99.56c.31-1.52,2.64-1.43,2.5.22A1.26,1.26,0,0,1,37.28,99.56Zm13.6,1.33c.28-1.14,2.06-1.13,2,.18S50.89,102.13,50.88,100.89Zm2,10.73c.1,1.31-1.68,1.32-2,.18C50.89,110.55,52.73,110.34,52.84,111.62ZM39.78,112.9c.14,1.65-2.19,1.74-2.5.23C37.28,111.54,39.64,111.27,39.78,112.9ZM53.67,96.43c-2.69,6.35-17.24,3-15.25-3.91,1.87-6.55,15.2-3.68,15.47,2.79C53.81,95.69,53.75,96.05,53.67,96.43ZM42.36,86.86c-.34,1.65-2.85,1-2.44-.65A1.27,1.27,0,0,1,42.36,86.86Zm-2.22-8s0,.08,0,.11a.41.41,0,0,0-.07.11c-.44,1.11-.84,2.23-1.22,3.35-2.82.3-5.84.68-8.61-.19-3.78-1.44-4.9-5.08-3.47-8.79,1.3-3.29,4.35-5,7.53-4.21a8.86,8.86,0,0,1,2.08,1c2.14,1.33,3.73,3.43,5.29,5.37C41.12,76.65,40.62,77.73,40.14,78.84ZM13.9,115.38c-3.22-3.08-6-6.35-9.58-9,3.55-2.69,6.36-6,9.58-9,3.85-3.67,8.41-5.62,13-5.37a17.91,17.91,0,0,1,8.82,3.4c-.27,1.78-.47,3.58-.59,5.38-2.73-1.58-5.88-3.16-9-3.07a9.18,9.18,0,0,0-3.86.69c-3.39,1.46-4.83,4.5-4.83,8s1.44,6.55,4.83,8a8.88,8.88,0,0,0,3.86.69c3.16.09,6.31-1.49,9-3.07.12,1.81.32,3.6.59,5.38a17.91,17.91,0,0,1-8.82,3.4C22.31,121,17.75,119.05,13.9,115.38ZM35,110l-.32.12c-2.48,1.37-5,2.78-7.91,3-4.09.12-6.62-2.64-6.57-6.74s2.48-6.85,6.57-6.74c2.86.21,5.43,1.62,7.91,3a.9.9,0,0,0,.32.1c-.06,1.22-.09,2.44-.09,3.65S35,108.77,35,110Zm-8.48,40.86c-.71-.21-13.77-4.81-14.11-5.93s5.64-13,6-13.64A16.58,16.58,0,0,1,26,123.87a17,17,0,0,1,10.8-.73c.4,1.74.86,3.47,1.4,5.18-3.1-.39-6.6-.62-9.46.69a9.06,9.06,0,0,0-3.27,2.16c-2.75,2.87-2.66,6.68-1,10.06a8.05,8.05,0,0,0,8.2,4.59,9.67,9.67,0,0,0,3.28-1c2.71-1.18,4.79-3.6,6.61-5.94.83,1.6,1.73,3.15,2.67,4.67a18.38,18.38,0,0,1-6.21,6.2A16.43,16.43,0,0,1,26.53,150.83ZM47.4,137.94A1.26,1.26,0,0,1,45.11,139,1.26,1.26,0,1,1,47.4,137.94Zm11.16,36.74c-6.22,4.13-16.2,2.71-24.26,3.81a.45.45,0,0,1,0-.12.3.3,0,0,0-.13,0c1.11-8.08-.32-18.06,3.82-24.27a17.23,17.23,0,0,1,10.55-5.71c1.07,1.46,2.21,2.87,3.39,4.24-2.92.78-6,1.8-8.21,3.92a9.4,9.4,0,0,0-2.15,2.64c-1.94,3.56-.9,7.22,1.83,9.94l.05.06s0,0,.06.06c2.72,2.72,6.38,3.77,9.95,1.82A9.71,9.71,0,0,0,56.12,169c2.1-2.18,3.14-5.3,3.93-8.2,1,.84,2,1.64,3,2.41l-1.45,8.07A16.32,16.32,0,0,1,58.56,174.68ZM53,154.27a2.1,2.1,0,0,0,.26-.13c.83.92,1.69,1.82,2.58,2.69s1.77,1.74,2.69,2.58a1.15,1.15,0,0,0-.14.27c-.9,3.08-2.68,7.08-5.18,9.18-2.56,1.38-5.46.56-7.69-1.6,0,0,0,0-.06,0s0,0-.06-.05c-2.16-2.25-3-5.14-1.58-7.7C45.94,157,49.91,155.18,53,154.27Zm1.49-5.7c1.26,1.19-.65,2.92-1.82,1.74C51.87,149.09,53.35,147.49,54.5,148.57ZM64,158l-.39,2.13a1.34,1.34,0,0,1-1.19-.14C61.23,158.86,62.79,157.07,64,158Zm2.87-14.88a10.25,10.25,0,0,0-.61,2.33v0l-1.81,10c-2.43,1.5-5.19,1.88-7.09-.07a.12.12,0,0,1-.05,0,.15.15,0,0,0-.07-.05C53.22,151.47,59,144,64.3,143a1.19,1.19,0,0,0,.32-.05A5.45,5.45,0,0,1,66.83,143.15Zm-2.18-2.89c1,.9-.47,2.3-1.41,1.37C62.66,140.7,63.73,139.42,64.65,140.26Zm-2.5-3.59c2.34,6.3-10.17,14.07-13.63,7.94-3.36-5.93,8-13.45,12.81-9.14C61.59,135.88,61.87,136.28,62.15,136.67ZM59,131.75a1,1,0,0,1-1.82.8C56.6,131.36,58.51,130.51,59,131.75Zm-2.69-5.87c.12.29.22.6.33.89a.26.26,0,0,0,.07.1s0,.09,0,.12c.13.3.28.6.41.9.37,6.2-11.69,11.08-14.7,5.22C39.2,126.86,52,121,56.28,125.88ZM54.92,122a1,1,0,0,1-1.93.48C52.68,121.24,54.67,120.7,54.92,122ZM53,90.17a1,1,0,0,1,1.93.49C54.67,92,52.68,91.45,53,90.17Zm3.71-4.48s0,.08,0,.12a.3.3,0,0,0-.07.11c-.11.29-.21.59-.33.88-4.3,4.92-17.08-1-13.87-7.22,3-5.87,15.07-1,14.7,5.22C57,85.1,56.83,85.39,56.7,85.69ZM59,80.93c-.46,1.25-2.37.39-1.82-.79A1,1,0,0,1,59,80.93ZM62.15,76c-.28.39-.56.78-.82,1.19-4.8,4.32-16.17-3.21-12.81-9.13C52,61.93,64.49,69.71,62.15,76Zm2.5-3.6c-.92.84-2-.44-1.41-1.36C64.18,70.13,65.64,71.53,64.65,72.42ZM69,68l-.51.5c-.17.18-.35.34-.5.5a4.79,4.79,0,0,1-3.36.72,1.75,1.75,0,0,0-.32,0C59,68.73,53.22,61.21,57.19,57.3l.07,0a.13.13,0,0,1,.05-.06c3.89-4,11.42,1.79,12.33,7.09,0,.12,0,.23,0,.33A4.9,4.9,0,0,1,69,68Zm3.43-3.32c-.89,1-2.31-.47-1.38-1.42C72,62.67,73.25,63.73,72.42,64.66Zm4.78-3.33-1.2.83C69.7,64.5,61.93,52,68.07,48.51,74,45.18,81.51,56.54,77.2,61.33ZM80.92,59a1,1,0,0,1-.78-1.83C81.32,56.6,82.19,58.52,80.92,59ZM86.8,56.3l-.9.31s-.05,0-.1.08a.6.6,0,0,0-.12,0l-.88.4c-6.22.38-11.09-11.69-5.23-14.7C85.83,39.18,91.71,52,86.8,56.3Zm3.86-1.39A1,1,0,0,1,90.17,53C91.46,52.69,92,54.66,90.66,54.91Zm5.76-1.22c-.36.05-.74.13-1.1.2C88.84,53.63,86,40.3,92.53,38.42,99.44,36.44,102.79,51,96.42,53.69Zm4.64-.84c-1.29.09-1.33-1.71-.16-2C102.12,50.9,102.33,52.75,101.06,52.85Zm5.42,0h-.28c-6.91-.82-7-15.94.13-15.94S113.4,52,106.48,52.83Zm5.14,0c-1.28-.1-1.06-2,.16-2C112.94,51.14,112.92,52.94,111.62,52.85ZM122,54.91c-1.31-.25-.79-2.22.49-1.92A1,1,0,0,1,122,54.91Zm-4.65-1c-.38-.07-.74-.15-1.12-.2-6.35-2.7-3-17.25,3.91-15.27C126.71,40.3,123.83,53.63,117.36,53.89ZM127,56.71s-.08,0-.11,0a.28.28,0,0,0-.12-.08l-.89-.31c-4.89-4.33,1-17.12,7.24-13.89,5.85,3,1,15.08-5.23,14.7ZM131.76,59c-1.26-.46-.41-2.38.79-1.83A1,1,0,0,1,131.76,59Zm8.49,5.68c-.82-.93.46-2,1.37-1.42C142.57,64.19,141.15,65.65,140.25,64.66Zm-3.58-2.5c-.39-.28-.8-.56-1.21-.83-4.3-4.79,3.22-16.15,9.16-12.82C150.74,52,143,64.5,136.67,62.16Zm8,6.82-.51-.5c-.16-.16-.33-.34-.5-.5a4.91,4.91,0,0,1-.72-3.36.88.88,0,0,0,.05-.33c.93-5.3,8.45-11.09,12.35-7.09a.11.11,0,0,0,.06.06.1.1,0,0,0,0,0c4,3.91-1.8,11.43-7.1,12.36a1.75,1.75,0,0,0-.32,0A4.79,4.79,0,0,1,144.7,69ZM148,72.42c-1-.89.45-2.29,1.4-1.36C150,72,148.94,73.26,148,72.42Zm2.5,3.6c-2.35-6.31,10.17-14.09,13.63-7.94,3.34,5.92-8,13.45-12.82,9.13C151.07,76.8,150.8,76.41,150.53,76Zm3.18,4.91a1,1,0,0,1,1.82-.79C156.07,81.32,154.15,82.18,153.71,80.93Zm2.69,5.87c-.12-.29-.22-.59-.34-.88a.58.58,0,0,0-.05-.11.28.28,0,0,0,0-.12c-.12-.3-.26-.59-.4-.89-.39-6.22,11.68-11.09,14.7-5.22C173.49,85.83,160.7,91.72,156.4,86.8Zm1.37,3.86a1,1,0,0,1,1.91-.49C160,91.45,158,92,157.77,90.66Zm1.91,31.84a1,1,0,0,1-1.91-.48C158,120.7,160,121.24,159.68,122.5Zm-4.11,5.39c.14-.3.28-.6.4-.9,0,0,0-.08,0-.12a.46.46,0,0,0,.05-.1c.12-.29.22-.6.34-.89,4.3-4.91,17.09,1,13.87,7.23C167.25,139,155.18,134.09,155.57,127.89Zm-1.86,3.86c.44-1.24,2.36-.39,1.82.8A1,1,0,0,1,153.71,131.75Zm-4.28,9.88c-1,.93-2.39-.47-1.4-1.37S150,140.7,149.43,141.63Zm19.42,17.83c1.39,2.56.56,5.45-1.59,7.7,0,0,0,0,0,.05s-.05,0-.06,0c-2.25,2.16-5.14,3-7.68,1.6-2.52-2.1-4.3-6.1-5.21-9.18a.68.68,0,0,0-.13-.27c.94-.84,1.83-1.69,2.71-2.58s1.73-1.77,2.56-2.69a2.24,2.24,0,0,0,.27.13C162.75,155.18,166.75,157,168.85,159.46Zm-10.69-10.89c1.17-1.08,2.63.52,1.85,1.74C158.83,151.49,156.93,149.76,158.16,148.57Zm6-4c-3.46,6.13-16-1.64-13.63-7.94q.41-.58.81-1.2C156.15,131.16,167.5,138.68,164.16,144.61Zm1.12-6.67c.6-1.56,3-.48,2.3,1.05A1.27,1.27,0,0,1,165.28,137.94Zm29-6.68c.33.61,6.35,12.41,6,13.64s-13.41,5.72-14.11,5.93a16.41,16.41,0,0,1-12.5-1.06,18.23,18.23,0,0,1-6.22-6.2c.94-1.52,1.83-3.07,2.67-4.67,1.81,2.34,3.89,4.76,6.61,5.94a9.61,9.61,0,0,0,3.28,1,8.08,8.08,0,0,0,8.2-4.59c1.67-3.38,1.76-7.19-1-10.06a9.23,9.23,0,0,0-3.27-2.16c-2.86-1.31-6.38-1.08-9.46-.69q.79-2.56,1.39-5.18a17,17,0,0,1,10.8.73A16.53,16.53,0,0,1,194.27,131.26Zm-8.51-10.51a17.92,17.92,0,0,1-8.8-3.4c.26-1.78.46-3.57.59-5.38,2.74,1.58,5.87,3.16,9,3.07a8.88,8.88,0,0,0,3.86-.69c3.39-1.46,4.83-4.49,4.83-8s-1.44-6.55-4.83-8a9.18,9.18,0,0,0-3.86-.69c-3.17-.09-6.3,1.49-9,3.07-.13-1.8-.33-3.6-.59-5.38a17.92,17.92,0,0,1,8.8-3.4c4.6-.25,9.17,1.7,13,5.37,3.23,3.08,6.05,6.35,9.59,9-3.54,2.69-6.36,6-9.59,9C194.93,119.05,190.36,121,185.76,120.75Zm-8.09-18.06a.9.9,0,0,0,.32-.1c2.49-1.37,5-2.78,7.91-3,4.08-.11,6.62,2.64,6.56,6.74s-2.48,6.86-6.56,6.74c-2.88-.21-5.42-1.62-7.91-3l-.32-.12c.05-1.2.07-2.42.07-3.63S177.72,103.91,177.67,102.69Z"/></g></g></svg>