<?xml version="1.0" standalone="no"?>
<!DOCTYPE svg PUBLIC "-//W3C//DTD SVG 20010904//EN"
 "http://www.w3.org/TR/2001/REC-SVG-20010904/DTD/svg10.dtd">
<svg version="1.0" xmlns="http://www.w3.org/2000/svg"
 width="833.000000pt" height="545.000000pt" viewBox="0 0 833.000000 545.000000"
 preserveAspectRatio="xMidYMid meet">

<g transform="translate(0.000000,545.000000) scale(0.100000,-0.100000)"
fill="#fff" stroke="none">
<path d="M4440 4330 l0 -1110 95 0 95 0 0 1110 0 1110 -95 0 -95 0 0 -1110z"/>
<path d="M10 4185 l0 -965 95 0 95 0 0 480 0 480 435 0 435 0 0 -480 0 -480
90 0 90 0 0 965 0 965 -90 0 -90 0 0 -390 0 -390 -435 0 -435 0 0 390 0 390
-95 0 -95 0 0 -965z"/>
<path d="M5040 4895 l0 -95 95 0 95 0 0 95 0 95 -95 0 -95 0 0 -95z"/>
<path d="M6117 4664 c-78 -19 -200 -83 -264 -139 -28 -25 -54 -45 -57 -45 -3
0 -6 36 -6 80 l0 80 -90 0 -90 0 0 -710 0 -710 89 0 90 0 3 433 c4 403 5 436
24 493 44 129 140 236 274 302 71 36 78 37 175 36 168 -1 264 -55 332 -186 54
-107 56 -127 60 -620 l4 -458 95 0 94 0 0 444 c0 480 -6 558 -55 677 -30 75
-102 177 -152 217 -130 101 -356 147 -526 106z"/>
<path d="M2040 4660 c-134 -21 -267 -96 -373 -210 -213 -230 -254 -586 -102
-890 87 -174 234 -298 411 -345 95 -26 243 -30 369 -10 127 19 274 54 293 68
8 6 12 39 12 99 0 82 -2 90 -17 83 -10 -3 -79 -22 -153 -42 -117 -31 -151 -35
-260 -37 -189 -1 -277 27 -384 124 -81 75 -138 200 -161 354 l-7 46 527 0 528
0 -7 100 c-23 327 -193 573 -446 643 -73 21 -163 27 -230 17z m234 -220 c92
-47 212 -210 232 -317 l7 -33 -417 0 -417 0 6 23 c41 143 177 289 317 339 77
27 206 22 272 -12z"/>
<path d="M3495 4660 c-173 -20 -323 -108 -447 -262 -107 -133 -169 -322 -169
-518 -1 -145 19 -237 76 -355 112 -231 284 -345 520 -345 152 0 279 48 384
146 32 30 61 54 65 54 3 0 6 -36 6 -80 l0 -80 95 0 95 0 0 705 c0 436 -4 705
-9 705 -6 0 -83 6 -173 14 -208 19 -367 24 -443 16z m373 -196 l62 -7 0 -311
c0 -329 -7 -396 -50 -492 -46 -104 -141 -198 -258 -252 -50 -24 -70 -27 -157
-27 -92 0 -104 2 -154 30 -102 57 -196 188 -227 321 -22 93 -14 262 16 359 62
197 188 334 350 380 43 12 88 14 205 10 83 -2 178 -8 213 -11z"/>
<path d="M7603 4650 c-117 -31 -205 -83 -300 -177 -133 -134 -215 -321 -229
-527 -25 -359 172 -683 457 -751 192 -45 390 8 539 143 l63 56 -6 -185 c-5
-197 -16 -260 -64 -359 -50 -103 -167 -191 -293 -221 -66 -15 -232 -14 -355 3
l-90 13 -17 -90 c-9 -49 -15 -91 -14 -93 10 -10 233 -32 328 -32 147 0 240 19
346 71 178 87 296 262 336 498 14 81 16 206 16 866 l0 772 -67 7 c-329 32
-545 34 -650 6z m435 -176 l92 -6 0 -317 c0 -351 -7 -405 -60 -511 -58 -115
-183 -222 -298 -255 -85 -25 -192 -17 -261 20 -98 54 -192 182 -226 311 -23
86 -21 249 4 347 58 225 211 383 401 416 53 9 146 8 348 -5z"/>
<path d="M5040 3935 l0 -715 95 0 95 0 0 715 0 715 -95 0 -95 0 0 -715z"/>
<path d="M1510 1805 l0 -1025 50 0 50 0 0 388 c0 427 4 466 62 573 38 73 108
146 184 195 106 68 199 80 319 43 120 -37 206 -147 240 -306 11 -53 15 -159
15 -480 l0 -413 51 0 50 0 -4 443 c-4 486 -6 504 -69 633 -59 121 -134 186
-261 226 -72 22 -190 26 -257 8 -107 -29 -234 -122 -308 -225 l-21 -30 -1 498
0 497 -50 0 -50 0 0 -1025z"/>
<path d="M280 2510 l0 -50 210 0 210 0 0 -840 0 -840 50 0 50 0 0 840 0 840
210 0 210 0 0 50 0 50 -470 0 -470 0 0 -50z"/>
<path d="M6390 2093 c-83 -4 -321 -23 -357 -30 l-33 -5 0 -1019 0 -1019 45 0
45 0 0 376 0 376 103 -9 c56 -4 149 -7 207 -6 180 2 317 63 423 190 195 234
219 672 51 924 -111 168 -251 232 -484 222z m208 -120 c97 -27 201 -130 242
-240 74 -197 61 -444 -35 -639 -43 -88 -120 -163 -212 -206 -83 -39 -165 -45
-363 -26 l-135 13 0 545 0 544 40 8 c64 13 295 26 355 21 30 -3 79 -12 108
-20z"/>
<path d="M3190 2079 c-75 -15 -169 -69 -240 -139 -76 -74 -131 -166 -168 -278
-22 -68 -26 -95 -26 -222 -1 -151 7 -196 54 -324 34 -90 116 -202 187 -257
150 -115 340 -135 613 -65 l85 21 3 52 3 52 -33 -10 c-154 -46 -226 -59 -317
-59 -53 0 -118 6 -146 14 -150 40 -256 145 -311 308 -25 73 -56 237 -47 251 2
4 209 7 460 7 l456 0 -6 83 c-29 380 -272 623 -567 566z m225 -126 c110 -57
218 -226 240 -378 l7 -45 -406 0 c-325 0 -406 3 -406 13 0 36 35 139 65 192
59 104 141 178 242 221 49 21 71 24 138 21 56 -2 92 -10 120 -24z"/>
<path d="M5113 2075 c-84 -18 -154 -57 -230 -129 -282 -263 -310 -785 -57
-1064 94 -104 197 -147 333 -140 134 8 245 70 352 197 l54 63 3 -111 3 -111
44 0 45 0 0 639 0 638 -67 7 c-114 10 -346 26 -383 25 -19 0 -63 -7 -97 -14z
m345 -101 l112 -7 0 -326 c0 -367 -7 -419 -65 -537 -81 -165 -279 -283 -428
-255 -145 27 -270 174 -313 368 -13 59 -15 102 -11 187 16 294 156 511 367
571 56 15 64 15 338 -1z"/>
<path d="M4040 1425 l0 -645 44 0 44 0 4 358 c4 330 6 363 26 437 48 174 126
290 240 355 l61 35 1 49 c0 48 0 48 -27 41 -78 -19 -190 -111 -259 -215 l-44
-65 0 148 0 147 -45 0 -45 0 0 -645z"/>
<path d="M7163 2048 c2 -7 97 -295 211 -640 l207 -628 -82 -257 c-45 -142 -88
-270 -95 -284 -21 -42 -108 -114 -153 -128 -40 -12 -41 -13 -41 -56 0 -25 4
-45 8 -45 24 0 120 35 151 54 47 30 103 92 121 136 8 19 146 444 305 945 l291
910 -45 3 c-24 2 -47 -2 -51 -8 -3 -6 -85 -256 -181 -555 -96 -300 -177 -545
-180 -545 -3 0 -87 250 -188 555 l-183 555 -50 0 c-36 0 -49 -4 -45 -12z"/>
</g>
</svg>
