<svg xmlns="http://www.w3.org/2000/svg" viewBox="0 0 783.22 649.69"><defs><style>.cls-1,.cls-2{fill:#008970;}.cls-2{fill-rule:evenodd;}.cls-3,.cls-4{fill:#feab6b;}.cls-4{stroke:#feab6b;stroke-miterlimit:10;stroke-width:0.5px;}</style></defs><g id="Layer_2" data-name="Layer 2"><g id="Layer_1-2" data-name="Layer 1"><path class="cls-1" d="M54.72,491.67l1.3-.56a29.2,29.2,0,0,0,12.83-10.64A29.49,29.49,0,0,0,73.36,464a30.37,30.37,0,0,0-4.51-16.77A28.56,28.56,0,0,0,56,436.47q-8.33-3.69-20-3.69H0V520.4H16.28V494.87H36.05c1.17,0,2.31,0,3.43-.09L57.33,520.4H74.86ZM16.28,446.55h19q10.77,0,16.21,4.57T57,464q0,8.26-5.45,12.89T35.3,481.48h-19Z"/><path class="cls-1" d="M104,520.4V432.78H120.3V520.4Z"/><path class="cls-1" d="M183.63,521.66A64.8,64.8,0,0,1,164,518.71a44.47,44.47,0,0,1-15-7.57l5.64-12.64a45.4,45.4,0,0,0,13,6.88,47.07,47.07,0,0,0,15.89,2.76,33.89,33.89,0,0,0,11.14-1.51,13.26,13.26,0,0,0,6.26-4.06,9.19,9.19,0,0,0,2-5.82,8,8,0,0,0-2.88-6.45,21.29,21.29,0,0,0-7.45-3.88q-4.58-1.44-10.14-2.63t-11.14-2.94a49.67,49.67,0,0,1-10.2-4.45,21.21,21.21,0,0,1-7.45-7.19c-1.88-3-2.82-6.84-2.82-11.52a23.66,23.66,0,0,1,3.82-13.08,26.26,26.26,0,0,1,11.64-9.51q7.83-3.57,19.84-3.57a62.66,62.66,0,0,1,15.65,2,45.55,45.55,0,0,1,13.52,5.76l-5.13,12.64a48.27,48.27,0,0,0-12.15-5.19,45.91,45.91,0,0,0-12-1.69,30.7,30.7,0,0,0-10.89,1.63,13.13,13.13,0,0,0-6.2,4.31,10,10,0,0,0-1.94,5.95,8.12,8.12,0,0,0,2.82,6.45,19.75,19.75,0,0,0,7.38,3.81q4.58,1.38,10.2,2.63t11.14,2.94a47.84,47.84,0,0,1,10.14,4.39,21.39,21.39,0,0,1,7.45,7.13q2.82,4.44,2.82,11.33a23.51,23.51,0,0,1-3.82,13q-3.83,5.94-11.7,9.51T183.63,521.66Z"/><polygon class="cls-1" points="325.46 432.78 325.46 520.4 309.31 520.4 309.31 482.85 264 482.85 264 520.4 247.72 520.4 247.72 432.78 264 432.78 264 468.96 309.31 468.96 309.31 432.78 325.46 432.78"/><path class="cls-1" d="M361.63,520.4V432.78h16.28V520.4Z"/><polygon class="cls-1" points="494.32 520.4 475.17 520.4 444.25 483.73 430.35 497.85 430.35 520.4 414.08 520.4 414.08 432.78 430.35 432.78 430.35 477.74 473.54 432.78 491.94 432.78 455.09 471.93 494.32 520.4"/><polygon class="cls-1" points="583.57 506.64 583.57 520.4 517.85 520.4 517.85 432.78 581.82 432.78 581.82 446.55 534.12 446.55 534.12 469.21 576.43 469.21 576.43 482.6 534.12 482.6 534.12 506.64 583.57 506.64"/><path class="cls-1" d="M641.4,521.66a64.8,64.8,0,0,1-19.59-2.95,44.37,44.37,0,0,1-15-7.57l5.63-12.64a45.66,45.66,0,0,0,13,6.88,47.13,47.13,0,0,0,15.9,2.76,33.93,33.93,0,0,0,11.14-1.51,13.31,13.31,0,0,0,6.26-4.06,9.23,9.23,0,0,0,2-5.82,8,8,0,0,0-2.88-6.45,21.2,21.2,0,0,0-7.45-3.88q-4.56-1.44-10.13-2.63t-11.14-2.94A50,50,0,0,1,619,476.4a21.21,21.21,0,0,1-7.45-7.19c-1.87-3-2.81-6.84-2.81-11.52a23.66,23.66,0,0,1,3.82-13.08,26.21,26.21,0,0,1,11.64-9.51q7.81-3.57,19.84-3.57a62.66,62.66,0,0,1,15.65,2,45.37,45.37,0,0,1,13.51,5.76l-5.13,12.64a48.2,48.2,0,0,0-12.14-5.19,45.93,45.93,0,0,0-12-1.69A30.78,30.78,0,0,0,633,446.68a13.1,13.1,0,0,0-6.19,4.31,9.92,9.92,0,0,0-1.94,5.95,8.14,8.14,0,0,0,2.81,6.45,19.88,19.88,0,0,0,7.39,3.81q4.56,1.38,10.2,2.63t11.14,2.94a48.29,48.29,0,0,1,10.14,4.39,21.39,21.39,0,0,1,7.45,7.13q2.82,4.44,2.81,11.33a23.58,23.58,0,0,1-3.81,13q-3.82,5.94-11.71,9.51T641.4,521.66Z"/><polygon class="cls-1" points="783.22 432.78 783.22 520.4 767.08 520.4 767.08 482.85 721.76 482.85 721.76 520.4 705.49 520.4 705.49 432.78 721.76 432.78 721.76 468.96 767.08 468.96 767.08 432.78 783.22 432.78"/><path class="cls-2" d="M327.41,298.14a213.69,213.69,0,0,0-238.88,8.48q163,174.11,299.72,40.9c120.12-117.11,213.68-6.59,95.18,22.78-29.24,7.25-53.76,2.69-66.26-2.43,113.49,93.72,209.5-8.41,277.52-61.49-106.49-63.35-226.87-60-312.61,35.15a89.55,89.55,0,0,1-139.21-7.65C222.14,304.64,296.14,285.31,327.41,298.14Z"/><path class="cls-2" d="M349,291.17c-73.22-69-48.64-126.84,19.32-115.43q-77.64-76.83-184.7-62.66Q172.08,245.72,349,291.17Z"/><path class="cls-2" d="M381.78,104.48a26.62,26.62,0,1,1-26.62,26.62,26.62,26.62,0,0,1,26.62-26.62Zm-65.27,24.35A242.76,242.76,0,0,1,373,171l8.77,8.68,8.76-8.68a242.6,242.6,0,0,1,56.51-42.2Q446.9,65.83,381.78,0q-65.13,65.84-65.27,128.83Z"/><path class="cls-2" d="M414.52,291.17c73.22-69,48.64-126.84-19.31-115.43q77.63-76.83,184.69-62.66Q591.47,245.72,414.52,291.17Z"/><path class="cls-3" d="M405.24,222.41a30.68,30.68,0,0,0-.48-3.85,13.28,13.28,0,0,0-1.54-4.22,7,7,0,0,0-4.11-3.31,9.36,9.36,0,0,0-3.54-.29,6.93,6.93,0,0,0-5,2.81,11.43,11.43,0,0,0-1.77,3.71c-.11.48-.23,1-.37,1.47a.48.48,0,0,1-.17,0,8.52,8.52,0,0,0-4.58.84,16.87,16.87,0,0,0-4.21,2.92c-.14.11-.28.25-.42.37l-1-.93a3,3,0,0,1,.15-.31,6.4,6.4,0,0,0,.5-1.74,11.14,11.14,0,0,0-.08-4,9.61,9.61,0,0,0-4-6.35,9.79,9.79,0,0,0-5.56-1.72,14.46,14.46,0,0,0-5.34.87c-.53.2-1,.42-1.54.65.75,1.85,1.48,3.65,2.22,5.42.89-.39,1.71-.78,2.58-1.09a12.7,12.7,0,0,1,5.14-.93,5.94,5.94,0,0,1,2.31.48,3,3,0,0,1,1.77,2.13,5.41,5.41,0,0,1-.4,3.77,6.93,6.93,0,0,1-2.58,2.84,15.72,15.72,0,0,1-4.08,1.82l-.42.17c.76,1.83,1.52,3.63,2.31,5.43a14.94,14.94,0,0,0,5.84-4.95,3.28,3.28,0,0,1,.26.25c.44.48.87,1,1.29,1.46a14.5,14.5,0,0,1,3.23,8.86,7.74,7.74,0,0,1-1.52,4.86,7,7,0,0,1-4.07,2.75,9.35,9.35,0,0,1-3.94,0,12.13,12.13,0,0,1-6-3,20.83,20.83,0,0,1-4.83-6.26,32,32,0,0,1-3.15-9.7c-.06-.25-.11-.5-.17-.79-.45.14-.87.26-1.29.37l-.54.17a4.63,4.63,0,0,1,.06.62,35.4,35.4,0,0,0,1.38,6.94,26.73,26.73,0,0,0,7.05,11.69,15.74,15.74,0,0,0,8.82,4.49,14.6,14.6,0,0,0,5.23-.11,9.47,9.47,0,0,0,6.07-4.16,10,10,0,0,0,1.41-5.45,15.49,15.49,0,0,0-.9-4.75,23.31,23.31,0,0,0-3-5.59,3.54,3.54,0,0,0-.34-.48c.48-.31.93-.62,1.38-.87a9.16,9.16,0,0,1,3.15-1.21A2.13,2.13,0,0,1,389,226a6,6,0,0,1,.25.92,10.72,10.72,0,0,1,.17,2.34,48.65,48.65,0,0,0,.17,5,10.7,10.7,0,0,0,.84,3.46,4.31,4.31,0,0,0,2.92,2.47,7.6,7.6,0,0,0,1.94.22,7.82,7.82,0,0,0,5.85-2.33,12,12,0,0,0,2.22-3.09,21.23,21.23,0,0,0,1.91-7.64A36.27,36.27,0,0,0,405.24,222.41Zm-2.47,4.8a11.14,11.14,0,0,1-2.48,6,6,6,0,0,1-3.73,2.22,5.8,5.8,0,0,1-1.66,0,3.14,3.14,0,0,1-2.39-1.94,6.27,6.27,0,0,1-.56-2.31,18,18,0,0,1-.09-1.82V223.9a8.45,8.45,0,0,0-.17-2.25c-.11-.34-.22-.68-.36-1a2.65,2.65,0,0,0-1.18-1.3,6.1,6.1,0,0,1,4.89-3.68,6.69,6.69,0,0,1,2.56.14,5.63,5.63,0,0,1,3,2,10,10,0,0,1,2.08,4.92A17.28,17.28,0,0,1,402.77,227.21Zm-14.25-25.82c-.11.14-.17.25-.25.33-.43.45-.79.93-1.21,1.32a7.81,7.81,0,0,1-9,1.58,10,10,0,0,1-3.62-2.87l-.28-.36-1.63,1.2a1,1,0,0,0,.14.23,19.78,19.78,0,0,0,2.92,3.54,12.29,12.29,0,0,0,7.45,3.46,9.62,9.62,0,0,0,5.17-.93,17.11,17.11,0,0,0,4.75-3.63s0,0,.05-.11Zm-6.35-5.26-3.35,3.18c1.16,1.2,2.28,2.39,3.43,3.59,1.15-1.12,2.31-2.24,3.46-3.34C384.5,198.41,383.35,197.28,382.17,196.13Z"/><rect class="cls-1" x="112" y="587.82" width="117.53" height="4.82"/><rect class="cls-1" x="553.68" y="587.82" width="117.53" height="4.82"/><path class="cls-4" d="M305.62,535.35c3.2.15,6.16,4.6,4.76,8.81-2.34,6.86-18.56,32-21.84,37.12,9.28-2.57,22.77-5.07,30.49-6.79,10.77-14,22.23-28.85,33.77-42.26,1.17-1.33,5.46-1.8,3.51-.24s-22.54,27.14-33,42c3.43-.39,15.29-2.27,20.51-2.27,1.8.16,5.7,1.17,3,1.17-5.22,0-25.18,3.2-25.65,3.9-7.72,11.16-26.67,39.54-27.69,53.11-.07.86.16,2.18-1.71,1.79a1.85,1.85,0,0,1-1.17-.85c-5.15-10.3,24.88-51.4,26.28-53.81-3.12.7-23.4,5.3-28.47,6.63a6.22,6.22,0,0,0-3.82,2.57c-6.31,9.12-12.71,18.25-19.1,27.29-.55.86-1.17,1.8-2.19,1.64a3.51,3.51,0,0,1-2-1.48c-5.06-9.2-5-15.6-2.41-20,3.9-6.71,15.59-9.28,24.8-11.31,3.43-4.68,23.39-35.72,24.64-41.41.54-2.81-2.11-4.29-4.91-3.27-8.74,2.88-28.86,19.41-32.68,27.29-1,2.18.78,5.46,6.16,2.73,1.09-.23,2.34-.55,2.11.16-2.34,2.26-7.65,2.49-9.75.62a3.26,3.26,0,0,1-.94-3.82C271.7,555.23,297.9,534.88,305.62,535.35Zm-23.78,50.37c-21.06,3.44-25.74,13.26-18.49,26.6C268.81,604.13,276.53,592.27,281.84,585.72Zm62-14h0Z"/><path class="cls-4" d="M327,600.07c-1.64-3.51.86-7.33,2.88-9.82,2.42-3,8.11-5.62,11.39-4.14,2,.86,3,3.36,1.48,4.92-2.89,2.88-7.33,4.83-10.53,4.52-1.71-.08-1.95-.78-2.18-.23-1.25,3.35.39,5,2,5,6.47.62,18.87-9.36,21.83-11.39,1.48-1.09,2-1.09.7.31-4,3.51-11.46,10.45-19.49,12.87C331,603.19,328.16,602.57,327,600.07Zm4.05-6.86c3,1,6.94-.62,9.59-3.35.63-.63,1.56-1.87.78-2.42a2.51,2.51,0,0,0-2-.16C335.8,588,332.68,590.79,331,593.21Z"/><path class="cls-4" d="M363.4,586.35c2.5-1.25,7.57-.47,7.73,1.56a22.87,22.87,0,0,1,2.26-2.26c1.32-1.49,5.61-.32,4.91.46-6.4,7.1-8.66,13.34-6.94,14.59,2.42,1.56,18.95-14.27,19.5-13.34.31.55-16.23,17.31-20.75,15-2.34-1.17-3.82-3.19-1.79-7.95-3.9,5.14-11,11.07-14,7.95C350.93,599.68,355.14,590.4,363.4,586.35ZM356,601.71c.54.55,3-.55,5.38-2.57,2.49-2.19,5.61-5.77,7.64-8,.55-.54,1.4-2,.94-3C366.76,583.62,353.42,599.29,356,601.71Z"/><path class="cls-4" d="M398,589.16c-1.95,3.82-9.9,19.57-5.85,20.89,6.32,2.19,32.6-19.1,36.34-22.38.47-.39,1.17.32.7.71-5.69,5.77-27.06,23-35.48,24.25a6.09,6.09,0,0,1-3.27-.31c-13.81-7.49,30.64-73.46,54.2-71.44,4.13.24,7.17,3.51,4.91,9.75C443.57,568.49,403.33,587.52,398,589.16Zm1.33-2.58c5.38-2,46-22.69,48.89-38.68,1.09-5-1.09-6.16-4.91-5.61C430.63,544,409.65,568.1,399.28,586.58Z"/><path class="cls-4" d="M435.23,586.58c1.24-1.48,5.61-.39,4.91.39-6.47,7.18-8.66,13.41-6.94,14.58,2.34,1.64,18.87-14.19,19.42-13.25.39.47-16.15,17.31-20.75,15.05C425.32,600.07,433,588.53,435.23,586.58Zm5.3-5.22s3-.63,4.52-.08-3.35,1.48-3.35,1.48-3.59.7-3.35-.16C438.5,582.06,440.53,581.36,440.53,581.36Z"/><path class="cls-4" d="M451.13,599.14a65.82,65.82,0,0,1,9.21-13,1.39,1.39,0,0,1,1.87-.39c-5.07,8.43-6.71,11.23-6.94,12.32,4.21-3.27,10.91-10.76,15.83-13.41,2.57-1.48,4.91,2,4.52,3.28-.16,2.18-6.47,9.67-4.91,11.31,1.71,1.87,13.1-9,16.92-11.7,1.79-1.48,1.25-.24,1,.15a116.77,116.77,0,0,1-15.28,12.79c-1.33.86-3.43,1.33-4.76.16-1.87-1.4-1.64-2.65-1.09-4.29,1.48-4.37,5.3-9.12,4.83-9.67-1.4-.39-14.19,11.85-15.59,13.26a19.32,19.32,0,0,1-2.34,2c-1,.78-2,.08-2.81-.46A1.66,1.66,0,0,1,451.13,599.14Z"/><path class="cls-4" d="M450.59,646.24c-2.5-3-.71-8.58,2.72-13.18,8.66-11.62,32.06-26,45.08-32,0,0,3.9-6.32,5.69-8.74-6.39,6.16-12.94,11-15.91,8.11-3.82-4,3.51-12.16,9.13-15,3.74-1.71,8.89-.39,9.12,2.34a13.82,13.82,0,0,1,2.26-2.26c.71-.47,5.15-.47,4.21.47a71.86,71.86,0,0,0-8.57,12.24c2.73-1.32,18.17-11.23,20.66-11.85.63-.24,1.09.31.94.39-4.21,2.88-23.09,13.88-23.09,13.88C489.81,623.78,462.36,660.51,450.59,646.24Zm1.09-.47c7,9.52,32.36-22.61,45.62-42.66-1.41.39-39,21-45.54,37.12C451.05,642,450.51,644.21,451.68,645.77Zm52.71-56.85c.94-1.64-.31-3.82-4.36-1.64-5.93,3.44-11.39,10.84-10.06,11.94,2.1,1.71,10.76-6.17,12.94-8.5C503.15,590.48,504.24,589.16,504.39,588.92Z"/></g></g></svg>