<?xml version="1.0" standalone="no"?>
<!DOCTYPE svg PUBLIC "-//W3C//DTD SVG 20010904//EN"
 "http://www.w3.org/TR/2001/REC-SVG-20010904/DTD/svg10.dtd">
<svg version="1.0" xmlns="http://www.w3.org/2000/svg"
 width="512.000000pt" height="512.000000pt" viewBox="0 0 512.000000 512.000000"
 preserveAspectRatio="xMidYMid meet">

<g transform="translate(0.000000,512.000000) scale(0.100000,-0.100000)"
fill="#fe8e38" stroke="none">
<path d="M2281 5102 c-19 -9 -44 -30 -55 -45 -20 -28 -21 -42 -24 -458 l-3
-429 -947 0 -948 0 -44 -22 c-24 -13 -53 -36 -64 -51 -21 -28 -21 -32 -24
-1559 l-2 -1532 22 -23 21 -23 984 0 983 0 0 -175 0 -174 -347 -3 -348 -3 -57
-28 c-62 -30 -115 -83 -150 -149 -21 -39 -23 -59 -26 -211 -4 -164 -3 -170 19
-193 l22 -24 1232 0 1232 0 22 24 c22 23 23 29 19 193 -3 152 -5 172 -26 211
-35 66 -88 119 -150 149 l-57 28 -352 3 -353 3 0 174 0 175 1023 0 1024 0 21
23 22 23 -2 1532 c-3 1528 -3 1531 -24 1558 -47 63 -63 69 -215 72 l-139 4 0
421 c0 403 -1 423 -20 455 -11 18 -34 41 -52 52 -32 20 -53 20 -1108 20 -1004
0 -1077 -1 -1109 -18z m2149 -742 l0 -620 -594 0 -593 0 -284 -223 -284 -223
-3 200 c-3 260 8 244 -186 248 l-141 3 -3 618 -2 617 1045 0 1045 0 0 -620z
m-2230 -486 c0 -174 9 -207 64 -247 27 -19 46 -22 149 -25 l117 -4 0 -238 0
-239 27 -21 c19 -15 36 -20 55 -16 16 3 172 119 353 261 l325 255 589 0 588 0
34 23 c60 40 69 72 69 250 l0 158 118 -3 117 -3 3 -1162 2 -1163 -1210 0
-1210 0 -1 213 c0 242 -11 305 -69 401 -90 150 -244 236 -420 236 -57 0 -60 1
-66 28 -3 15 -7 33 -9 39 -3 7 11 24 30 39 19 15 51 48 71 75 20 27 44 49 54
49 34 0 68 39 89 103 50 154 65 375 38 558 -16 105 -42 152 -130 237 -235 225
-677 228 -916 7 -70 -65 -126 -165 -146 -262 -17 -79 -19 -289 -5 -383 29
-180 77 -267 142 -258 23 4 32 -1 48 -26 10 -17 39 -51 64 -76 26 -25 44 -51
42 -60 -2 -8 -7 -27 -10 -42 -6 -27 -9 -28 -69 -28 -80 0 -177 -23 -241 -58
-70 -37 -165 -135 -198 -204 -50 -103 -58 -154 -58 -380 l0 -208 -160 0 -160
0 0 1158 c0 637 3 1162 7 1165 3 4 429 7 945 7 l938 0 0 -156z m-552 -179
c127 -30 236 -102 287 -189 29 -49 48 -166 43 -266 l-3 -65 -18 37 c-18 36
-66 68 -103 68 -9 0 -58 -19 -108 -42 l-91 -43 -145 0 -145 0 -85 39 c-47 22
-99 40 -116 40 -39 0 -79 -26 -104 -67 l-20 -32 0 70 c1 150 46 274 128 346
114 100 313 143 480 104z m-318 -629 c144 -34 392 -12 486 43 l33 20 13 -37
c19 -57 14 -160 -11 -217 -30 -68 -74 -111 -151 -148 -61 -30 -71 -32 -180
-32 -106 0 -120 2 -173 28 -71 34 -132 94 -160 156 -24 54 -36 196 -18 229
l11 21 43 -24 c23 -13 72 -31 107 -39z m90 -515 c60 -14 147 -14 211 0 57 12
69 6 69 -41 0 -29 -74 -107 -127 -134 -67 -33 -135 -12 -212 67 -39 41 -42 48
-36 78 10 45 14 51 33 45 10 -3 37 -10 62 -15z m-153 -207 c140 -144 293 -161
439 -49 33 24 70 61 84 80 l25 36 90 -4 c110 -4 170 -28 237 -94 26 -25 59
-73 75 -107 28 -60 28 -64 31 -283 l3 -223 -95 0 -96 0 0 152 c0 142 -1 153
-22 175 -27 29 -65 29 -95 1 -22 -21 -23 -27 -23 -175 l0 -153 -405 0 -405 0
0 152 c0 142 -1 153 -22 175 -27 29 -65 29 -95 1 -22 -21 -23 -27 -23 -175 l0
-153 -101 0 -100 0 3 223 c3 206 5 226 26 271 64 139 181 214 336 215 l69 1
64 -66z m3543 -1014 l0 -230 -2250 0 -2250 0 0 230 0 230 2250 0 2250 0 0
-230z m-2090 -545 l0 -175 -200 0 -200 0 0 175 0 175 200 0 200 0 0 -175z
m827 -326 c38 -14 83 -57 99 -96 9 -20 14 -69 14 -128 l0 -95 -1135 0 -1135 0
0 94 c0 105 9 138 48 180 55 58 3 55 1084 56 681 0 1006 -3 1025 -11z"/>
<path d="M2642 4687 c-28 -30 -28 -68 1 -95 l23 -22 725 0 726 0 21 23 c28 30
28 68 -1 95 l-23 22 -725 0 -726 0 -21 -23z"/>
<path d="M2642 4407 c-28 -30 -28 -68 1 -95 l23 -22 725 0 726 0 21 23 c28 30
28 68 -1 95 l-23 22 -725 0 -726 0 -21 -23z"/>
<path d="M2642 4137 c-28 -30 -28 -68 1 -95 l23 -22 725 0 726 0 21 23 c28 30
28 68 -1 95 l-23 22 -725 0 -726 0 -21 -23z"/>
<path d="M4102 1377 c-28 -30 -28 -68 1 -95 22 -21 33 -22 173 -22 144 0 151
1 172 23 28 30 28 68 -1 95 -22 21 -33 22 -173 22 -144 0 -151 -1 -172 -23z"/>
</g>
</svg>
