<?xml version="1.0" standalone="no"?>
<!DOCTYPE svg PUBLIC "-//W3C//DTD SVG 20010904//EN"
 "http://www.w3.org/TR/2001/REC-SVG-20010904/DTD/svg10.dtd">
<svg version="1.0" xmlns="http://www.w3.org/2000/svg"
 width="512.000000pt" height="512.000000pt" viewBox="0 0 512.000000 512.000000"
 preserveAspectRatio="xMidYMid meet">

<g transform="translate(0.000000,512.000000) scale(0.100000,-0.100000)"
fill="#fe8e38" stroke="none">
<path d="M2605 5018 c-105 -169 -153 -306 -140 -401 10 -82 44 -156 94 -208
71 -74 69 -75 101 91 11 57 24 108 29 113 12 12 27 -17 66 -132 38 -115 53
-122 102 -48 46 69 66 147 61 235 -4 62 -12 87 -51 165 -45 89 -170 267 -194
274 -6 2 -37 -38 -68 -89z"/>
<path d="M3324 4686 c-180 -49 -266 -116 -300 -234 -14 -48 -13 -122 2 -122 3
0 38 23 79 51 40 28 78 50 84 48 6 -3 -6 -39 -29 -89 l-40 -85 27 -3 c79 -10
186 57 229 143 27 56 64 215 64 278 0 44 -2 45 -116 13z"/>
<path d="M1190 4533 c0 -107 15 -204 39 -258 36 -79 135 -154 204 -155 33 0
34 10 3 86 -51 126 -46 131 56 47 78 -64 88 -62 88 18 0 99 -54 189 -151 249
-50 31 -208 100 -228 100 -7 0 -11 -33 -11 -87z"/>
<path d="M1800 4511 c0 -129 13 -200 46 -258 25 -44 90 -101 137 -121 27 -11
87 -17 87 -8 0 3 -13 40 -30 83 -48 123 -43 128 55 48 37 -30 70 -53 75 -50
29 18 11 147 -31 215 -36 58 -113 113 -221 158 -130 53 -118 60 -118 -67z"/>
<path d="M2326 4273 c-70 -217 -65 -315 24 -417 28 -32 77 -66 95 -66 3 0 5
45 5 100 0 55 4 100 9 100 5 0 29 -32 53 -72 24 -39 48 -73 54 -75 6 -2 20 9
30 24 15 22 19 46 19 118 0 100 -7 119 -74 200 -41 50 -168 165 -182 165 -4 0
-19 -35 -33 -77z"/>
<path d="M3476 4214 c-147 -40 -229 -94 -274 -181 -20 -36 -33 -116 -24 -146
l8 -29 74 51 c68 46 100 61 100 46 0 -3 -16 -37 -35 -75 -48 -96 -47 -104 14
-97 89 11 177 84 212 175 23 63 48 186 49 245 0 45 -1 45 -124 11z"/>
<path d="M4184 4216 c-165 -45 -246 -102 -289 -201 -17 -40 -25 -138 -13 -151
4 -3 39 17 79 45 62 44 99 61 99 47 0 -2 -16 -37 -35 -79 -19 -42 -35 -81 -35
-88 0 -8 15 -10 52 -6 88 11 173 82 208 175 24 63 49 186 50 245 0 44 -2 45
-116 13z"/>
<path d="M460 4174 c-52 -14 -96 -27 -99 -29 -17 -18 182 -235 242 -264 84
-40 193 -36 248 8 l24 19 -77 48 c-105 66 -103 79 11 71 49 -3 91 -3 94 0 3 2
1 18 -5 33 -12 37 -78 96 -132 121 -61 28 -186 25 -306 -7z"/>
<path d="M2864 4078 c-197 -206 -252 -335 -209 -493 21 -80 69 -152 90 -135 7
6 32 56 56 111 63 147 72 146 89 -16 7 -60 16 -114 20 -119 25 -26 127 84 161
172 30 81 34 128 15 222 -22 106 -115 340 -136 340 -4 0 -43 -37 -86 -82z"/>
<path d="M1840 3901 c0 -111 14 -230 36 -307 37 -130 158 -239 279 -251 68 -7
68 -7 15 120 -64 153 -56 159 73 57 91 -72 101 -77 112 -59 12 19 6 144 -9
187 -51 144 -154 223 -413 318 l-93 34 0 -99z"/>
<path d="M1180 3943 c-46 -8 -175 -45 -183 -53 -11 -10 103 -160 156 -205 71
-62 113 -79 197 -79 54 -1 85 4 113 18 20 10 37 22 37 26 0 4 -36 31 -81 59
-45 29 -77 56 -74 62 5 7 37 8 95 3 56 -4 90 -3 94 4 3 5 -9 32 -27 58 -24 36
-48 57 -95 81 -56 29 -73 33 -135 32 -40 -1 -83 -4 -97 -6z"/>
<path d="M3426 3659 c-128 -17 -234 -86 -289 -187 -32 -59 -46 -132 -26 -132
8 0 59 14 113 30 105 32 136 36 136 20 0 -5 -36 -48 -80 -94 -44 -47 -80 -90
-80 -95 0 -19 73 -34 142 -28 169 14 269 105 393 359 l56 113 -25 6 c-45 12
-270 18 -340 8z"/>
<path d="M4024 3600 c-34 -5 -80 -18 -101 -28 -73 -38 -143 -129 -143 -187 0
-30 10 -31 81 -7 130 45 136 39 49 -52 -33 -35 -60 -68 -60 -73 0 -16 72 -26
129 -18 75 10 143 55 195 128 56 78 122 215 110 226 -14 13 -191 20 -260 11z"/>
<path d="M675 3497 c-61 -21 -143 -64 -212 -114 -35 -24 -63 -46 -63 -49 0
-11 186 -125 235 -143 79 -30 162 -28 230 5 53 25 100 68 90 84 -3 5 -29 13
-58 20 -95 20 -128 31 -122 40 3 5 44 21 90 35 47 15 85 30 85 34 0 14 -56 60
-92 75 -53 23 -136 28 -183 13z"/>
<path d="M1475 3355 c-49 -12 -120 -36 -156 -52 -92 -39 -289 -145 -289 -155
0 -14 213 -190 294 -243 158 -103 282 -134 419 -106 105 22 238 107 225 143
-3 7 -61 33 -129 57 -68 24 -137 50 -153 58 -48 25 -14 41 144 68 79 13 148
29 153 34 20 20 -77 122 -153 161 -52 27 -182 60 -229 60 -20 -1 -76 -12 -126
-25z"/>
<path d="M4495 3351 c-45 -11 -92 -38 -109 -63 -29 -41 -21 -48 49 -48 37 0
65 -4 65 -10 0 -6 -25 -22 -55 -37 -30 -15 -55 -31 -55 -35 0 -17 68 -42 115
-42 66 0 111 23 193 99 l67 62 -40 20 c-85 43 -182 65 -230 54z"/>
<path d="M2548 3202 c-557 -790 -683 -1357 -463 -2087 41 -137 90 -272 144
-394 23 -52 41 -95 41 -95 0 -1 -44 -1 -98 -1 -85 0 -101 3 -129 23 -135 96
-269 89 -461 -24 -107 -64 -349 -246 -361 -272 -15 -32 -14 -145 1 -164 21
-26 506 -131 752 -163 336 -43 911 -23 1196 41 120 27 525 137 533 144 14 12
-88 126 -157 174 -134 96 -236 123 -511 136 -285 13 -362 38 -471 151 -98 104
-141 228 -229 659 -54 263 -58 327 -26 393 31 64 64 89 221 166 153 76 230
125 341 218 111 93 231 235 310 368 23 39 23 40 2 25 -12 -8 -170 -114 -350
-236 -333 -224 -496 -317 -542 -312 -23 3 -26 8 -29 47 -4 57 23 242 54 366
40 159 69 249 196 604 65 183 117 335 115 337 -2 2 -37 -45 -79 -104z"/>
<path d="M2935 3124 c-11 -2 -43 -9 -72 -15 -91 -18 -180 -107 -197 -196 -7
-40 -5 -40 99 -8 44 14 83 25 88 25 18 0 3 -24 -55 -85 -69 -74 -68 -85 9 -92
78 -8 157 25 219 91 48 50 166 258 154 269 -7 7 -221 16 -245 11z"/>
<path d="M3566 2985 c-95 -18 -144 -39 -212 -91 -103 -78 -174 -191 -177 -282
-2 -57 -10 -57 174 -1 133 40 169 46 169 30 0 -14 -44 -65 -138 -163 -46 -48
-82 -93 -80 -100 12 -36 177 -50 277 -23 188 50 304 176 452 495 l59 125 -28
8 c-15 4 -115 10 -222 12 -147 4 -214 1 -274 -10z"/>
<path d="M4235 2836 c-34 -15 -70 -52 -58 -59 4 -2 32 -10 61 -17 28 -6 52
-15 52 -20 0 -4 -21 -13 -47 -20 -27 -7 -52 -17 -57 -21 -14 -13 11 -36 59
-55 61 -23 118 -12 196 36 104 64 98 57 64 86 -82 70 -200 101 -270 70z"/>
<path d="M955 2826 c-58 -18 -120 -52 -203 -109 l-73 -50 53 -39 c151 -110
283 -148 388 -113 52 17 134 80 125 95 -3 4 -29 13 -57 20 -105 24 -128 31
-128 40 0 5 38 21 85 35 46 14 87 30 90 35 9 15 -68 70 -119 85 -59 18 -107
18 -161 1z"/>
<path d="M1633 2650 c-72 -19 -293 -124 -293 -140 0 -16 185 -160 253 -197 68
-36 77 -38 162 -38 75 0 98 4 137 24 26 14 57 34 68 46 26 28 20 33 -85 70
-135 47 -134 56 5 80 52 9 99 20 103 24 13 13 -50 79 -97 103 -45 23 -130 48
-161 47 -11 0 -53 -9 -92 -19z"/>
</g>
</svg>
