<?xml version="1.0" standalone="no"?>
<svg xmlns:xlink="http://www.w3.org/1999/xlink" id="wave" style="transform:rotate(0deg); transition: 0.3s" viewBox="0 0 1440 120" version="1.1" xmlns="http://www.w3.org/2000/svg"><defs><linearGradient id="sw-gradient-0" x1="0" x2="0" y1="1" y2="0"><stop stop-color="rgba(255, 255, 255, 0.5)" offset="0%"/><stop stop-color="rgba(255, 255, 255, 0.5)" offset="100%"/></linearGradient></defs><path style="transform:translate(0, 0px); opacity:1" fill="url(#sw-gradient-0)" d="M0,108L60,108C120,108,240,108,360,100C480,92,600,76,720,60C840,44,960,28,1080,26C1200,24,1320,36,1440,50C1560,64,1680,80,1800,90C1920,100,2040,104,2160,92C2280,80,2400,52,2520,42C2640,32,2760,40,2880,54C3000,68,3120,88,3240,86C3360,84,3480,60,3600,56C3720,52,3840,68,3960,62C4080,56,4200,28,4320,28C4440,28,4560,56,4680,72C4800,88,4920,92,5040,96C5160,100,5280,104,5400,100C5520,96,5640,84,5760,72C5880,60,6000,48,6120,50C6240,52,6360,68,6480,74C6600,80,6720,76,6840,76C6960,76,7080,80,7200,76C7320,72,7440,60,7560,52C7680,44,7800,40,7920,32C8040,24,8160,12,8280,22C8400,32,8520,64,8580,80L8640,96L8640,120L8580,120C8520,120,8400,120,8280,120C8160,120,8040,120,7920,120C7800,120,7680,120,7560,120C7440,120,7320,120,7200,120C7080,120,6960,120,6840,120C6720,120,6600,120,6480,120C6360,120,6240,120,6120,120C6000,120,5880,120,5760,120C5640,120,5520,120,5400,120C5280,120,5160,120,5040,120C4920,120,4800,120,4680,120C4560,120,4440,120,4320,120C4200,120,4080,120,3960,120C3840,120,3720,120,3600,120C3480,120,3360,120,3240,120C3120,120,3000,120,2880,120C2760,120,2640,120,2520,120C2400,120,2280,120,2160,120C2040,120,1920,120,1800,120C1680,120,1560,120,1440,120C1320,120,1200,120,1080,120C960,120,840,120,720,120C600,120,480,120,360,120C240,120,120,120,60,120L0,120Z"/><defs><linearGradient id="sw-gradient-1" x1="0" x2="0" y1="1" y2="0"><stop stop-color="rgba(255, 255, 255, 0.5)" offset="0%"/><stop stop-color="rgba(255, 255, 255, 0.5)" offset="100%"/></linearGradient></defs><path style="transform:translate(0, 50px); opacity:0.9" fill="url(#sw-gradient-1)" d="M0,0L60,14C120,28,240,56,360,62C480,68,600,52,720,40C840,28,960,20,1080,28C1200,36,1320,60,1440,62C1560,64,1680,44,1800,36C1920,28,2040,32,2160,46C2280,60,2400,84,2520,96C2640,108,2760,108,2880,100C3000,92,3120,76,3240,60C3360,44,3480,28,3600,30C3720,32,3840,52,3960,62C4080,72,4200,72,4320,64C4440,56,4560,40,4680,38C4800,36,4920,48,5040,48C5160,48,5280,36,5400,40C5520,44,5640,64,5760,70C5880,76,6000,68,6120,68C6240,68,6360,76,6480,66C6600,56,6720,28,6840,32C6960,36,7080,72,7200,78C7320,84,7440,60,7560,50C7680,40,7800,44,7920,48C8040,52,8160,56,8280,62C8400,68,8520,76,8580,80L8640,84L8640,120L8580,120C8520,120,8400,120,8280,120C8160,120,8040,120,7920,120C7800,120,7680,120,7560,120C7440,120,7320,120,7200,120C7080,120,6960,120,6840,120C6720,120,6600,120,6480,120C6360,120,6240,120,6120,120C6000,120,5880,120,5760,120C5640,120,5520,120,5400,120C5280,120,5160,120,5040,120C4920,120,4800,120,4680,120C4560,120,4440,120,4320,120C4200,120,4080,120,3960,120C3840,120,3720,120,3600,120C3480,120,3360,120,3240,120C3120,120,3000,120,2880,120C2760,120,2640,120,2520,120C2400,120,2280,120,2160,120C2040,120,1920,120,1800,120C1680,120,1560,120,1440,120C1320,120,1200,120,1080,120C960,120,840,120,720,120C600,120,480,120,360,120C240,120,120,120,60,120L0,120Z"/><defs><linearGradient id="sw-gradient-2" x1="0" x2="0" y1="1" y2="0"><stop stop-color="rgba(255, 255, 255, 0.5)" offset="0%"/><stop stop-color="rgba(255, 255, 255, 0.5)" offset="100%"/></linearGradient></defs><path style="transform:translate(0, 100px); opacity:0.8" fill="url(#sw-gradient-2)" d="M0,84L60,78C120,72,240,60,360,46C480,32,600,16,720,10C840,4,960,8,1080,20C1200,32,1320,52,1440,58C1560,64,1680,56,1800,52C1920,48,2040,48,2160,50C2280,52,2400,56,2520,64C2640,72,2760,84,2880,92C3000,100,3120,104,3240,98C3360,92,3480,76,3600,64C3720,52,3840,44,3960,36C4080,28,4200,20,4320,20C4440,20,4560,28,4680,26C4800,24,4920,12,5040,14C5160,16,5280,32,5400,38C5520,44,5640,40,5760,44C5880,48,6000,60,6120,60C6240,60,6360,48,6480,54C6600,60,6720,84,6840,84C6960,84,7080,60,7200,44C7320,28,7440,20,7560,24C7680,28,7800,44,7920,50C8040,56,8160,52,8280,48C8400,44,8520,40,8580,38L8640,36L8640,120L8580,120C8520,120,8400,120,8280,120C8160,120,8040,120,7920,120C7800,120,7680,120,7560,120C7440,120,7320,120,7200,120C7080,120,6960,120,6840,120C6720,120,6600,120,6480,120C6360,120,6240,120,6120,120C6000,120,5880,120,5760,120C5640,120,5520,120,5400,120C5280,120,5160,120,5040,120C4920,120,4800,120,4680,120C4560,120,4440,120,4320,120C4200,120,4080,120,3960,120C3840,120,3720,120,3600,120C3480,120,3360,120,3240,120C3120,120,3000,120,2880,120C2760,120,2640,120,2520,120C2400,120,2280,120,2160,120C2040,120,1920,120,1800,120C1680,120,1560,120,1440,120C1320,120,1200,120,1080,120C960,120,840,120,720,120C600,120,480,120,360,120C240,120,120,120,60,120L0,120Z"/></svg>