<?xml version="1.0" standalone="no"?>
<!DOCTYPE svg PUBLIC "-//W3C//DTD SVG 20010904//EN"
 "http://www.w3.org/TR/2001/REC-SVG-20010904/DTD/svg10.dtd">
<svg version="1.0" xmlns="http://www.w3.org/2000/svg"
 width="462.000000pt" height="31.000000pt" viewBox="0 0 462.000000 31.000000"
 preserveAspectRatio="xMidYMid meet">

<g transform="translate(0.000000,31.000000) scale(0.100000,-0.100000)"
fill="#feb37a" stroke="none">
<path d="M2255 296 c-37 -16 -70 -52 -84 -89 -36 -95 36 -197 139 -197 156 0
208 204 70 277 -49 26 -81 28 -125 9z m131 -27 c19 -11 34 -22 34 -24 0 -1 6
-18 14 -36 l14 -34 -134 0 -135 0 6 25 c8 29 42 69 70 80 37 16 97 11 131 -11z"/>
<path d="M1997 242 c-20 -21 -24 -131 -7 -163 12 -21 50 -25 68 -7 19 19 16
153 -4 172 -20 21 -37 20 -57 -2z m53 -37 c0 -31 -3 -35 -25 -35 -21 0 -25 5
-25 28 0 33 7 42 32 42 14 0 18 -8 18 -35z"/>
<path d="M2576 247 c-14 -10 -16 -26 -14 -97 3 -80 4 -85 26 -88 42 -6 52 14
52 99 0 67 -3 80 -19 89 -24 13 -24 13 -45 -3z m45 -19 c0 -7 2 -23 5 -35 3
-20 0 -23 -26 -23 -26 0 -30 4 -30 28 0 16 3 32 7 35 11 12 43 8 44 -5z"/>
<path d="M1273 208 c-8 -11 -10 -49 -5 -96 1 -8 11 -12 25 -10 18 2 23 10 25
46 4 57 -21 90 -45 60z"/>
<path d="M1347 202 c-37 -40 -6 -112 48 -112 29 0 65 36 65 65 0 11 -7 31 -16
43 -19 28 -74 30 -97 4z m74 -2 c32 -18 21 -30 -26 -30 -47 0 -58 12 -27 29
22 13 29 13 53 1z"/>
<path d="M1914 195 c-18 -28 -13 -64 12 -89 32 -33 44 -20 44 49 0 58 -2 65
-20 65 -11 0 -27 -11 -36 -25z"/>
<path d="M2660 155 c0 -71 15 -85 44 -43 21 30 20 71 -2 91 -34 31 -42 21 -42
-48z"/>
<path d="M3186 205 c-24 -25 -29 -54 -12 -80 44 -67 142 -19 114 55 -5 13 -15
28 -21 32 -20 13 -65 9 -81 -7z m78 -11 c9 -8 16 -17 16 -20 0 -2 -23 -4 -52
-4 -50 0 -51 0 -33 20 22 24 48 26 69 4z"/>
<path d="M3317 213 c-4 -3 -7 -31 -7 -60 0 -51 2 -54 23 -51 19 3 22 10 25 52
2 32 -1 52 -10 57 -16 11 -23 11 -31 2z"/>
<path d="M2090 154 c0 -54 1 -55 27 -52 25 3 27 7 29 56 3 51 2 52 -27 52 -29
0 -29 -1 -29 -56z"/>
<path d="M2482 158 c3 -49 5 -53 28 -53 23 0 25 4 28 53 l3 52 -31 0 -31 0 3
-52z"/>
<path d="M164 176 c-12 -31 0 -51 30 -51 36 0 56 26 37 49 -17 20 -60 21 -67
2z"/>
<path d="M1222 158 c2 -18 8 -33 13 -33 6 0 11 15 13 33 3 24 -1 32 -13 32
-12 0 -16 -8 -13 -32z"/>
<path d="M1648 183 c-133 -3 -167 -6 -172 -18 -3 -8 -1 -17 3 -20 5 -3 85 -7
178 -9 92 -2 175 -7 184 -10 10 -4 23 0 33 9 23 24 4 56 -32 53 -15 -1 -102
-4 -194 -5z"/>
<path d="M2744 175 c-10 -26 10 -50 37 -47 13 1 100 5 194 8 93 2 171 7 173 9
3 2 2 11 -1 20 -5 12 -30 15 -149 15 -79 0 -167 3 -195 6 -45 6 -54 4 -59 -11z"/>
<path d="M3378 173 c-6 -27 2 -55 15 -50 15 5 16 59 1 64 -6 2 -13 -4 -16 -14z"/>
<path d="M4394 176 c-12 -31 0 -51 31 -51 27 0 30 3 30 30 0 25 -4 30 -28 33
-17 2 -29 -2 -33 -12z"/>
<path d="M35 167 l-40 -13 57 -13 c63 -15 91 -10 86 16 -4 23 -48 26 -103 10z"/>
<path d="M407 173 c-120 -3 -157 -7 -154 -16 3 -9 114 -13 476 -15 446 -2 472
-1 469 15 -3 17 -26 18 -318 18 -173 1 -386 -1 -473 -2z"/>
<path d="M3425 170 c-3 -5 -3 -14 0 -20 4 -6 173 -10 476 -10 385 0 469 2 469
13 0 11 -48 15 -232 20 -351 10 -706 9 -713 -3z"/>
<path d="M4484 165 c-14 -35 16 -43 94 -23 l46 11 -34 13 c-49 17 -99 17 -106
-1z"/>
</g>
</svg>
